<?xml version="1.0" encoding="UTF-8"?>
<!DOCTYPE svg PUBLIC "-//W3C//DTD SVG 1.1//EN" "http://www.w3.org/Graphics/SVG/1.1/DTD/svg11.dtd">
<!-- Creator: CorelDRAW X7 -->
<svg xmlns="http://www.w3.org/2000/svg" xml:space="preserve" width="7.8621mm" height="7.862mm" version="1.1" style="shape-rendering:geometricPrecision; text-rendering:geometricPrecision; image-rendering:optimizeQuality; fill-rule:evenodd; clip-rule:evenodd"
viewBox="0 0 126 126"
 xmlns:xlink="http://www.w3.org/1999/xlink">
 <defs>
  <style type="text/css">
   <![CDATA[
    .fil0 {fill:gray}
   ]]>
  </style>
 </defs>
 <g id="Layer-63">
  <metadata id="CorelCorpID_0Corel-Layer"/>
  <path class="fil0" d="M108 19c-12,-13 -27,-19 -45,-19 -17,0 -32,6 -44,19 -13,12 -19,27 -19,44 0,18 6,33 19,45 12,12 27,18 44,18 18,0 33,-6 45,-18 12,-12 18,-27 18,-45 0,-17 -6,-32 -18,-44zm10 44c0,15 -6,28 -16,39 -11,10 -24,16 -39,16 -15,0 -28,-6 -38,-16 -11,-11 -16,-24 -16,-39 0,-15 5,-28 16,-38 10,-11 23,-16 38,-16 15,0 28,5 39,16 10,10 16,23 16,38zm-32 -4l-19 0 0 -27c0,-1 -1,-2 -1,-3 -1,0 -2,-1 -3,-1 -1,0 -2,1 -3,1 -1,1 -1,2 -1,3l0 31 0 0c0,1 0,2 1,3 1,0 2,1 3,1l23 0c1,0 2,-1 3,-1 0,-1 1,-2 1,-3 0,-1 -1,-2 -1,-3 -1,-1 -2,-1 -3,-1z"/>
 </g>
</svg>
