<?xml version="1.0" encoding="UTF-8"?>
<!DOCTYPE svg PUBLIC "-//W3C//DTD SVG 1.1//EN" "http://www.w3.org/Graphics/SVG/1.1/DTD/svg11.dtd">
<!-- Creator: CorelDRAW X7 -->
<svg xmlns="http://www.w3.org/2000/svg" xml:space="preserve" width="10.5648mm" height="7.9051mm" version="1.1" style="shape-rendering:geometricPrecision; text-rendering:geometricPrecision; image-rendering:optimizeQuality; fill-rule:evenodd; clip-rule:evenodd"
viewBox="0 0 227 170"
 xmlns:xlink="http://www.w3.org/1999/xlink">
 <defs>
  <style type="text/css">
   <![CDATA[
    .fil0 {fill:gray}
   ]]>
  </style>
 </defs>
 <g id="Layer-66">
  <metadata id="CorelCorpID_0Corel-Layer"/>
  <path class="fil0" d="M38 105l28 -28c3,-3 3,-6 0,-8 -3,-3 -5,-3 -8,0l-18 18 0 -2c0,-20 7,-38 21,-52 15,-14 32,-22 52,-22 21,0 38,8 52,22 7,7 13,15 16,23l9 -8c-4,-9 -10,-16 -17,-23 -16,-17 -36,-25 -60,-25 -23,0 -43,8 -60,25 -16,16 -25,36 -25,60l0 2 -12 -12 -6 -6c-3,-3 -5,-3 -8,0 -3,2 -3,5 0,8l28 28c3,3 5,3 8,0zm149 -20c0,-1 0,-1 0,-2l-19 18c-3,3 -5,3 -8,1 -3,-3 -3,-6 0,-8l29 -29c2,-3 5,-3 7,0l29 29c3,2 3,5 0,8 -3,2 -5,2 -8,-1l-7 -6 -12 -12c0,1 0,1 0,2 0,23 -8,43 -25,60 -16,17 -36,25 -60,25 -23,0 -43,-8 -60,-25 -7,-7 -12,-15 -16,-23l8 -9c4,9 9,17 16,24 15,14 32,21 52,21 21,0 38,-7 52,-21 15,-14 22,-32 22,-52z"/>
 </g>
</svg>
