<?xml version="1.0" encoding="UTF-8"?>
<!DOCTYPE svg PUBLIC "-//W3C//DTD SVG 1.1//EN" "http://www.w3.org/Graphics/SVG/1.1/DTD/svg11.dtd">
<!-- Creator: CorelDRAW X7 -->
<svg xmlns="http://www.w3.org/2000/svg" xml:space="preserve" width="30.1122mm" height="9.1295mm" version="1.1" style="shape-rendering:geometricPrecision; text-rendering:geometricPrecision; image-rendering:optimizeQuality; fill-rule:evenodd; clip-rule:evenodd"
viewBox="0 0 1880 570"
 xmlns:xlink="http://www.w3.org/1999/xlink">
 <defs>
  <style type="text/css">
   <![CDATA[
    .fil0 {fill:#009933}
    .fil1 {fill:white}
    .fil2 {fill:white;fill-rule:nonzero}
   ]]>
  </style>
 </defs>
 <g id="Слой_x0020_1">
  <metadata id="CorelCorpID_0Corel-Layer"/>
  <rect class="fil0" width="1880" height="570"/>
  <path class="fil1" d="M478 161c-35,-34 -76,-51 -124,-51 -48,0 -90,17 -124,51 -34,34 -51,76 -51,124 0,48 17,90 51,124 34,34 76,51 124,51 48,0 89,-17 124,-51 34,-34 51,-76 51,-124 0,-48 -17,-90 -51,-124zm-16 232c-30,30 -66,45 -108,45 -42,0 -78,-15 -108,-45 -30,-30 -45,-66 -45,-108 0,-42 15,-79 45,-108 30,-30 66,-45 108,-45 42,0 78,15 108,45 30,29 45,66 45,108 0,42 -15,78 -45,108zm-25 -168c-1,-4 -3,-7 -6,-10 -4,-2 -7,-3 -11,-2 -5,1 -8,3 -11,7l-74 113 -34 -33c-4,-3 -7,-4 -12,-4 -4,0 -8,2 -10,5 -3,3 -4,7 -4,11 0,4 2,8 4,11l50 45c0,0 0,0 0,0 0,0 0,0 1,1 0,0 0,0 0,0 0,0 1,0 1,0 1,1 1,1 1,1 1,0 2,1 3,1 1,0 2,0 2,0 2,1 3,1 4,0 0,0 1,0 1,0 2,0 4,-1 5,-2 0,0 0,0 1,-1 1,-1 2,-1 2,-1 0,-1 1,-1 1,-1 0,-1 0,-1 0,-1l84 -129c2,-3 3,-7 2,-11z"/>
  <polygon class="fil2" points="779,376 755,376 755,216 672,216 672,376 647,376 647,194 779,194 "/>
  <path id="1" class="fil2" d="M931 249c0,8 -1,15 -4,22 -3,7 -7,13 -12,18 -6,6 -13,11 -22,14 -8,4 -19,5 -32,5l-20 0 0 68 -25 0 0 -182 46 0c11,0 20,1 27,3 8,1 15,4 20,8 7,5 12,11 16,18 4,7 6,16 6,26zm-25 0c0,-6 -1,-11 -3,-16 -3,-4 -6,-8 -10,-11 -4,-3 -9,-4 -14,-5 -5,-1 -11,-2 -18,-2l-20 0 0 72 16 0c10,0 18,-1 24,-2 6,-2 11,-5 15,-9 3,-3 6,-7 7,-12 2,-4 3,-9 3,-15z"/>
  <polygon id="2" class="fil2" points="1085,376 1061,376 1061,232 979,376 954,376 954,194 979,194 979,336 1059,194 1085,194 "/>
  <polygon id="3" class="fil2" points="1254,376 1230,376 1230,287 1146,287 1146,376 1122,376 1122,194 1146,194 1146,265 1230,265 1230,194 1254,194 "/>
  <path id="4" class="fil2" d="M1407 376l-24 0 0 -72 -28 0 -54 72 -29 0 58 -76c-12,-4 -21,-11 -28,-19 -7,-9 -10,-21 -10,-35 0,-9 2,-17 6,-24 3,-7 9,-13 15,-17 6,-4 12,-7 20,-9 8,-1 16,-2 26,-2l48 0 0 182zm-24 -93l0 -68 -26 0c-7,0 -12,0 -16,1 -5,1 -8,3 -12,5 -4,3 -7,6 -9,11 -2,4 -3,9 -3,15 0,6 1,12 2,16 2,4 4,8 8,11 3,4 8,6 13,8 5,1 11,1 18,1l25 0z"/>
  <polygon id="5" class="fil2" points="1487,376 1487,216 1425,216 1425,194 1572,194 1572,216 1511,216 1511,376 "/>
  <path id="6" class="fil2" d="M1713 320c0,8 -2,16 -5,24 -4,7 -8,13 -14,17 -7,5 -14,9 -22,12 -8,2 -18,3 -30,3l-52 0 0 -182 24 0 0 71 28 0c13,0 23,1 31,2 7,2 15,5 22,11 6,4 10,10 13,18 3,7 5,15 5,24zm-26 0c0,-6 -1,-11 -3,-16 -1,-5 -5,-8 -9,-11 -4,-3 -10,-5 -15,-6 -6,0 -15,-1 -25,-1l-21 0 0 69 20 0c11,0 19,-1 25,-2 6,-1 11,-3 15,-6 5,-3 8,-7 10,-11 2,-4 3,-9 3,-16z"/>
 </g>
</svg>
