<?xml version="1.0" encoding="UTF-8"?>
<!DOCTYPE svg PUBLIC "-//W3C//DTD SVG 1.1//EN" "http://www.w3.org/Graphics/SVG/1.1/DTD/svg11.dtd">
<!-- Creator: CorelDRAW X7 -->
<svg xmlns="http://www.w3.org/2000/svg" xml:space="preserve" width="4.7683mm" height="20.0048mm" version="1.1" style="shape-rendering:geometricPrecision; text-rendering:geometricPrecision; image-rendering:optimizeQuality; fill-rule:evenodd; clip-rule:evenodd"
viewBox="0 0 86 362"
 xmlns:xlink="http://www.w3.org/1999/xlink">
 <defs>
  <style type="text/css">
   <![CDATA[
    .str0 {stroke:#1A1A1A;stroke-width:9.56889}
    .fil0 {fill:none}
    .fil1 {fill:#E6E6E6}
   ]]>
  </style>
 </defs>
 <g id="Слой_x0020_1">
  <metadata id="CorelCorpID_0Corel-Layer"/>
  <g>
   <path class="fil0 str0" d="M43 357c4,0 7,-3 7,-8l0 -318 18 17c3,4 7,4 11,1 3,-4 3,-8 0,-11l-31 -31c-1,-1 -3,-2 -5,-2 -3,0 -5,1 -6,2l-30 29c-3,4 -3,8 0,12 4,3 8,3 11,0l17 -17 0 318c0,5 3,8 8,8z"/>
   <path id="1" class="fil1" d="M43 357c4,0 7,-3 7,-8l0 -318 18 17c3,4 7,4 11,1 3,-4 3,-8 0,-11l-31 -31c-1,-1 -3,-2 -5,-2 -3,0 -5,1 -6,2l-30 29c-3,4 -3,8 0,12 4,3 8,3 11,0l17 -17 0 318c0,5 3,8 8,8z"/>
  </g>
 </g>
</svg>
