<?xml version="1.0" encoding="UTF-8"?>
<!DOCTYPE svg PUBLIC "-//W3C//DTD SVG 1.1//EN" "http://www.w3.org/Graphics/SVG/1.1/DTD/svg11.dtd">
<!-- Creator: CorelDRAW X7 -->
<svg xmlns="http://www.w3.org/2000/svg" xml:space="preserve" width="32.5943mm" height="9.1295mm" version="1.1" style="shape-rendering:geometricPrecision; text-rendering:geometricPrecision; image-rendering:optimizeQuality; fill-rule:evenodd; clip-rule:evenodd"
viewBox="0 0 2517 705"
 xmlns:xlink="http://www.w3.org/1999/xlink">
 <defs>
  <style type="text/css">
   <![CDATA[
    .fil0 {fill:red}
    .fil1 {fill:white}
    .fil2 {fill:white;fill-rule:nonzero}
   ]]>
  </style>
 </defs>
 <g id="Слой_x0020_1">
  <metadata id="CorelCorpID_0Corel-Layer"/>
  <rect class="fil0" width="2517" height="705"/>
  <path class="fil1" d="M595 200c-43,-43 -94,-64 -153,-64 -60,0 -111,21 -153,64 -42,42 -64,93 -64,152 0,60 22,111 64,153 42,43 93,64 153,64 59,0 110,-21 153,-64 42,-42 63,-93 63,-153 0,-59 -21,-110 -63,-152zm-21 285c-36,37 -80,55 -132,55 -52,0 -96,-18 -133,-55 -36,-37 -55,-81 -55,-133 0,-51 19,-95 55,-132 37,-37 81,-55 133,-55 52,0 96,18 132,55 37,37 55,81 55,132 0,52 -18,96 -55,133zm-52 -233l-79 80 -72 -80c-7,-7 -14,-7 -20,0 -7,7 -7,14 0,20l71 80 -80 81c-7,6 -7,13 0,20 6,7 13,7 20,0l79 -80 71 80c7,7 14,7 21,0 7,-7 7,-14 0,-20l-71 -80 80 -81c7,-6 7,-13 0,-20 -7,-7 -13,-7 -20,0z"/>
  <path class="fil2" d="M959 266c8,10 15,22 20,37 4,14 7,31 7,50 0,18 -3,34 -7,49 -5,15 -12,27 -20,37 -9,10 -20,18 -32,23 -13,5 -26,8 -41,8 -15,0 -29,-3 -41,-8 -12,-5 -23,-13 -32,-23 -8,-10 -15,-22 -20,-37 -4,-14 -7,-31 -7,-49 0,-19 3,-36 7,-50 5,-15 12,-27 21,-37 8,-10 19,-18 31,-23 12,-5 26,-8 41,-8 15,0 29,3 42,8 12,6 22,13 31,23zm-4 87c0,-15 -2,-28 -5,-40 -4,-11 -8,-21 -14,-28 -6,-8 -13,-14 -21,-18 -9,-4 -18,-6 -29,-6 -11,0 -20,2 -28,6 -8,4 -16,10 -22,18 -6,7 -10,17 -14,28 -3,12 -4,25 -4,40 0,29 6,52 18,67 13,16 29,24 50,24 21,0 38,-8 50,-24 12,-15 19,-38 19,-67z"/>
  <polygon id="1" class="fil2" points="1071,465 1071,267 996,267 996,240 1177,240 1177,267 1101,267 1101,465 "/>
  <polygon id="2" class="fil2" points="1392,465 1362,465 1362,271 1303,403 1285,403 1227,271 1227,465 1199,465 1199,240 1240,240 1296,365 1350,240 1392,240 "/>
  <polygon id="3" class="fil2" points="1438,465 1438,240 1579,240 1579,267 1468,267 1468,328 1571,328 1571,355 1468,355 1468,438 1579,438 1579,465 "/>
  <polygon id="4" class="fil2" points="1774,465 1744,465 1744,355 1641,355 1641,465 1611,465 1611,240 1641,240 1641,328 1744,328 1744,240 1774,240 "/>
  <polygon id="5" class="fil2" points="1982,465 1952,465 1952,286 1851,465 1820,465 1820,240 1850,240 1850,416 1950,240 1982,240 "/>
  <polygon id="6" class="fil2" points="2080,465 2080,267 2005,267 2005,240 2186,240 2186,267 2110,267 2110,465 "/>
  <path id="7" class="fil2" d="M2360 395c0,11 -2,21 -6,30 -4,9 -10,16 -17,22 -9,6 -18,11 -27,14 -10,3 -23,4 -38,4l-64 0 0 -225 31 0 0 88 34 0c15,0 28,1 37,3 10,2 19,6 28,12 7,6 13,14 17,23 3,8 5,18 5,29zm-31 1c0,-8 -1,-14 -4,-20 -2,-6 -6,-10 -11,-14 -6,-4 -12,-6 -20,-7 -7,0 -17,-1 -30,-1l-25 0 0 85 24 0c13,0 24,-1 31,-2 7,-1 13,-4 19,-7 5,-4 9,-9 12,-14 3,-5 4,-12 4,-20z"/>
 </g>
</svg>
