<?xml version="1.0" encoding="UTF-8"?>
<!DOCTYPE svg PUBLIC "-//W3C//DTD SVG 1.1//EN" "http://www.w3.org/Graphics/SVG/1.1/DTD/svg11.dtd">
<!-- Creator: CorelDRAW X7 -->
<svg xmlns="http://www.w3.org/2000/svg" xml:space="preserve" width="10.232mm" height="143.42mm" version="1.1" style="shape-rendering:geometricPrecision; text-rendering:geometricPrecision; image-rendering:optimizeQuality; fill-rule:evenodd; clip-rule:evenodd"
viewBox="0 0 20449 286628"
 xmlns:xlink="http://www.w3.org/1999/xlink">
 <defs>
  <style type="text/css">
   <![CDATA[
    .str0 {stroke:#999999;stroke-width:1586.22}
    .fil1 {fill:none}
    .fil3 {fill:#666666}
    .fil0 {fill:#B3B3B3}
    .fil2 {fill:#4D4D4D;fill-opacity:0.501961}
   ]]>
  </style>
    <clipPath id="id0">
     <path d="M7958 230393l-5843 6135 0 2496 4584 8461 7051 0 4584 -8461 0 -2496 -5843 -6135 -4533 0z"/>
    </clipPath>
 </defs>
 <g id="Слой_x0020_1">
  <metadata id="CorelCorpID_0Corel-Layer"/>
  <g id="_481152243920">
   <rect class="fil0" x="6548" y="250578" width="7353" height="2115"/>
   <rect class="fil0" x="6548" y="253134" width="7353" height="3878"/>
   <rect class="fil0" x="5761" y="257453" width="8926" height="2468"/>
   <rect class="fil0" x="9928" y="269704" width="2468" height="16923"/>
   <polygon class="fil0" points="14992,262807 15713,264668 16242,268018 16242,273054 12748,273054 12748,267180 12275,266696 11926,265024 12338,264897 13351,263647 "/>
   <polygon class="fil0" points="6629,260361 6629,261772 3582,263887 3582,268999 5168,273054 9575,273054 9575,269704 8694,268999 8694,267236 10986,264945 12131,264592 13124,263367 14864,262477 14864,261595 13806,261066 13548,260361 "/>
   <line class="fil1 str0" x1="17576" y1="237948" x2="17576" y2= "0" />
   <line class="fil1 str0" x1="2903" y1="237948" x2="2903" y2= "0" />
   <path class="fil0" d="M7051 228278l-7051 7404 0 3878 4583 8461 0 2116c3761,0 7522,0 11282,0l0 -2116 4584 -8461 0 -3878 -7052 -7404 -6346 0z"/>
   <polygon class="fil0" points="7958,230393 2115,236528 2115,239024 6699,247485 13750,247485 18334,239024 18334,236528 12491,230393 "/>
   <g style="clip-path:url(#id0)">
    <g>
     <path id="1" class="fil2" d="M34936 226385l1091 1041 -21734 22836 -1091 -1042 21734 -22835zm-4634 0l1091 1041 -21734 22836 -1091 -1042 21734 -22835zm-4634 0l1091 1041 -21734 22836 -1091 -1042 21734 -22835zm-4634 0l1091 1041 -21733 22836 -1091 -1042 21733 -22835zm-4634 0l1091 1041 -21733 22836 -1091 -1042 21733 -22835zm-4634 0l1091 1041 -21733 22836 -1091 -1042 21733 -22835zm-4634 0l1091 1041 -21733 22836 -1091 -1042 21733 -22835zm32437 0l1091 1041 -21733 22836 -1091 -1042 21733 -22835zm-37071 0l1091 1041 -21733 22836 -1091 -1042 21733 -22835z"/>
    </g>
   </g>
   <polygon class="fil1" points="7958,230393 2115,236528 2115,239024 6699,247485 13750,247485 18334,239024 18334,236528 12491,230393 "/>
   <circle class="fil3" cx="10224" cy="238234" r="2020"/>
   <path class="fil0" d="M10224 235861c654,0 1247,266 1677,695l0 1 1 1c430,430 695,1023 695,1676 0,653 -265,1246 -695,1676l-1 1 0 1c-430,429 -1023,695 -1677,695 -653,0 -1246,-266 -1676,-695l-1 -1 0 -1c-430,-430 -695,-1023 -695,-1676 0,-653 265,-1246 695,-1676l0 -1 1 -1c430,-429 1023,-695 1676,-695zm1180 1193c-301,-301 -718,-488 -1180,-488 -461,0 -878,187 -1179,488l-1 1c-301,300 -487,718 -487,1179 0,462 186,879 487,1179l1 2c301,301 718,487 1179,487 462,0 879,-186 1180,-487l1 -2c301,-300 487,-717 487,-1179 0,-461 -186,-879 -487,-1179l-1 -1z"/>
  </g>
 </g>
</svg>
