<?xml version="1.0" encoding="UTF-8"?>
<!DOCTYPE svg PUBLIC "-//W3C//DTD SVG 1.1//EN" "http://www.w3.org/Graphics/SVG/1.1/DTD/svg11.dtd">
<!-- Creator: CorelDRAW X7 -->
<svg xmlns="http://www.w3.org/2000/svg" xml:space="preserve" width="83.8736mm" height="116.4mm" version="1.1" style="shape-rendering:geometricPrecision; text-rendering:geometricPrecision; image-rendering:optimizeQuality; fill-rule:evenodd; clip-rule:evenodd"
viewBox="0 0 225191 312520"
 xmlns:xlink="http://www.w3.org/1999/xlink">
 <defs>
  <style type="text/css">
   <![CDATA[
    .fil0 {fill:#336699}
   ]]>
  </style>
 </defs>
 <g id="Слой_x0020_1">
  <metadata id="CorelCorpID_0Corel-Layer"/>
  <path class="fil0" d="M4608 120835c-1,-30 -4,-60 -4,-90l0 -31 -5 -82709 -4591 0 -8 0c2,41 8,81 8,120l0 82540 0 170 4600 0z"/>
  <path class="fil0" d="M206950 281518l0 -4583 -76088 0c-12113,0 -19519,-8766 -19532,-20890l-72 -65984 -22609 -174316c-576,-4427 -3048,-8158 -6469,-10876 -3620,-2875 -8343,-4625 -12977,-4839 -5450,-253 -10971,1123 -15276,3977 -4029,2673 -7008,6624 -7940,11744l-18811 103374c-3245,17831 -22246,11614 -22568,1710l-4600 0c357,15478 27443,22450 31691,-899l18812 -103374c685,-3766 2922,-6703 5957,-8716 3493,-2316 8026,-3430 12536,-3221 3679,170 7431,1562 10310,3848 2540,2018 4367,4724 4775,7866l22588 174195 189 66880c39,13978 9201,24104 23191,24104l76893 0z"/>
  <path class="fil0" d="M206950 276918c4564,0 9068,2315 12435,5683 3459,3459 5777,8096 5777,12529 0,712 5,9924 16,13263 4,1140 8,3585 13,4127l-4600 0c-5,-575 -9,-3031 -12,-4127 -24,-7254 -34,-13025 -34,-13263 0,-3178 -1775,-6616 -4424,-9265 -2566,-2566 -5899,-4330 -9171,-4330l0 -4617z"/>
 </g>
</svg>
