<?xml version="1.0" encoding="UTF-8"?>
<!DOCTYPE svg PUBLIC "-//W3C//DTD SVG 1.1//EN" "http://www.w3.org/Graphics/SVG/1.1/DTD/svg11.dtd">
<!-- Creator: CorelDRAW X7 -->
<svg xmlns="http://www.w3.org/2000/svg" xml:space="preserve" width="92.041mm" height="104.853mm" version="1.1" style="shape-rendering:geometricPrecision; text-rendering:geometricPrecision; image-rendering:optimizeQuality; fill-rule:evenodd; clip-rule:evenodd"
viewBox="0 0 6433434 7328960"
 xmlns:xlink="http://www.w3.org/1999/xlink">
 <defs>
  <style type="text/css">
   <![CDATA[
    .fil0 {fill:#336699}
    .fil1 {fill:#B3B3B3}
   ]]>
  </style>
 </defs>
 <g id="Слой_x0020_1">
  <metadata id="CorelCorpID_0Corel-Layer"/>
  <path class="fil0" d="M1165715 3145785c-28,-790 -105,-1559 -119,-2349l0 -810 -111 -2153206 -119525 0 -210 0c49,1048 210,2090 210,3117l0 2148816 0 4432 119755 0z"/>
  <path class="fil0" d="M6433434 7328960l0 -119308 -1980867 0c-315335,0 -508140,-228222 -508476,-543858l-1880 -1717807 -588586 -4538094c-15000,-115240 -79361,-212377 -168432,-283127 -94243,-74853 -217192,-120405 -337842,-125997 -141864,-6577 -285601,29245 -397675,103560 -104895,69569 -182446,172430 -206701,305732l-489744 2691213c-84471,464189 -579128,302335 -587516,44511l-119755 0c9296,402952 714436,584455 825028,-23409l489750 -2691206c17845,-98053 76070,-174499 155096,-226909 90937,-60300 208937,-89301 326358,-83863 95767,4432 193456,40660 268400,100198 66116,52521 113681,122964 124319,204772l588034 4534949 4914 1741118c1027,363900 239559,627525 603753,627525l2001822 0z"/>
  <g id="_970501137376">
   <path class="fil0" d="M1165485 989420l-42 -3160c-1699,-214256 -175883,-387427 -390546,-387427 -215717,0 -390587,174869 -390587,390587l0 454 119637 -454 -112 0c0,-149707 121356,-271063 271062,-271063 148225,0 268637,118973 271007,266631l56 4432 119525 0z"/>
   <g>
    <rect class="fil1" x="166510" y="908852" width="199309" height="80568"/>
    <polygon class="fil1" points="0,1004308 532318,1004308 532318,1180282 378355,1343052 153977,1343052 0,1180282 "/>
    <rect class="fil1" x="153978" y="1357945" width="224375" height="133071"/>
    <rect class="fil1" x="127600" y="1505906" width="277130" height="87991"/>
    <rect class="fil1" x="153978" y="1608788" width="224375" height="167170"/>
    <rect class="fil1" x="74825" y="1790849" width="382679" height="171567" rx="101879" ry="50583"/>
   </g>
  </g>
 </g>
</svg>
