<?xml version="1.0" encoding="UTF-8"?>
<!DOCTYPE svg PUBLIC "-//W3C//DTD SVG 1.1//EN" "http://www.w3.org/Graphics/SVG/1.1/DTD/svg11.dtd">
<!-- Creator: CorelDRAW X7 -->
<svg xmlns="http://www.w3.org/2000/svg" xml:space="preserve" width="77.0768mm" height="104.853mm" version="1.1" style="shape-rendering:geometricPrecision; text-rendering:geometricPrecision; image-rendering:optimizeQuality; fill-rule:evenodd; clip-rule:evenodd"
viewBox="0 0 190136 258655"
 xmlns:xlink="http://www.w3.org/1999/xlink">
 <defs>
  <style type="text/css">
   <![CDATA[
    .fil0 {fill:#336699}
   ]]>
  </style>
 </defs>
 <g id="Слой_x0020_1">
  <metadata id="CorelCorpID_0Corel-Layer"/>
  <path class="fil0" d="M190136 258655l0 -4210 -69909 0c-11129,0 -17934,-8055 -17946,-19194l-66 -60626 -20772 -160159c-530,-4067 -2801,-7495 -5945,-9992 -3326,-2642 -7665,-4250 -11923,-4447 -5007,-232 -10079,1032 -14035,3655 -3702,2455 -6439,6085 -7295,10790l-17284 94979c-2981,16382 -20439,10670 -20735,1571l-4226 0c328,14221 25214,20626 29117,-826l17284 -94979c630,-3461 2685,-6159 5474,-8008 3209,-2128 7374,-3152 11518,-2960 3380,157 6827,1435 9472,3536 2334,1854 4012,4340 4388,7227l20753 160049 173 61447c37,12843 8455,22147 21308,22147l70649 0z"/>
 </g>
</svg>
