<?xml version="1.0" encoding="UTF-8"?>
<!DOCTYPE svg PUBLIC "-//W3C//DTD SVG 1.1//EN" "http://www.w3.org/Graphics/SVG/1.1/DTD/svg11.dtd">
<!-- Creator: CorelDRAW X7 -->
<svg xmlns="http://www.w3.org/2000/svg" xml:space="preserve" width="82.9188mm" height="24.8512mm" version="1.1" style="shape-rendering:geometricPrecision; text-rendering:geometricPrecision; image-rendering:optimizeQuality; fill-rule:evenodd; clip-rule:evenodd"
viewBox="0 0 22975 6886"
 xmlns:xlink="http://www.w3.org/1999/xlink">
 <defs>
  <style type="text/css">
   <![CDATA[
    .fil0 {fill:white;fill-rule:nonzero}
   ]]>
  </style>
 </defs>
 <g id="Слой_x0020_1">
  <metadata id="CorelCorpID_0Corel-Layer"/>
  <g id="_888350447328">
   <polygon class="fil0" points="7953,490 11383,490 11383,0 7953,0 "/>
   <polygon class="fil0" points="14813,490 18243,490 18243,0 14813,0 "/>
   <polygon class="fil0" points="7953,1960 11383,1960 11383,1470 7953,1470 "/>
   <polygon class="fil0" points="6483,0 5993,0 5993,3430 6483,3430 "/>
   <polygon class="fil0" points="13343,0 12853,0 12853,3430 13343,3430 "/>
   <polygon class="fil0" points="16773,0 16282,0 16282,3430 16773,3430 "/>
   <polygon class="fil0" points="7953,3430 11383,3430 11383,2939 7953,2939 "/>
   <path class="fil0" d="M0 6865l196 0 0 -984 -196 0 0 984zm1205 -3l117 0 0 -981 -195 0 0 608 -538 -608 -119 0 0 981 195 0 0 -609 540 609zm583 -795l595 0 0 -186 -789 0 0 981 194 0 0 -428 359 0 0 -187 -359 0 0 -180zm1128 -18c178,0 309,133 309,324 0,191 -131,324 -309,324 -174,0 -308,-132 -308,-324 0,-191 134,-324 308,-324zm0 837c290,0 509,-217 509,-513 0,-296 -219,-513 -509,-513 -291,0 -507,217 -507,513 0,296 216,513 507,513zm890 -596l0 -223 341 0c37,0 76,-1 103,19 21,13 41,41 41,87 0,31 -9,65 -31,87 -28,28 -63,30 -98,30l-356 0zm507 572l219 0 -233 -400c57,-21 103,-54 137,-96 46,-60 55,-123 55,-180 0,-67 -13,-156 -79,-222 -75,-74 -172,-83 -237,-83l-563 0 0 981 194 0 0 -383 282 0 225 383zm1189 0l194 0 0 -981 -150 0 -359 501 -357 -501 -150 0 0 981 193 0 0 -608 314 454 315 -454 0 608zm837 -693l131 263 -261 0 130 -263zm344 693l215 0 -485 -981 -146 0 -482 981 215 0 117 -243 446 0 120 243zm607 -795l378 0 0 -186 -950 0 0 186 378 0 0 795 194 0 0 -795zm471 798l196 0 0 -984 -196 0 0 984zm898 -816c177,0 309,133 309,324 0,191 -132,324 -309,324 -175,0 -308,-132 -308,-324 0,-191 133,-324 308,-324zm0 837c290,0 509,-217 509,-513 0,-296 -219,-513 -509,-513 -291,0 -508,217 -508,513 0,296 217,513 508,513zm1436 -24l117 0 0 -981 -195 0 0 608 -538 -608 -119 0 0 981 195 0 0 -609 540 609zm1375 -795l378 0 0 -186 -950 0 0 186 378 0 0 795 194 0 0 -795zm432 795l826 0 0 -187 -632 0 0 -241 361 0 0 -187 -361 0 0 -180 595 0 0 -186 -789 0 0 981zm1709 -365c-28,65 -71,109 -113,141 -54,39 -111,59 -185,59 -95,0 -163,-30 -213,-80 -54,-53 -95,-137 -95,-240 0,-119 47,-197 93,-243 59,-59 128,-85 222,-85 69,0 122,17 161,39 45,28 83,72 111,116l165 -116c-46,-69 -109,-126 -170,-161 -69,-43 -160,-67 -265,-67 -193,0 -307,78 -372,143 -96,98 -143,240 -143,376 0,157 61,285 141,364 106,109 237,143 372,143 106,0 189,-21 270,-74 67,-45 132,-111 176,-198l-155 -117zm981 365l196 0 0 -981 -196 0 0 355 -446 0 0 -355 -196 0 0 981 196 0 0 -441 446 0 0 441zm1207 0l117 0 0 -981 -195 0 0 608 -539 -608 -118 0 0 981 194 0 0 -609 541 609zm816 -813c178,0 310,133 310,324 0,191 -132,324 -310,324 -174,0 -307,-132 -307,-324 0,-191 133,-324 307,-324zm0 837c291,0 510,-217 510,-513 0,-296 -219,-513 -510,-513 -290,0 -507,217 -507,513 0,296 217,513 507,513zm702 -24l783 0 0 -187 -587 0 0 -794 -196 0 0 981zm1335 -813c178,0 309,133 309,324 0,191 -131,324 -309,324 -174,0 -308,-132 -308,-324 0,-191 134,-324 308,-324zm0 837c290,0 509,-217 509,-513 0,-296 -219,-513 -509,-513 -291,0 -507,217 -507,513 0,296 216,513 507,513zm1575 -561l-422 0 0 170 228 0 0 76c-59,87 -146,126 -243,126 -79,0 -172,-26 -231,-85 -50,-50 -87,-137 -87,-243 0,-103 37,-179 94,-237 65,-65 135,-83 223,-83 44,0 100,7 157,39 37,22 76,57 104,104l164 -117c-42,-58 -98,-111 -162,-146 -38,-21 -132,-69 -276,-69 -169,0 -280,63 -360,143 -87,87 -142,214 -142,368 0,128 46,270 142,372 113,119 256,143 374,143 112,0 191,-22 272,-80 62,-42 123,-107 165,-174l0 -307zm230 540l196 0 0 -984 -196 0 0 984zm470 -3l826 0 0 -187 -631 0 0 -241 361 0 0 -187 -361 0 0 -180 594 0 0 -186 -789 0 0 981zm1864 -854c-64,-50 -124,-78 -196,-102 -94,-35 -180,-46 -270,-46 -156,0 -248,43 -302,87 -50,43 -104,109 -104,220 0,73 24,119 60,154 57,59 155,91 283,100l144 11c45,6 93,6 143,26 29,13 78,37 78,98 0,32 -13,76 -71,108 -46,27 -107,35 -166,35 -84,0 -150,-11 -219,-39 -66,-28 -129,-67 -181,-109l-119 164c65,58 135,95 217,124 91,32 189,47 290,47 89,0 226,-9 334,-96 96,-80 116,-176 116,-243 0,-104 -51,-167 -94,-202 -65,-57 -165,-85 -268,-94l-132 -11c-102,-10 -137,-17 -159,-24 -15,-6 -56,-23 -56,-65 0,-28 15,-58 60,-78 24,-13 62,-24 135,-24 66,0 142,13 202,33 57,21 118,52 172,87l103 -161z"/>
   <path class="fil0" d="M6 5394l197 0 0 -985 -197 0 0 985zm1206 -4l116 0 0 -981 -194 0 0 609 -539 -609 -118 0 0 981 194 0 0 -609 541 609zm1198 -853c-65,-50 -125,-78 -197,-102 -94,-35 -179,-46 -270,-46 -156,0 -248,42 -302,87 -50,42 -104,109 -104,220 0,72 25,119 60,154 57,59 155,91 283,100l144 11c45,5 93,5 143,26 30,13 78,37 78,98 0,31 -13,76 -71,107 -46,28 -107,35 -166,35 -83,0 -150,-11 -219,-39 -66,-27 -129,-66 -181,-109l-119 165c65,57 136,94 217,124 91,32 189,46 291,46 88,0 226,-9 333,-96 96,-80 117,-176 117,-242 0,-104 -52,-167 -95,-202 -65,-58 -165,-85 -268,-95l-132 -11c-102,-9 -137,-16 -159,-24 -15,-5 -56,-22 -56,-65 0,-27 15,-57 60,-77 24,-13 63,-24 135,-24 66,0 142,12 202,33 57,20 118,52 172,87l104 -161zm640 59l378 0 0 -187 -950 0 0 187 378 0 0 794 194 0 0 -794zm470 798l196 0 0 -985 -196 0 0 985zm850 -798l378 0 0 -187 -950 0 0 187 378 0 0 794 194 0 0 -794zm1283 -187l-194 0 0 615c0,50 -2,118 -56,163 -43,31 -106,39 -180,39 -59,0 -122,-2 -164,-38 -50,-38 -50,-94 -50,-146l0 -633 -197 0 0 654c0,81 13,179 86,253 88,89 225,98 329,98 113,0 245,-14 328,-87 87,-74 98,-168 98,-264l0 -654zm629 187l378 0 0 -187 -950 0 0 187 378 0 0 794 194 0 0 -794zm432 794l825 0 0 -187 -631 0 0 -240 361 0 0 -187 -361 0 0 -180 594 0 0 -187 -788 0 0 981zm1973 -812c178,0 309,133 309,324 0,190 -131,324 -309,324 -174,0 -307,-132 -307,-324 0,-191 133,-324 307,-324zm0 836c291,0 509,-216 509,-512 0,-297 -218,-513 -509,-513 -290,0 -507,216 -507,513 0,296 217,512 507,512zm859 -818l595 0 0 -187 -789 0 0 981 194 0 0 -427 359 0 0 -187 -359 0 0 -180zm1261 794l826 0 0 -187 -632 0 0 -240 361 0 0 -187 -361 0 0 -180 595 0 0 -187 -789 0 0 981zm1720 0l116 0 0 -981 -194 0 0 609 -539 -609 -118 0 0 981 194 0 0 -609 541 609zm1262 -537l-422 0 0 171 228 0 0 76c-59,87 -146,126 -243,126 -79,0 -172,-26 -231,-86 -50,-50 -87,-137 -87,-242 0,-104 37,-180 94,-237 65,-65 136,-83 223,-83 44,0 100,7 157,38 37,23 76,58 104,104l164 -117c-42,-57 -98,-111 -163,-146 -37,-20 -131,-68 -275,-68 -169,0 -280,63 -360,142 -86,87 -142,215 -142,369 0,128 46,270 142,372 113,118 256,142 374,142 112,0 191,-22 273,-79 61,-43 122,-108 164,-174l0 -308zm230 541l196 0 0 -985 -196 0 0 985zm1205 -4l117 0 0 -981 -195 0 0 609 -538 -609 -119 0 0 981 194 0 0 -609 541 609zm389 0l826 0 0 -187 -632 0 0 -240 361 0 0 -187 -361 0 0 -180 595 0 0 -187 -789 0 0 981zm985 0l826 0 0 -187 -632 0 0 -240 361 0 0 -187 -361 0 0 -180 595 0 0 -187 -789 0 0 981zm1174 -572l0 -222 340 0c37,0 76,-2 104,19 20,13 41,40 41,87 0,31 -10,64 -32,87 -28,27 -63,29 -98,29l-355 0zm507 572l218 0 -233 -400c57,-20 104,-53 137,-96 46,-59 56,-122 56,-179 0,-67 -13,-156 -80,-223 -74,-74 -172,-83 -237,-83l-563 0 0 981 195 0 0 -383 281 0 226 383zm374 4l196 0 0 -985 -196 0 0 985zm1205 -4l117 0 0 -981 -195 0 0 609 -539 -609 -118 0 0 981 194 0 0 -609 541 609zm1263 -537l-422 0 0 171 227 0 0 76c-59,87 -146,126 -242,126 -80,0 -173,-26 -232,-86 -50,-50 -87,-137 -87,-242 0,-104 37,-180 95,-237 64,-65 135,-83 222,-83 44,0 100,7 157,38 37,23 76,58 104,104l165 -117c-43,-57 -99,-111 -163,-146 -37,-20 -132,-68 -276,-68 -169,0 -280,63 -359,142 -87,87 -143,215 -143,369 0,128 46,270 143,372 113,118 255,142 374,142 111,0 190,-22 272,-79 61,-43 122,-108 165,-174l0 -308zm1395 289c-59,46 -140,85 -220,85 -50,0 -104,-18 -133,-46 -24,-22 -45,-59 -45,-104 0,-35 11,-81 58,-131 42,-44 94,-67 111,-72l229 268zm208 241l251 0 -194 -222c35,-37 67,-73 95,-108l-123 -157c-31,43 -63,79 -96,111l-355 -417 407 0 -115 -181 -702 0 284 330c-76,27 -135,72 -178,122 -54,65 -82,137 -82,218 0,135 67,209 99,241 83,80 190,96 277,96 98,0 226,-22 345,-131l87 98z"/>
  </g>
 </g>
</svg>
