<?xml version="1.0" encoding="UTF-8"?>
<!DOCTYPE svg PUBLIC "-//W3C//DTD SVG 1.1//EN" "http://www.w3.org/Graphics/SVG/1.1/DTD/svg11.dtd">
<!-- Creator: CorelDRAW X7 -->
<svg xmlns="http://www.w3.org/2000/svg" xml:space="preserve" width="54.0566mm" height="49.7405mm" version="1.1" style="shape-rendering:geometricPrecision; text-rendering:geometricPrecision; image-rendering:optimizeQuality; fill-rule:evenodd; clip-rule:evenodd"
viewBox="0 0 54057 49741"
 xmlns:xlink="http://www.w3.org/1999/xlink">
 <defs>
  <style type="text/css">
   <![CDATA[
    .str0 {stroke:#666666;stroke-width:2645.61}
    .str2 {stroke:#E6E6E6;stroke-width:529.102}
    .str1 {stroke:#4D4D4D;stroke-width:529.102;stroke-linecap:round}
    .fil1 {fill:none}
    .fil0 {fill:#1A1A1A}
    .fil2 {fill:gray;fill-rule:nonzero}
   ]]>
  </style>
 </defs>
 <g id="Слой_x0020_1">
  <metadata id="CorelCorpID_0Corel-Layer"/>
  <path class="fil0" d="M27032 0c-14930,0 -27032,12102 -27032,27032 0,7837 3336,14897 8665,19829 388,363 785,710 1199,1047 1452,1200 3065,1791 4932,1833l0 -9847c0,-1115 912,-2027 2027,-2027l20420 0c1114,0 2026,912 2026,2027l0 9847c1867,-42 3480,-633 4932,-1833 608,-498 1191,-1030 1748,-1579 5008,-4906 8108,-11738 8108,-19297 0,-14930 -12102,-27032 -27024,-27032l-1 0 0 0z"/>
  <path class="fil1 str0" d="M46701 38383c1993,-3454 3040,-7364 3040,-11351 0,-12540 -10168,-22708 -22709,-22708 -12540,0 -22708,10168 -22708,22708 0,3986 1047,7897 3040,11351"/>
  <path class="fil1 str1" d="M44683 37217c1790,-3091 2727,-6612 2727,-10185 0,-11257 -9120,-20386 -20378,-20386 -11257,0 -20386,9129 -20386,20386 0,3573 946,7094 2736,10185"/>
  <line class="fil1 str2" x1="27218" y1="6486" x2="27218" y2= "3023" />
  <line class="fil1 str2" x1="44826" y1="37302" x2="47630" y2= "38923" />
  <line class="fil1 str2" x1="9239" y1="37302" x2="6368" y2= "38965" />
  <line class="fil1 str2" x1="9138" y1="17034" x2="6258" y2= "15454" />
  <g id="_47248783008">
   <path class="fil2" d="M27122 10421c0,158 -25,304 -75,438 -50,135 -121,251 -212,348 -92,100 -206,179 -343,235 -137,57 -289,86 -459,86 -157,0 -310,-17 -461,-52 -152,-34 -283,-79 -394,-135l0 -464 31 0c33,25 81,54 144,86 63,31 132,61 209,90 86,31 164,55 236,72 72,17 152,26 241,26 89,0 174,-16 257,-48 84,-31 155,-82 215,-152 55,-65 96,-139 124,-226 29,-86 43,-188 43,-305 0,-116 -16,-211 -47,-285 -32,-75 -77,-136 -137,-185 -63,-55 -140,-94 -232,-117 -91,-23 -193,-34 -305,-34 -118,0 -237,9 -357,28 -120,18 -216,36 -287,53l0 -1684 1791 0 0 381 -1369 0 0 871c52,-5 105,-10 155,-13 51,-3 98,-4 140,-4 167,0 308,14 424,42 115,27 226,81 333,161 108,83 191,184 249,307 57,123 86,283 86,480z"/>
   <path id="1" class="fil2" d="M29628 9826c0,586 -86,1016 -256,1291 -170,274 -433,411 -789,411 -360,0 -623,-140 -791,-419 -169,-279 -253,-705 -253,-1279 0,-589 86,-1020 256,-1292 170,-273 433,-410 788,-410 360,0 624,142 792,424 169,282 253,707 253,1274zm-562 995c43,-109 73,-245 91,-411 17,-164 26,-359 26,-584 0,-223 -9,-418 -26,-582 -18,-166 -49,-303 -92,-412 -44,-112 -105,-195 -181,-253 -78,-58 -178,-87 -301,-87 -121,0 -221,29 -299,87 -79,58 -141,143 -186,257 -44,111 -74,251 -90,420 -16,170 -24,361 -24,574 0,228 7,419 21,572 13,153 44,291 91,412 42,112 103,199 181,260 78,60 181,90 306,90 122,0 222,-29 301,-87 77,-57 139,-143 182,-256z"/>
  </g>
  <g id="_47248781760">
   <path class="fil2" d="M38570 36271l-1594 0 0 -332 593 0 0 -2191 -593 0 0 -297c224,0 389,-32 495,-96 106,-63 166,-184 179,-362l341 0 0 2946 579 0 0 332z"/>
   <path id="1" class="fil2" d="M41205 34637c0,586 -85,1016 -255,1291 -171,274 -433,411 -789,411 -360,0 -623,-140 -792,-419 -168,-279 -252,-705 -252,-1279 0,-589 85,-1020 255,-1292 171,-273 434,-410 789,-410 360,0 624,142 792,424 169,282 252,707 252,1274zm-561 995c43,-109 73,-245 91,-411 17,-164 26,-359 26,-584 0,-223 -9,-418 -26,-582 -18,-166 -49,-303 -92,-412 -45,-112 -105,-195 -182,-253 -77,-58 -177,-87 -300,-87 -121,0 -221,29 -299,87 -79,58 -141,143 -186,257 -44,111 -74,251 -90,420 -16,170 -24,361 -24,574 0,228 6,419 21,572 13,153 44,291 91,412 42,112 103,199 181,260 78,60 181,90 306,90 122,0 222,-29 300,-87 78,-57 140,-143 183,-256z"/>
   <path id="2" class="fil2" d="M43657 34637c0,586 -86,1016 -256,1291 -170,274 -433,411 -789,411 -360,0 -623,-140 -791,-419 -169,-279 -253,-705 -253,-1279 0,-589 86,-1020 256,-1292 170,-273 433,-410 788,-410 360,0 624,142 792,424 169,282 253,707 253,1274zm-562 995c43,-109 73,-245 91,-411 17,-164 26,-359 26,-584 0,-223 -9,-418 -26,-582 -18,-166 -49,-303 -92,-412 -44,-112 -105,-195 -181,-253 -78,-58 -178,-87 -301,-87 -121,0 -221,29 -299,87 -79,58 -141,143 -186,257 -44,111 -74,251 -90,420 -16,170 -24,361 -24,574 0,228 7,419 21,572 13,153 44,291 91,412 42,112 103,199 181,260 78,60 181,90 306,90 122,0 222,-29 301,-87 77,-57 139,-143 182,-256z"/>
  </g>
  <g id="_47248781952">
   <path class="fil2" d="M12595 20758l-2012 0 0 -460c144,-138 281,-269 410,-394 129,-126 255,-257 377,-393 249,-274 419,-492 509,-657 91,-164 136,-334 136,-510 0,-90 -14,-169 -42,-238 -29,-69 -68,-126 -118,-171 -51,-44 -110,-77 -178,-99 -67,-21 -141,-33 -221,-33 -77,0 -156,10 -236,30 -80,20 -157,44 -229,74 -62,24 -121,54 -178,89 -57,36 -104,66 -139,90l-24 0 0 -463c91,-46 217,-89 378,-132 162,-43 315,-65 459,-65 304,0 542,81 715,242 172,162 258,380 258,656 0,128 -15,245 -45,353 -30,108 -71,208 -123,300 -54,95 -119,189 -196,283 -75,93 -155,185 -240,275 -138,149 -290,304 -459,465 -169,160 -304,287 -404,381l1602 0 0 377z"/>
   <path id="1" class="fil2" d="M15015 19719c0,158 -26,304 -76,438 -50,135 -121,251 -212,348 -92,100 -206,178 -343,235 -137,57 -289,86 -459,86 -157,0 -310,-18 -461,-52 -151,-34 -283,-79 -394,-136l0 -464 31 0c33,26 81,54 144,87 63,31 133,61 209,89 86,32 165,56 237,73 71,17 151,25 241,25 88,0 173,-15 256,-47 84,-31 155,-82 215,-152 55,-65 96,-140 124,-226 29,-87 43,-188 43,-305 0,-116 -16,-211 -47,-285 -32,-75 -77,-136 -137,-185 -63,-56 -140,-94 -231,-118 -92,-22 -194,-33 -306,-33 -118,0 -237,9 -357,27 -120,19 -215,37 -287,54l0 -1684 1792 0 0 381 -1370 0 0 871c52,-6 105,-10 156,-13 51,-3 98,-5 140,-5 166,0 307,15 423,42 115,28 226,82 333,162 108,82 191,184 249,307 57,123 87,283 87,480z"/>
  </g>
  <g id="_47248783200">
   <path class="fil2" d="M12938 34637c0,586 -85,1016 -255,1291 -171,274 -433,411 -789,411 -360,0 -623,-140 -792,-419 -168,-279 -252,-705 -252,-1279 0,-589 85,-1020 255,-1292 171,-273 434,-410 789,-410 360,0 624,142 792,424 168,282 252,707 252,1274zm-561 995c42,-109 72,-245 90,-411 18,-164 27,-359 27,-584 0,-223 -9,-418 -27,-582 -18,-166 -48,-303 -92,-412 -44,-112 -104,-195 -181,-253 -77,-58 -177,-87 -300,-87 -121,0 -221,29 -299,87 -79,58 -141,143 -186,257 -44,111 -74,251 -91,420 -15,170 -23,361 -23,574 0,228 6,419 21,572 13,153 44,291 91,412 42,112 102,199 181,260 78,60 180,90 306,90 121,0 222,-29 300,-87 78,-57 139,-143 183,-256z"/>
  </g>
  <g id="_47248786784">
   <path class="fil2" d="M26728 33868c0,337 -68,585 -203,747 -135,162 -330,243 -585,243 -259,0 -456,-82 -590,-246 -133,-164 -200,-411 -200,-741 0,-334 68,-583 203,-745 136,-163 332,-244 587,-244 260,0 456,82 588,246 133,164 200,411 200,740zm1490 -922l-1745 3334 -369 0 1745 -3334 369 0zm949 2413c0,336 -67,585 -202,747 -135,162 -330,243 -585,243 -260,0 -456,-82 -590,-246 -134,-165 -200,-412 -200,-742 0,-334 68,-582 203,-745 136,-163 332,-244 587,-244 259,0 456,82 588,246 133,165 199,411 199,741zm-2838 -1491c0,-224 -27,-395 -80,-510 -53,-115 -156,-174 -309,-174 -153,0 -257,59 -311,176 -53,117 -80,288 -80,511 0,222 25,392 76,509 51,117 156,176 315,176 153,0 256,-59 309,-176 53,-117 80,-288 80,-512zm2439 1491c0,-225 -26,-395 -79,-511 -53,-115 -156,-173 -309,-173 -153,0 -257,59 -311,176 -53,117 -80,287 -80,510 0,223 25,392 76,509 51,117 155,176 315,176 153,0 256,-59 309,-176 53,-117 79,-287 79,-511z"/>
  </g>
  <g id="_47248794944">
   <polygon class="fil2" points="40676,17829 39266,20606 38799,20606 40288,17723 38606,17723 38606,17342 40676,17342 "/>
   <path id="1" class="fil2" d="M43060 19567c0,158 -25,304 -76,438 -50,135 -121,251 -211,348 -93,100 -206,178 -343,235 -137,57 -290,86 -460,86 -156,0 -310,-18 -461,-52 -151,-34 -283,-79 -394,-136l0 -464 31 0c34,26 82,54 145,87 62,31 132,61 208,89 87,32 165,56 237,73 72,17 152,25 241,25 88,0 174,-15 257,-47 83,-31 155,-82 214,-152 55,-65 96,-140 125,-226 28,-87 42,-188 42,-305 0,-116 -15,-211 -47,-285 -31,-75 -77,-136 -137,-185 -63,-56 -140,-94 -231,-118 -91,-22 -193,-33 -305,-33 -119,0 -238,9 -357,27 -121,19 -216,37 -288,54l0 -1684 1792 0 0 381 -1370 0 0 871c53,-6 105,-10 156,-13 51,-3 98,-5 140,-5 167,0 308,15 424,42 115,28 226,82 333,162 107,82 191,184 248,307 58,123 87,283 87,480z"/>
  </g>
  <line class="fil1 str2" x1="45088" y1="17219" x2="47942" y2= "15623" />
 </g>
</svg>
