<?xml version="1.0" encoding="UTF-8"?>
<!DOCTYPE svg PUBLIC "-//W3C//DTD SVG 1.1//EN" "http://www.w3.org/Graphics/SVG/1.1/DTD/svg11.dtd">
<!-- Creator: CorelDRAW X7 -->
<svg xmlns="http://www.w3.org/2000/svg" xml:space="preserve" width="81.4932mm" height="72.8389mm" version="1.1" style="shape-rendering:geometricPrecision; text-rendering:geometricPrecision; image-rendering:optimizeQuality; fill-rule:evenodd; clip-rule:evenodd"
viewBox="0 0 1325 1185"
 xmlns:xlink="http://www.w3.org/1999/xlink">
 <defs>
  <style type="text/css">
   <![CDATA[
    .str0 {stroke:#4D4D4D;stroke-width:8.60427}
    .fil0 {fill:none}
   ]]>
  </style>
 </defs>
 <g id="Layer-60">
  <metadata id="CorelCorpID_0Corel-Layer"/>
  <path class="fil0 str0" d="M1161 1180l-1118 0c-21,0 -39,-17 -39,-39l0 -675c0,-22 18,-39 39,-39l45 0c39,0 71,-17 99,-44l346 -346c20,-21 44,-33 74,-33l554 0c27,0 51,10 70,29l61 61c19,20 29,43 29,70l0 856c0,28 -10,51 -29,70l-61 61c-19,20 -43,29 -70,29z"/>
 </g>
</svg>
