<?xml version="1.0" encoding="UTF-8"?>
<!DOCTYPE svg PUBLIC "-//W3C//DTD SVG 1.1//EN" "http://www.w3.org/Graphics/SVG/1.1/DTD/svg11.dtd">
<!-- Creator: CorelDRAW X7 -->
<svg xmlns="http://www.w3.org/2000/svg" xml:space="preserve" width="16.4042mm" height="17.0095mm" version="1.1" style="shape-rendering:geometricPrecision; text-rendering:geometricPrecision; image-rendering:optimizeQuality; fill-rule:evenodd; clip-rule:evenodd"
viewBox="0 0 414 429"
 xmlns:xlink="http://www.w3.org/1999/xlink">
 <defs>
  <style type="text/css">
   <![CDATA[
    .fil0 {fill:#B3B3B3}
   ]]>
  </style>
 </defs>
 <g id="Layer-321">
  <metadata id="CorelCorpID_0Corel-Layer"/>
  <g id="_683671594832">
   <polygon class="fil0" points="332,133 378,133 378,156 332,156 "/>
   <polygon class="fil0" points="332,42 378,42 378,65 332,65 "/>
   <polygon class="fil0" points="36,133 82,133 82,156 36,156 "/>
   <polygon class="fil0" points="36,42 82,42 82,65 36,65 "/>
   <path class="fil0" d="M98 6l74 0 0 -6 70 0 0 6 73 0c0,19 0,62 0,82l-73 0 0 30 36 0 0 7 16 0 0 39 -16 0 0 7 -36 0 0 28 36 0 0 8 16 0 0 39 -16 0 0 7 -36 0 0 47 54 0 0 -16 118 0 0 50 -118 0 0 -16 -54 0 0 47 36 0 0 7 16 0 0 39 -16 0 0 7 -36 0 0 11 -70 0 0 -11 -37 0 0 -7 -15 0 0 -39 15 0 0 -7 37 0 0 -47 -54 0 0 16 -118 0 0 -50 118 0 0 16 54 0 0 -47 -37 0 0 -7 -15 0 0 -39 15 0 0 -8 37 0 0 -28 -37 0 0 -7 -15 0 0 -39 15 0 0 -7 37 0 0 -30 -74 0c0,-20 0,-63 0,-82z"/>
  </g>
 </g>
</svg>
