<?xml version="1.0" encoding="UTF-8"?>
<!DOCTYPE svg PUBLIC "-//W3C//DTD SVG 1.1//EN" "http://www.w3.org/Graphics/SVG/1.1/DTD/svg11.dtd">
<!-- Creator: CorelDRAW X7 -->
<svg xmlns="http://www.w3.org/2000/svg" xml:space="preserve" width="13.803mm" height="16.4042mm" version="1.1" style="shape-rendering:geometricPrecision; text-rendering:geometricPrecision; image-rendering:optimizeQuality; fill-rule:evenodd; clip-rule:evenodd"
viewBox="0 0 88 104"
 xmlns:xlink="http://www.w3.org/1999/xlink">
 <defs>
  <style type="text/css">
   <![CDATA[
    .fil0 {fill:#B3B3B3}
   ]]>
  </style>
 </defs>
 <g id="Layer-319">
  <metadata id="CorelCorpID_0Corel-Layer"/>
  <path class="fil0" d="M43 80l0 -5c-2,0 -3,-2 -3,-3 0,-3 2,-4 4,-4 2,0 4,1 4,4 0,1 -1,3 -3,3l0 5 0 5c2,1 3,2 3,4 0,2 -2,4 -4,4 -2,0 -4,-2 -4,-4 0,-2 1,-3 3,-4l0 -5zm23 6c2,0 4,1 4,3 0,2 -2,4 -4,4 -2,0 -3,-2 -3,-4 0,-2 1,-3 3,-3zm0 -21c5,0 9,4 9,9 0,5 -4,8 -9,8 -4,0 -8,-3 -8,-8 0,-5 4,-9 8,-9zm0 7c2,0 3,1 3,2 0,1 -1,2 -3,2 -1,0 -2,-1 -2,-2 0,-1 1,-2 2,-2zm-3 -51c8,0 15,6 15,14 0,8 -7,14 -15,14 -8,0 -14,-6 -14,-14 0,-8 6,-14 14,-14zm-38 0c8,0 14,6 14,14 0,8 -6,14 -14,14 -8,0 -15,-6 -15,-14 0,-8 7,-14 15,-14zm21 4c1,0 2,1 2,2 0,1 -1,2 -2,2 -1,0 -2,-1 -2,-2 0,-1 1,-2 2,-2zm-4 0c0,0 1,1 1,2 0,1 -1,2 -1,2 -1,0 -2,-1 -2,-2 0,-1 1,-2 2,-2zm19 1l2 7 0 0c2,0 3,1 3,2 0,1 -1,2 -3,2 -1,0 -2,-1 -2,-2 0,-1 0,-2 1,-2l-1 -7zm-36 7c1,0 2,1 2,2 0,1 -1,2 -2,2 -2,0 -3,-1 -3,-2 0,0 1,-1 1,-1l-5 -5 6 4c0,0 0,0 1,0zm19 21c1,0 2,2 2,3 0,1 -1,2 -2,2 -1,0 -2,-1 -2,-2 0,-1 1,-3 2,-3zm9 -1l21 0 0 7 -21 0 0 -7zm-39 0l21 0 0 7 -21 0 0 -7zm19 -42l21 0 0 7 -21 0 0 -7zm-30 -8l82 0 0 98 -82 0 0 -98zm-3 -3l88 0 0 104 -88 0 0 -104z"/>
 </g>
</svg>
