<?xml version="1.0" encoding="UTF-8"?>
<!DOCTYPE svg PUBLIC "-//W3C//DTD SVG 1.1//EN" "http://www.w3.org/Graphics/SVG/1.1/DTD/svg11.dtd">
<!-- Creator: CorelDRAW X7 -->
<svg xmlns="http://www.w3.org/2000/svg" xml:space="preserve" width="16.7379mm" height="16.3108mm" version="1.1" style="shape-rendering:geometricPrecision; text-rendering:geometricPrecision; image-rendering:optimizeQuality; fill-rule:evenodd; clip-rule:evenodd"
viewBox="0 0 57 56"
 xmlns:xlink="http://www.w3.org/1999/xlink">
 <defs>
  <style type="text/css">
   <![CDATA[
    .fil0 {fill:white}
    .fil1 {fill:white;fill-rule:nonzero}
   ]]>
  </style>
 </defs>
 <g id="Layer-318">
  <metadata id="CorelCorpID_0Corel-Layer"/>
  <g id="_683665695040">
   <polygon class="fil0" points="26,46 26,56 31,56 31,46 "/>
   <polygon class="fil0" points="25,23 25,24 23,26 23,30 24,33 27,33 27,31 27,30 27,29 29,27 29,26 30,25 32,25 32,24 31,24 31,23 "/>
   <polygon class="fil0" points="23,40 23,42 26,45 31,45 35,42 35,40 "/>
   <polygon class="fil0" points="26,39 32,39 32,37 26,37 "/>
   <polygon class="fil0" points="32,25 31,26 30,27 30,27 30,28 30,28 30,33 33,33 33,29 32,27 "/>
   <polygon class="fil0" points="28,30 28,36 30,36 30,30 "/>
   <path class="fil0" d="M24 56l0 -6 0 0 -7 0 0 2 -17 0 0 4 24 0zm33 0l0 -4 -16 0 0 -2 -8 0 0 0 0 6 24 0z"/>
   <path class="fil1" d="M32 9l0 -9 1 0 0 11 -1 -2zm-9 2l0 -11 1 0 0 9 -1 2z"/>
   <path class="fil0" d="M26 9l-4 4 0 3 3 5 0 1c2,0 4,0 7,0l0 -1 2 -5 0 -3 -4 -4 -4 0z"/>
  </g>
 </g>
</svg>
