<?xml version="1.0" encoding="UTF-8"?>
<!DOCTYPE svg PUBLIC "-//W3C//DTD SVG 1.1//EN" "http://www.w3.org/Graphics/SVG/1.1/DTD/svg11.dtd">
<!-- Creator: CorelDRAW X7 -->
<svg xmlns="http://www.w3.org/2000/svg" xml:space="preserve" width="18.3532mm" height="13.0973mm" version="1.1" style="shape-rendering:geometricPrecision; text-rendering:geometricPrecision; image-rendering:optimizeQuality; fill-rule:evenodd; clip-rule:evenodd"
viewBox="0 0 148 106"
 xmlns:xlink="http://www.w3.org/1999/xlink">
 <defs>
  <style type="text/css">
   <![CDATA[
    .fil0 {fill:#B3B3B3}
   ]]>
  </style>
 </defs>
 <g id="Layer-323">
  <metadata id="CorelCorpID_0Corel-Layer"/>
  <path class="fil0" d="M123 2l3 0c4,0 8,4 9,8 0,1 -2,2 -3,3 -2,0 -5,1 -8,1 -3,0 -5,-1 -7,-1 -2,-1 -3,-2 -3,-3 1,-4 5,-8 9,-8zm-41 47l-27 -9 54 -17 6 2c-3,0 -4,1 -4,2l0 3c0,1 1,2 4,2 2,0 4,-1 4,-2l0 -3c0,0 0,0 0,0l3 1 0 -5c-4,0 -8,-4 -8,-9l0 -1c1,0 1,1 2,1 2,1 5,1 8,1 4,0 6,0 9,-1 0,0 1,-1 2,-1l0 1c0,5 -4,9 -9,9l0 6 8 3 -52 17zm-29 -11l-10 -14c-2,-3 -4,-5 -8,-5 -1,-1 -2,-1 -3,-1 -5,-1 -9,-2 -14,-2 -1,0 -1,0 -2,0l48 -15 0 0c7,-2 16,0 25,2 4,0 6,3 8,5l10 14 -54 16zm83 -5l-53 17 0 30 53 -17 0 -9c-1,1 -1,2 -2,2l-5 0c-2,0 -3,-3 -3,-5 0,-3 1,-6 3,-6l5 0c1,0 1,1 2,2l0 -14zm-43 19c2,0 4,1 6,4l-5 0c0,0 0,0 -1,0 -2,1 -3,4 -3,6 0,3 1,6 3,6 1,1 1,1 1,1l5 0c-2,2 -4,4 -6,4 -4,0 -7,-5 -7,-11 0,-6 3,-10 7,-10zm6 7c1,0 2,2 2,3 0,2 -1,4 -2,4 -1,0 -2,-2 -2,-4 0,-1 1,-3 2,-3zm0 -1l-5 0c0,0 0,0 0,0 -2,0 -3,3 -3,4 0,2 1,5 3,5 0,0 0,0 0,0l5 0c0,0 0,0 0,0 2,0 3,-3 3,-5 0,-1 -1,-4 -3,-4 0,0 0,0 0,0zm-63 -29c1,0 3,3 3,5 0,1 -2,3 -3,2 -2,0 -3,-2 -3,-4 0,-2 1,-4 3,-3zm0 -3c3,1 5,5 5,8 0,4 -2,6 -5,5 -3,-1 -5,-5 -5,-8 0,-4 2,-6 5,-5zm45 24c-10,-3 -19,-6 -28,-9l-1 0 -10 -16c-2,-2 -4,-4 -8,-5 0,0 -1,0 -2,0 -5,-1 -10,-2 -14,-2 -3,0 -8,0 -10,2 -2,1 -4,3 -5,6 -3,6 -3,13 -2,19 0,4 1,8 2,12 1,3 2,6 3,9l1 2 -7 -2 0 9 89 31 4 -4 0 -5 -32 -11 0 -13 20 7 0 -30zm-61 -22c7,3 13,12 13,21 0,9 -6,14 -13,12 -7,-2 -13,-12 -13,-21 0,-9 6,-14 13,-12zm90 18c3,0 5,2 6,4l-4 0c-1,0 -1,0 -1,0 -3,1 -4,4 -4,6 0,3 1,6 4,7 0,0 0,0 1,0l4 0c-1,2 -3,4 -6,4 -4,0 -7,-5 -7,-11 0,-5 3,-10 7,-10zm23 11l-4 0c0,0 -1,0 -1,0 -3,-1 -4,-4 -4,-6 0,-3 1,-6 4,-7 0,0 1,0 1,0l4 0c-1,-2 -3,-4 -5,-4 -1,0 -1,0 -1,0 -2,1 -4,2 -4,4 -2,2 -2,4 -2,7 0,2 0,4 2,6 0,2 2,3 4,4 0,0 0,0 1,0 2,0 4,-2 5,-4zm-17 -4c1,0 2,2 2,3 0,2 -1,4 -2,4 -1,0 -2,-2 -2,-4 0,-1 1,-3 2,-3zm18 -6c1,0 2,2 2,4 0,1 -1,3 -2,3 -1,0 -2,-2 -2,-3 0,-2 1,-4 2,-4zm-18 5l-4 0c0,0 -1,0 -1,0 -2,0 -2,3 -2,4 0,2 0,5 2,5 0,0 1,0 1,0l4 0c0,0 0,0 1,0 2,0 2,-3 2,-5 0,-1 0,-4 -2,-4 -1,0 -1,0 -1,0zm-28 -14l0 2c0,1 0,1 0,1 -1,2 -4,2 -6,2 -1,0 -4,0 -5,-2 0,0 0,0 0,-1l0 -2c-2,1 -3,2 -3,3 0,1 1,2 2,3 2,1 4,1 6,1 2,0 5,0 6,-1 1,-1 3,-2 3,-3 0,-1 -2,-2 -3,-3zm-8 0c0,-1 1,-1 2,-1 2,0 3,0 3,1 0,0 -1,1 -3,1 -1,0 -2,-1 -2,-1zm-2 0c0,-2 2,-2 4,-2 3,0 5,0 5,2l0 2c0,1 -2,2 -5,2 -2,0 -4,-1 -4,-2l0 -2zm26 -5l0 2c0,0 0,1 0,1 -1,2 -4,2 -5,2 -2,0 -5,0 -6,-2 0,0 0,-1 0,-1l0 -2c-1,1 -3,2 -3,3 0,1 2,2 2,3 2,0 5,1 7,1 2,0 4,-1 6,-1 1,-1 2,-2 2,-3 0,-1 -2,-2 -3,-3zm16 -5l0 2c0,0 0,0 0,1 -1,1 -3,2 -5,2 -2,0 -5,-1 -6,-2 0,-1 0,-1 0,-1l0 -2c-1,0 -3,1 -3,3 0,1 2,2 3,2 2,1 4,2 6,2 2,0 4,-1 6,-2 1,0 2,-1 2,-2 0,-2 -1,-3 -3,-3zm-24 4c0,0 1,-1 3,-1 1,0 2,1 2,1 0,1 -1,1 -2,1 -2,0 -3,0 -3,-1zm16 -5c0,0 1,-1 3,-1 1,0 2,1 2,1 0,1 -1,1 -2,1 -2,0 -3,0 -3,-1zm-18 5c0,-1 2,-2 5,-2 2,0 4,1 4,2l0 3c0,1 -2,2 -4,2 -3,0 -5,-1 -5,-2l0 -3zm0 63l13 -4 -30 -10 -14 4 31 10zm-2 11l13 -4 4 -5 0 -4 -14 5 0 5 -3 3zm39 -12l13 -4 4 -5 0 -5 -13 5 0 6 -4 3zm2 -11l12 -4 -25 -9 -13 4 26 9zm-28 -8l27 10 0 5 -5 4 -39 -13 17 -6zm-87 -41c5,2 9,8 9,14 0,6 -4,10 -9,8 -5,-1 -9,-8 -9,-14 0,-6 4,-10 9,-8z"/>
 </g>
</svg>
