<?xml version="1.0" encoding="UTF-8"?>
<!DOCTYPE svg PUBLIC "-//W3C//DTD SVG 1.1//EN" "http://www.w3.org/Graphics/SVG/1.1/DTD/svg11.dtd">
<!-- Creator: CorelDRAW X7 -->
<svg xmlns="http://www.w3.org/2000/svg" xml:space="preserve" width="17.3222mm" height="16.4042mm" version="1.1" style="shape-rendering:geometricPrecision; text-rendering:geometricPrecision; image-rendering:optimizeQuality; fill-rule:evenodd; clip-rule:evenodd"
viewBox="0 0 86 81"
 xmlns:xlink="http://www.w3.org/1999/xlink">
 <defs>
  <style type="text/css">
   <![CDATA[
    .fil0 {fill:#B3B3B3}
   ]]>
  </style>
 </defs>
 <g id="Layer-320">
  <metadata id="CorelCorpID_0Corel-Layer"/>
  <path class="fil0" d="M73 14l0 4 8 0 0 -4 2 0 0 4 3 0 0 5 -3 0 0 20 2 0 0 2 -2 0 0 28c0,1 0,1 0,2 -1,0 -1,0 -2,0l-17 0 0 -2 17 0 0 -28 -8 0 0 18c0,1 -1,1 -1,2l0 0c0,0 -1,0 -1,0l-7 0 0 -2 6 0 0 -18 -8 0 0 18 0 2 0 8 0 2 0 6 -2 0 0 -6 0 -2 0 -8 0 -2 0 -18 -2 0 0 -2 2 0 0 -20 -3 0 0 -5 3 0 0 -11 -7 0 0 13c0,0 0,1 0,1l0 0c-1,1 -1,1 -2,1l-4 0 0 33 3 0 0 2 -16 0 0 -2 3 0 0 -46c0,-2 1,-3 3,-3l0 0 0 -6 4 0 0 6 0 0c2,0 3,1 3,3l0 10 4 0 0 -13c0,0 0,-1 1,-1 0,-1 1,-1 1,-1l7 0c1,0 1,0 1,1l0 0c1,0 1,1 1,1l0 12 8 0 0 -4 3 0zm-61 7c2,0 3,2 3,4 0,2 -1,3 -2,4l0 14 9 0 0 -14c-2,-1 -3,-2 -3,-4 0,-2 2,-4 4,-4 2,0 4,2 4,4 0,2 -1,3 -3,4l0 14 3 0 0 2 -3 0 0 16 -2 0 0 -16 -9 0 0 18 4 0 5 0 2 0 7 0 26 0 0 2 -26 0 -7 0 -2 0 -5 0 -4 0c-1,0 -1,0 -2,0l0 0c0,-1 0,-1 0,-2l0 -18 -9 0 0 18 -2 0 0 -18c0,-1 0,-1 1,-1 0,-1 1,-1 1,-1l9 0 0 -14c-2,-1 -3,-2 -3,-4 0,-2 2,-4 4,-4zm69 22l0 -20 -8 0 0 20 8 0zm-11 0l0 -20 -8 0 0 20 8 0zm-46 25l0 5 33 0 0 2 -33 0c-1,0 -1,0 -2,0l0 0c0,-1 0,-1 0,-2l0 -5 2 0z"/>
 </g>
</svg>
