<?xml version="1.0" encoding="UTF-8"?>
<!DOCTYPE svg PUBLIC "-//W3C//DTD SVG 1.1//EN" "http://www.w3.org/Graphics/SVG/1.1/DTD/svg11.dtd">
<!-- Creator: CorelDRAW X7 -->
<svg xmlns="http://www.w3.org/2000/svg" xml:space="preserve" width="15.8748mm" height="15.875mm" version="1.1" style="shape-rendering:geometricPrecision; text-rendering:geometricPrecision; image-rendering:optimizeQuality; fill-rule:evenodd; clip-rule:evenodd"
viewBox="0 0 1606 1606"
 xmlns:xlink="http://www.w3.org/1999/xlink">
 <defs>
  <style type="text/css">
   <![CDATA[
    .fil0 {fill:#B3B3B3;fill-rule:nonzero}
   ]]>
  </style>
 </defs>
 <g id="Слой_x0020_1">
  <metadata id="CorelCorpID_0Corel-Layer"/>
  <path class="fil0" d="M1587 848l-739 739c-25,25 -65,25 -90,0l-739 -739c-25,-25 -25,-65 0,-90l739 -739c25,-25 65,-25 90,0l739 739c25,25 25,65 0,90zm-489 -84l0 0 -227 -177c-28,-22 -51,-11 -51,25l0 96 -301 0c-17,0 -31,15 -31,32l0 127c0,18 14,32 31,32l301 0 0 95c0,35 23,47 51,25l227 -177c27,-21 27,-57 0,-78z"/>
 </g>
</svg>
