<?xml version="1.0" encoding="UTF-8"?>
<!DOCTYPE svg PUBLIC "-//W3C//DTD SVG 1.1//EN" "http://www.w3.org/Graphics/SVG/1.1/DTD/svg11.dtd">
<!-- Creator: CorelDRAW X7 -->
<svg xmlns="http://www.w3.org/2000/svg" xml:space="preserve" width="4.1294mm" height="4.1294mm" version="1.1" style="shape-rendering:geometricPrecision; text-rendering:geometricPrecision; image-rendering:optimizeQuality; fill-rule:evenodd; clip-rule:evenodd"
viewBox="0 0 65 65"
 xmlns:xlink="http://www.w3.org/1999/xlink">
 <defs>
  <style type="text/css">
   <![CDATA[
    .fil0 {fill:#33CC33;fill-rule:nonzero}
   ]]>
  </style>
 </defs>
 <g id="Слой_x0020_1">
  <metadata id="CorelCorpID_0Corel-Layer"/>
  <path class="fil0" d="M32 0c-9,0 -17,4 -23,9 -5,6 -9,14 -9,23 0,9 4,17 9,23l1 0c5,6 13,10 22,10 9,0 17,-4 23,-10 6,-6 10,-14 10,-23 0,-9 -4,-17 -10,-22l0 0 0 -1c-6,-5 -14,-9 -23,-9zm-11 21c3,-3 7,-4 11,-4 5,0 9,1 12,4l0 0c2,3 4,7 4,11 0,5 -2,9 -4,12 -3,2 -7,4 -12,4 -4,0 -8,-2 -11,-4 -3,-3 -4,-7 -4,-12 0,-4 1,-8 4,-11z"/>
 </g>
</svg>
