<?xml version="1.0" encoding="UTF-8"?>
<!DOCTYPE svg PUBLIC "-//W3C//DTD SVG 1.1//EN" "http://www.w3.org/Graphics/SVG/1.1/DTD/svg11.dtd">
<!-- Creator: CorelDRAW X7 -->
<svg xmlns="http://www.w3.org/2000/svg" xml:space="preserve" width="37.9236mm" height="47.9778mm" version="1.1" style="shape-rendering:geometricPrecision; text-rendering:geometricPrecision; image-rendering:optimizeQuality; fill-rule:evenodd; clip-rule:evenodd"
viewBox="0 0 17720 22418"
 xmlns:xlink="http://www.w3.org/1999/xlink">
 <defs>
  <style type="text/css">
   <![CDATA[
    .str0 {stroke:gray;stroke-width:247.226}
    .fil0 {fill:none}
    .fil1 {fill:#999999;fill-rule:nonzero}
   ]]>
  </style>
 </defs>
 <g id="Слой_x0020_1">
  <metadata id="CorelCorpID_0Corel-Layer"/>
  <rect class="fil0 str0" x="124" y="124" width="17473" height="22171" rx="763" ry="763"/>
  <path class="fil1" d="M10241 10131c-101,0 -105,-258 -105,-402 0,-176 23,-273 23,-273 302,0 759,-504 906,-969 83,-261 550,-309 550,-1002 0,-607 -269,-439 -269,-484 0,-46 0,-660 0,-1022 0,-670 -598,-1992 -2486,-1992 -1888,0 -2486,1322 -2486,1992 0,362 0,976 0,1022 0,45 -269,-123 -269,484 0,693 467,741 550,1002 147,465 604,969 906,969 0,0 23,97 23,273 0,144 -4,402 -105,402 -1640,0 -3029,1533 -3029,2087 0,707 0,1591 0,1591l4410 0 4410 0c0,0 0,-884 0,-1591 0,-554 -1389,-2087 -3029,-2087z"/>
 </g>
</svg>
