<?xml version="1.0" encoding="UTF-8"?>
<!DOCTYPE svg PUBLIC "-//W3C//DTD SVG 1.1//EN" "http://www.w3.org/Graphics/SVG/1.1/DTD/svg11.dtd">
<!-- Creator: CorelDRAW X7 -->
<svg xmlns="http://www.w3.org/2000/svg" xml:space="preserve" width="34.394mm" height="27.0879mm" version="1.1" style="shape-rendering:geometricPrecision; text-rendering:geometricPrecision; image-rendering:optimizeQuality; fill-rule:evenodd; clip-rule:evenodd"
viewBox="0 0 34389 27084"
 xmlns:xlink="http://www.w3.org/1999/xlink">
 <defs>
  <style type="text/css">
   <![CDATA[
    .str0 {stroke:#4D4D4D;stroke-width:529.129}
    .fil1 {fill:none}
    .fil0 {fill:#1A1A1A}
    .fil2 {fill:#4D4D4D;fill-rule:nonzero}
   ]]>
  </style>
 </defs>
 <g id="Слой_x0020_1">
  <metadata id="CorelCorpID_0Corel-Layer"/>
  <circle class="fil0" cx="16389" cy="15603" r="10961"/>
  <line class="fil1 str0" x1="4740" y1="15646" x2="3810" y2= "15646" />
  <line class="fil1 str0" x1="8132" y1="7389" x2="7473" y2= "6731" />
  <line class="fil1 str0" x1="16360" y1="3955" x2="16360" y2= "3025" />
  <line class="fil1 str0" x1="24602" y1="7346" x2="25261" y2= "6674" />
  <line class="fil1 str0" x1="28037" y1="15560" x2="28981" y2= "15560" />
  <path class="fil2" d="M1420 16819l-1420 0 0 -325c102,-97 199,-189 290,-278 90,-89 179,-181 266,-277 175,-193 295,-347 359,-464 64,-115 96,-235 96,-360 0,-64 -10,-120 -30,-168 -20,-49 -48,-89 -83,-121 -36,-31 -78,-54 -126,-69 -47,-16 -99,-24 -156,-24 -54,0 -110,7 -166,22 -57,13 -111,31 -162,51 -44,18 -86,39 -126,64 -40,25 -73,46 -98,63l-16 0 0 -327c63,-32 152,-63 266,-93 115,-31 222,-46 324,-46 215,0 383,57 505,171 121,114 182,268 182,463 0,90 -10,173 -32,249 -21,76 -50,147 -87,212 -38,67 -84,134 -138,200 -53,65 -110,130 -169,194 -98,105 -205,215 -324,328 -120,113 -215,203 -285,269l1130 0 0 266z"/>
  <path id="1" class="fil2" d="M3166 15665c0,414 -60,718 -180,912 -120,193 -306,290 -557,290 -254,0 -440,-99 -559,-296 -118,-197 -178,-498 -178,-902 0,-416 61,-720 181,-913 120,-193 305,-289 556,-289 255,0 441,100 559,299 119,199 178,499 178,899zm-396 703c30,-77 51,-173 64,-290 12,-116 19,-254 19,-413 0,-157 -7,-294 -19,-411 -13,-116 -34,-213 -65,-290 -31,-79 -74,-138 -128,-179 -54,-40 -125,-61 -212,-61 -85,0 -156,21 -211,61 -55,41 -99,101 -131,181 -31,79 -52,178 -64,297 -11,120 -17,255 -17,406 0,160 5,295 15,403 10,108 31,205 64,291 30,79 73,140 128,183 55,43 128,64 216,64 86,0 157,-21 212,-61 55,-41 99,-101 129,-181z"/>
  <path class="fil2" d="M5662 5924l-273 0 0 793 -298 0 0 -793 -1017 0 0 -325 1030 -1187 285 0 0 1265 273 0 0 247zm-571 -247l0 -899 -775 899 775 0z"/>
  <path id="1" class="fil2" d="M7345 5563c0,414 -60,717 -180,911 -121,194 -306,290 -557,290 -254,0 -440,-99 -559,-296 -119,-197 -178,-497 -178,-902 0,-416 60,-720 180,-913 120,-192 306,-288 557,-288 254,0 440,99 559,299 119,199 178,498 178,899zm-396 702c30,-77 51,-173 64,-290 12,-116 18,-253 18,-412 0,-158 -6,-295 -18,-411 -13,-117 -35,-214 -65,-291 -32,-79 -74,-138 -128,-178 -55,-41 -125,-62 -212,-62 -86,0 -157,21 -211,62 -56,40 -100,100 -132,181 -31,79 -52,177 -63,297 -12,120 -17,254 -17,405 0,161 4,295 14,404 10,107 32,205 65,290 29,79 72,141 128,184 55,42 127,63 216,63 85,0 156,-20 212,-61 55,-40 98,-101 129,-181z"/>
  <path class="fil2" d="M16258 1603c0,119 -20,229 -59,329 -39,100 -92,184 -158,251 -69,71 -147,125 -232,162 -86,36 -180,55 -284,55 -104,0 -199,-18 -284,-53 -85,-35 -160,-87 -225,-156 -80,-84 -142,-195 -187,-335 -45,-140 -67,-312 -67,-517 0,-200 20,-381 61,-542 42,-162 106,-302 191,-422 84,-117 192,-208 324,-274 132,-65 285,-98 459,-98 51,0 99,3 143,8 45,5 84,13 118,25l0 297 -14 0c-28,-16 -68,-31 -120,-44 -53,-13 -109,-20 -169,-20 -191,0 -346,65 -464,194 -118,130 -188,322 -209,576 73,-52 148,-91 225,-119 78,-28 162,-42 254,-42 89,0 168,9 236,27 67,19 137,54 210,109 85,64 148,146 189,243 41,99 62,214 62,346zm-314 12c0,-94 -12,-173 -37,-237 -25,-63 -65,-118 -120,-163 -41,-33 -86,-54 -137,-65 -51,-10 -104,-15 -157,-15 -73,0 -142,10 -210,32 -69,22 -135,53 -201,94 -2,23 -4,45 -5,66 -1,20 -2,47 -2,79 0,159 16,287 47,385 32,97 71,171 117,221 45,49 90,82 137,102 47,19 98,29 152,29 124,0 224,-44 301,-133 76,-88 115,-219 115,-395z"/>
  <path id="1" class="fil2" d="M17963 1198c0,414 -60,718 -180,912 -121,193 -306,290 -557,290 -254,0 -440,-99 -559,-296 -119,-197 -178,-498 -178,-903 0,-415 60,-720 180,-912 120,-193 306,-289 557,-289 254,0 440,100 559,299 119,199 178,499 178,899zm-396 702c30,-76 51,-172 64,-289 12,-116 18,-254 18,-413 0,-157 -6,-295 -18,-411 -13,-117 -35,-213 -65,-290 -32,-79 -74,-138 -128,-179 -55,-41 -126,-61 -212,-61 -86,0 -157,20 -211,61 -56,41 -100,101 -132,181 -31,79 -52,178 -63,297 -12,120 -17,255 -17,405 0,161 4,296 14,404 10,108 32,205 65,291 29,79 72,140 128,183 55,43 127,64 216,64 85,0 156,-21 212,-61 55,-41 98,-101 129,-182z"/>
  <path class="fil2" d="M26816 4961c0,-104 -34,-190 -103,-259 -69,-70 -164,-104 -287,-104 -113,0 -204,31 -276,93 -71,62 -107,146 -107,252 0,77 18,141 55,195 36,52 91,100 165,142 31,18 80,42 146,73 65,31 125,56 178,73 89,-69 150,-141 182,-213 32,-74 47,-157 47,-252zm48 1157c0,-94 -18,-170 -56,-225 -37,-56 -109,-113 -216,-171 -35,-20 -81,-41 -140,-64 -59,-22 -125,-49 -198,-80 -86,57 -151,126 -197,210 -45,83 -68,177 -68,284 0,139 42,254 126,345 85,91 190,137 318,137 130,0 234,-40 313,-117 79,-78 118,-185 118,-319zm-438 667c-114,0 -218,-17 -312,-51 -94,-34 -175,-83 -241,-147 -65,-63 -114,-136 -148,-221 -33,-86 -50,-176 -50,-271 0,-125 33,-239 101,-345 67,-104 164,-188 292,-250l0 -9c-114,-66 -198,-138 -253,-217 -55,-78 -83,-177 -83,-294 0,-174 66,-319 197,-434 131,-116 297,-174 499,-174 209,0 377,55 503,165 126,111 190,251 190,422 0,104 -30,207 -91,307 -60,102 -147,181 -261,238l0 9c135,63 236,139 305,229 69,90 104,206 104,347 0,198 -72,363 -215,496 -143,133 -321,200 -537,200z"/>
  <path id="1" class="fil2" d="M28896 5577c0,414 -61,718 -181,912 -120,193 -306,290 -557,290 -254,0 -440,-99 -558,-296 -119,-197 -179,-498 -179,-903 0,-416 61,-720 181,-912 120,-193 305,-289 556,-289 255,0 441,100 559,299 119,199 179,499 179,899zm-397 702c30,-76 51,-173 64,-289 12,-116 19,-254 19,-413 0,-157 -7,-295 -19,-411 -13,-117 -34,-213 -65,-291 -31,-78 -74,-137 -128,-178 -54,-41 -125,-61 -212,-61 -85,0 -156,20 -211,61 -55,41 -99,101 -131,181 -31,79 -52,178 -64,297 -11,120 -17,255 -17,405 0,161 5,296 15,404 10,108 31,205 64,290 30,80 73,141 128,184 55,43 128,64 216,64 86,0 157,-21 212,-61 55,-41 99,-101 129,-182z"/>
  <path class="fil2" d="M30799 16819l-1126 0 0 -234 419 0 0 -1547 -419 0 0 -209c158,0 275,-23 350,-68 75,-45 117,-131 126,-256l241 0 0 2080 409 0 0 234z"/>
  <path id="1" class="fil2" d="M32659 15665c0,414 -60,718 -180,912 -121,193 -306,290 -557,290 -254,0 -440,-99 -559,-296 -119,-197 -178,-498 -178,-902 0,-416 60,-720 180,-913 121,-193 306,-289 557,-289 254,0 440,100 559,299 119,199 178,499 178,899zm-396 703c30,-77 51,-173 64,-290 12,-116 18,-254 18,-413 0,-157 -6,-294 -18,-411 -13,-116 -35,-213 -65,-290 -32,-79 -74,-138 -128,-179 -55,-40 -125,-61 -212,-61 -86,0 -156,21 -211,61 -56,41 -100,101 -131,181 -32,79 -53,178 -64,297 -11,120 -17,255 -17,406 0,160 4,295 15,403 9,108 31,205 64,291 30,79 72,140 128,183 55,43 127,64 216,64 86,0 156,-21 212,-61 55,-41 98,-101 129,-181z"/>
  <path id="2" class="fil2" d="M34389 15665c0,414 -60,718 -180,912 -120,193 -306,290 -557,290 -254,0 -440,-99 -559,-296 -119,-197 -178,-498 -178,-902 0,-416 60,-720 180,-913 121,-193 306,-289 557,-289 254,0 440,100 559,299 119,199 178,499 178,899zm-396 703c30,-77 51,-173 64,-290 12,-116 19,-254 19,-413 0,-157 -7,-294 -19,-411 -13,-116 -34,-213 -65,-290 -31,-79 -74,-138 -128,-179 -54,-40 -125,-61 -212,-61 -85,0 -156,21 -211,61 -55,41 -99,101 -131,181 -31,79 -52,178 -64,297 -11,120 -17,255 -17,406 0,160 5,295 15,403 9,108 31,205 64,291 30,79 73,140 128,183 55,43 128,64 216,64 86,0 157,-21 212,-61 55,-41 98,-101 129,-181z"/>
  <line class="fil1 str0" x1="8189" y1="23874" x2="7516" y2= "24532" />
  <line class="fil1 str0" x1="24660" y1="23817" x2="25318" y2= "24475" />
  <path class="fil2" d="M6731 25883c0,413 -60,717 -180,911 -121,194 -306,290 -557,290 -254,0 -440,-99 -559,-296 -119,-197 -178,-497 -178,-902 0,-416 60,-720 180,-913 120,-192 306,-289 557,-289 254,0 440,100 559,300 119,199 178,498 178,899zm-396 702c30,-77 51,-173 63,-290 13,-116 19,-253 19,-412 0,-158 -6,-295 -19,-411 -12,-117 -34,-214 -65,-291 -31,-79 -74,-138 -127,-178 -55,-41 -126,-62 -212,-62 -86,0 -157,21 -212,62 -55,40 -99,100 -131,181 -31,79 -52,177 -64,297 -11,120 -16,254 -16,405 0,161 4,295 14,404 10,107 31,205 65,290 29,79 72,141 128,184 55,42 127,63 216,63 85,0 156,-20 212,-61 55,-40 98,-101 129,-181z"/>
  <path class="fil2" d="M27293 27037l-1126 0 0 -235 419 0 0 -1547 -419 0 0 -209c158,0 275,-23 350,-68 75,-45 117,-130 126,-256l241 0 0 2080 409 0 0 235z"/>
  <path id="1" class="fil2" d="M29137 27037l-1420 0 0 -325c102,-97 199,-190 290,-279 90,-88 179,-181 266,-277 175,-193 295,-347 359,-463 64,-116 96,-236 96,-360 0,-64 -10,-120 -30,-169 -20,-48 -48,-89 -83,-120 -36,-31 -78,-55 -126,-70 -47,-15 -99,-23 -156,-23 -54,0 -110,7 -166,21 -57,14 -111,31 -162,52 -44,17 -86,38 -126,63 -40,25 -73,46 -98,64l-16 0 0 -328c63,-32 152,-62 266,-93 115,-30 222,-46 324,-46 215,0 383,58 505,171 121,114 182,269 182,464 0,89 -10,172 -32,248 -21,76 -50,147 -87,212 -38,67 -84,134 -138,200 -53,65 -110,130 -169,194 -98,105 -205,215 -324,328 -120,114 -215,203 -285,269l1130 0 0 267z"/>
  <path id="2" class="fil2" d="M30883 25883c0,413 -60,717 -180,911 -120,194 -306,290 -557,290 -254,0 -440,-99 -559,-296 -118,-197 -178,-497 -178,-902 0,-416 61,-720 181,-913 120,-192 305,-289 556,-289 255,0 441,100 559,300 119,199 178,498 178,899zm-396 702c30,-77 51,-173 64,-290 12,-116 19,-253 19,-412 0,-158 -7,-295 -19,-411 -13,-117 -34,-214 -65,-291 -31,-79 -74,-138 -128,-178 -54,-41 -125,-62 -212,-62 -85,0 -156,21 -211,62 -55,40 -99,100 -131,181 -31,79 -52,177 -64,297 -11,120 -17,254 -17,405 0,161 5,295 15,404 10,107 31,205 64,290 30,79 73,141 128,184 55,42 128,63 216,63 86,0 157,-20 212,-61 55,-40 99,-101 129,-181z"/>
 </g>
</svg>
