<?xml version="1.0" encoding="UTF-8"?>
<!DOCTYPE svg PUBLIC "-//W3C//DTD SVG 1.1//EN" "http://www.w3.org/Graphics/SVG/1.1/DTD/svg11.dtd">
<!-- Creator: CorelDRAW X7 -->
<svg xmlns="http://www.w3.org/2000/svg" xml:space="preserve" width="20.5914mm" height="20.5913mm" version="1.1" style="shape-rendering:geometricPrecision; text-rendering:geometricPrecision; image-rendering:optimizeQuality; fill-rule:evenodd; clip-rule:evenodd"
viewBox="0 0 883 883"
 xmlns:xlink="http://www.w3.org/1999/xlink">
 <defs>
  <style type="text/css">
   <![CDATA[
    .fil52 {fill:#050505}
    .fil53 {fill:#080808}
    .fil51 {fill:#0B0B0B}
    .fil39 {fill:#0D0D0D}
    .fil50 {fill:#101010}
    .fil40 {fill:#121212}
    .fil49 {fill:#161616}
    .fil41 {fill:#171717}
    .fil48 {fill:#1B1B1B}
    .fil42 {fill:#1D1D1D}
    .fil47 {fill:#212121}
    .fil43 {fill:#222222}
    .fil46 {fill:#262626}
    .fil44 {fill:#272727}
    .fil45 {fill:#2C2C2C}
    .fil13 {fill:#444444}
    .fil14 {fill:#484848}
    .fil12 {fill:#4B4B4B}
    .fil0 {fill:#4E4E4E}
    .fil11 {fill:#515151}
    .fil1 {fill:#545454}
    .fil10 {fill:#585858}
    .fil2 {fill:#5A5A5A}
    .fil38 {fill:#5D5D5D}
    .fil9 {fill:#5E5E5E}
    .fil3 {fill:#606060}
    .fil30 {fill:#626262}
    .fil8 {fill:#656565}
    .fil4 {fill:#666666}
    .fil31 {fill:#676767}
    .fil7 {fill:#6B6B6B}
    .fil5 {fill:#6C6C6C}
    .fil37 {fill:#707070}
    .fil6 {fill:#727272}
    .fil36 {fill:#767676}
    .fil32 {fill:#777777}
    .fil35 {fill:#7B7B7B}
    .fil33 {fill:#7C7C7C}
    .fil34 {fill:#818181}
    .fil28 {fill:#8C8C8C}
    .fil29 {fill:#8F8F8F}
    .fil27 {fill:#929292}
    .fil15 {fill:#949494}
    .fil26 {fill:#979797}
    .fil16 {fill:#999999}
    .fil25 {fill:#9D9D9D}
    .fil17 {fill:#9E9E9E}
    .fil24 {fill:#A2A2A2}
    .fil18 {fill:#A4A4A4}
    .fil23 {fill:#A8A8A8}
    .fil19 {fill:darkgray}
    .fil22 {fill:#ADADAD}
    .fil20 {fill:#AEAEAE}
    .fil21 {fill:#B3B3B3}
   ]]>
  </style>
     <clipPath id="id0">
      <path d="M221 824c211,122 481,50 603,-161 122,-212 50,-482 -161,-604 -212,-122 -482,-49 -604,162 -122,211 -49,481 162,603z"/>
     </clipPath>
     <clipPath id="id1">
      <path d="M655 73c-204,-117 -464,-48 -582,156 -117,203 -48,464 156,581 203,118 464,48 581,-155 118,-204 48,-464 -155,-582z"/>
     </clipPath>
     <clipPath id="id2">
      <path d="M83 235c-11,19 -4,45 15,56 20,11 45,5 57,-15 11,-20 4,-45 -15,-56 -20,-12 -45,-5 -57,15z"/>
     </clipPath>
     <clipPath id="id3">
      <path d="M149 272c9,-16 3,-37 -13,-46 -16,-10 -37,-4 -47,12 -9,17 -4,38 13,47 16,9 37,4 47,-13z"/>
     </clipPath>
 </defs>
 <g id="Слой_x0020_1">
  <metadata id="CorelCorpID_0Corel-Layer"/>
  <g id="_699437946832">
   <g>
    <g style="clip-path:url(#id0)">
     <polygon class="fil0" points="442,442 -88,95 56,-61 "/>
     <polygon id="1" class="fil1" points="442,442 32,-35 178,-134 "/>
     <polygon id="2" class="fil2" points="442,442 148,-114 312,-178 "/>
     <polygon id="3" class="fil3" points="442,442 279,-165 454,-192 "/>
     <polygon id="4" class="fil4" points="442,442 418,-186 594,-173 "/>
     <polygon id="5" class="fil5" points="442,442 559,-176 727,-124 "/>
     <polygon id="6" class="fil6" points="442,442 693,-134 846,-46 "/>
     <polygon id="7" class="fil7" points="442,442 815,-64 944,56 "/>
     <polygon id="8" class="fil8" points="442,442 918,32 1018,178 "/>
     <polygon id="9" class="fil9" points="442,442 997,148 1062,312 "/>
     <polygon id="10" class="fil10" points="442,442 1049,279 1075,454 "/>
     <polygon id="11" class="fil11" points="442,442 1070,418 1057,594 "/>
     <polygon id="12" class="fil12" points="442,442 1059,559 1007,727 "/>
     <polygon id="13" class="fil13" points="442,442 1018,693 930,846 "/>
     <polygon id="14" class="fil12" points="442,442 947,815 827,944 "/>
     <polygon id="15" class="fil11" points="442,442 852,918 706,1018 "/>
     <polygon id="16" class="fil10" points="442,442 735,997 571,1062 "/>
     <polygon id="17" class="fil9" points="442,442 604,1049 430,1075 "/>
     <polygon id="18" class="fil8" points="442,442 465,1070 289,1057 "/>
     <polygon id="19" class="fil7" points="442,442 325,1059 156,1007 "/>
     <polygon id="20" class="fil6" points="442,442 190,1018 38,930 "/>
     <polygon id="21" class="fil5" points="442,442 68,947 -61,827 "/>
     <polygon id="22" class="fil4" points="442,442 -35,852 -134,706 "/>
     <polygon id="23" class="fil3" points="442,442 -114,735 -178,571 "/>
     <polygon id="24" class="fil2" points="442,442 -165,604 -192,430 "/>
     <polygon id="25" class="fil1" points="442,442 -186,465 -173,289 "/>
     <polygon id="26" class="fil0" points="442,442 -176,325 -124,156 "/>
     <polygon id="27" class="fil14" points="442,442 -134,190 -64,68 "/>
    </g>
   </g>
   <g>
    <g style="clip-path:url(#id1)">
     <polygon class="fil15" points="442,442 987,717 1047,521 "/>
     <polygon id="1" class="fil16" points="442,442 1037,554 1050,385 "/>
     <polygon id="2" class="fil17" points="442,442 1047,419 1022,251 "/>
     <polygon id="3" class="fil18" points="442,442 1027,285 965,127 "/>
     <polygon id="4" class="fil19" points="442,442 977,159 882,18 "/>
     <polygon id="5" class="fil20" points="442,442 901,47 776,-69 "/>
     <polygon id="6" class="fil21" points="442,442 801,-46 654,-131 "/>
     <polygon id="7" class="fil22" points="442,442 684,-114 521,-164 "/>
     <polygon id="8" class="fil23" points="442,442 554,-154 385,-166 "/>
     <polygon id="9" class="fil24" points="442,442 419,-164 251,-138 "/>
     <polygon id="10" class="fil25" points="442,442 285,-143 127,-81 "/>
     <polygon id="11" class="fil26" points="442,442 159,-94 18,2 "/>
     <polygon id="12" class="fil27" points="442,442 47,-17 -69,107 "/>
     <polygon id="13" class="fil28" points="442,442 -46,82 -131,229 "/>
     <polygon id="14" class="fil27" points="442,442 -114,199 -164,362 "/>
     <polygon id="15" class="fil26" points="442,442 -154,329 -166,499 "/>
     <polygon id="16" class="fil25" points="442,442 -164,464 -138,633 "/>
     <polygon id="17" class="fil24" points="442,442 -143,599 -81,757 "/>
     <polygon id="18" class="fil23" points="442,442 -94,725 2,865 "/>
     <polygon id="19" class="fil22" points="442,442 -17,837 107,953 "/>
     <polygon id="20" class="fil21" points="442,442 82,929 229,1014 "/>
     <polygon id="21" class="fil20" points="442,442 199,997 362,1047 "/>
     <polygon id="22" class="fil19" points="442,442 329,1037 499,1050 "/>
     <polygon id="23" class="fil18" points="442,442 464,1047 633,1022 "/>
     <polygon id="24" class="fil17" points="442,442 599,1027 757,965 "/>
     <polygon id="25" class="fil16" points="442,442 725,977 865,882 "/>
     <polygon id="26" class="fil15" points="442,442 837,901 953,776 "/>
     <polygon id="27" class="fil29" points="442,442 929,801 997,684 "/>
    </g>
   </g>
  </g>
  <g>
   <g>
    <g style="clip-path:url(#id2)">
     <polygon class="fil30" points="119,255 146,203 127,197 "/>
     <polygon id="1" class="fil31" points="119,255 130,198 113,196 "/>
     <polygon id="2" class="fil5" points="119,255 117,197 100,199 "/>
     <polygon id="3" class="fil6" points="119,255 104,199 88,205 "/>
     <polygon id="4" class="fil32" points="119,255 92,204 78,213 "/>
     <polygon id="5" class="fil33" points="119,255 81,211 69,223 "/>
     <polygon id="6" class="fil34" points="119,255 72,221 64,235 "/>
     <polygon id="7" class="fil35" points="119,255 65,232 60,248 "/>
     <polygon id="8" class="fil36" points="119,255 61,244 60,261 "/>
     <polygon id="9" class="fil37" points="119,255 60,258 63,274 "/>
     <polygon id="10" class="fil7" points="119,255 62,271 68,286 "/>
     <polygon id="11" class="fil8" points="119,255 67,283 76,296 "/>
     <polygon id="12" class="fil3" points="119,255 74,294 87,305 "/>
     <polygon id="13" class="fil2" points="119,255 84,303 98,311 "/>
     <polygon id="14" class="fil3" points="119,255 95,309 111,314 "/>
     <polygon id="15" class="fil8" points="119,255 108,313 124,314 "/>
     <polygon id="16" class="fil7" points="119,255 121,314 137,312 "/>
     <polygon id="17" class="fil37" points="119,255 134,312 149,306 "/>
     <polygon id="18" class="fil36" points="119,255 146,307 160,298 "/>
     <polygon id="19" class="fil35" points="119,255 157,300 168,288 "/>
     <polygon id="20" class="fil34" points="119,255 166,290 174,276 "/>
     <polygon id="21" class="fil33" points="119,255 173,279 178,263 "/>
     <polygon id="22" class="fil32" points="119,255 177,266 178,250 "/>
     <polygon id="23" class="fil6" points="119,255 178,253 175,237 "/>
     <polygon id="24" class="fil5" points="119,255 176,240 170,225 "/>
     <polygon id="25" class="fil31" points="119,255 171,228 162,214 "/>
     <polygon id="26" class="fil30" points="119,255 163,217 151,206 "/>
     <polygon id="27" class="fil38" points="119,255 154,208 142,202 "/>
    </g>
   </g>
   <g>
    <g style="clip-path:url(#id3)">
     <polygon class="fil39" points="119,255 97,299 113,304 "/>
     <polygon id="1" class="fil40" points="119,255 110,303 124,304 "/>
     <polygon id="2" class="fil41" points="119,255 121,304 134,302 "/>
     <polygon id="3" class="fil42" points="119,255 132,302 144,297 "/>
     <polygon id="4" class="fil43" points="119,255 142,298 153,291 "/>
     <polygon id="5" class="fil44" points="119,255 151,292 160,282 "/>
     <polygon id="6" class="fil45" points="119,255 158,284 165,272 "/>
     <polygon id="7" class="fil46" points="119,255 164,275 168,262 "/>
     <polygon id="8" class="fil47" points="119,255 167,264 168,251 "/>
     <polygon id="9" class="fil48" points="119,255 168,254 166,240 "/>
     <polygon id="10" class="fil49" points="119,255 166,243 161,230 "/>
     <polygon id="11" class="fil50" points="119,255 162,233 154,221 "/>
     <polygon id="12" class="fil51" points="119,255 156,224 146,214 "/>
     <polygon id="13" class="fil52" points="119,255 148,216 136,209 "/>
     <polygon id="14" class="fil51" points="119,255 138,211 125,207 "/>
     <polygon id="15" class="fil50" points="119,255 128,208 114,207 "/>
     <polygon id="16" class="fil49" points="119,255 117,207 104,209 "/>
     <polygon id="17" class="fil48" points="119,255 106,208 94,213 "/>
     <polygon id="18" class="fil47" points="119,255 96,212 85,220 "/>
     <polygon id="19" class="fil46" points="119,255 87,218 78,228 "/>
     <polygon id="20" class="fil45" points="119,255 80,226 73,238 "/>
     <polygon id="21" class="fil44" points="119,255 74,236 70,249 "/>
     <polygon id="22" class="fil43" points="119,255 71,246 70,260 "/>
     <polygon id="23" class="fil42" points="119,255 70,257 72,271 "/>
     <polygon id="24" class="fil41" points="119,255 72,268 77,281 "/>
     <polygon id="25" class="fil40" points="119,255 76,278 84,289 "/>
     <polygon id="26" class="fil39" points="119,255 82,287 92,296 "/>
     <polygon id="27" class="fil53" points="119,255 90,295 99,300 "/>
    </g>
   </g>
  </g>
 </g>
</svg>
