<?xml version="1.0" encoding="UTF-8"?>
<!DOCTYPE svg PUBLIC "-//W3C//DTD SVG 1.1//EN" "http://www.w3.org/Graphics/SVG/1.1/DTD/svg11.dtd">
<!-- Creator: CorelDRAW X7 -->
<svg xmlns="http://www.w3.org/2000/svg" xml:space="preserve" width="20.5879mm" height="20.5879mm" version="1.1" style="shape-rendering:geometricPrecision; text-rendering:geometricPrecision; image-rendering:optimizeQuality; fill-rule:evenodd; clip-rule:evenodd"
viewBox="0 0 1144 1144"
 xmlns:xlink="http://www.w3.org/1999/xlink">
 <defs>
  <style type="text/css">
   <![CDATA[
    .fil52 {fill:#050505}
    .fil53 {fill:#080808}
    .fil51 {fill:#0B0B0B}
    .fil39 {fill:#0D0D0D}
    .fil50 {fill:#101010}
    .fil40 {fill:#121212}
    .fil49 {fill:#161616}
    .fil41 {fill:#171717}
    .fil48 {fill:#1B1B1B}
    .fil42 {fill:#1D1D1D}
    .fil47 {fill:#212121}
    .fil43 {fill:#222222}
    .fil46 {fill:#262626}
    .fil44 {fill:#272727}
    .fil45 {fill:#2C2C2C}
    .fil13 {fill:#444444}
    .fil14 {fill:#484848}
    .fil12 {fill:#4B4B4B}
    .fil0 {fill:#4E4E4E}
    .fil11 {fill:#515151}
    .fil1 {fill:#545454}
    .fil10 {fill:#585858}
    .fil2 {fill:#5A5A5A}
    .fil38 {fill:#5D5D5D}
    .fil9 {fill:#5E5E5E}
    .fil3 {fill:#606060}
    .fil30 {fill:#626262}
    .fil8 {fill:#656565}
    .fil4 {fill:#666666}
    .fil31 {fill:#676767}
    .fil7 {fill:#6B6B6B}
    .fil5 {fill:#6C6C6C}
    .fil37 {fill:#707070}
    .fil6 {fill:#727272}
    .fil36 {fill:#767676}
    .fil32 {fill:#777777}
    .fil35 {fill:#7B7B7B}
    .fil33 {fill:#7C7C7C}
    .fil34 {fill:#818181}
    .fil28 {fill:#8C8C8C}
    .fil29 {fill:#8F8F8F}
    .fil27 {fill:#929292}
    .fil15 {fill:#949494}
    .fil26 {fill:#979797}
    .fil16 {fill:#999999}
    .fil25 {fill:#9D9D9D}
    .fil17 {fill:#9E9E9E}
    .fil24 {fill:#A2A2A2}
    .fil18 {fill:#A4A4A4}
    .fil23 {fill:#A8A8A8}
    .fil19 {fill:darkgray}
    .fil22 {fill:#ADADAD}
    .fil20 {fill:#AEAEAE}
    .fil21 {fill:#B3B3B3}
   ]]>
  </style>
     <clipPath id="id0">
      <path d="M977 977c223,-224 223,-586 0,-809 -224,-224 -586,-224 -809,0 -224,223 -224,585 0,809 223,223 585,223 809,0z"/>
     </clipPath>
     <clipPath id="id1">
      <path d="M182 182c-216,215 -216,565 0,781 215,215 565,215 781,0 215,-216 215,-566 0,-781 -216,-216 -566,-216 -781,0z"/>
     </clipPath>
     <clipPath id="id2">
      <path d="M193 951c21,21 55,21 75,0 21,-21 21,-54 0,-75 -20,-21 -54,-21 -75,0 -21,21 -21,54 0,75z"/>
     </clipPath>
     <clipPath id="id3">
      <path d="M262 882c-17,-17 -45,-17 -63,0 -17,17 -17,45 0,63 18,17 46,17 63,0 17,-18 17,-46 0,-63z"/>
     </clipPath>
 </defs>
 <g id="Слой_x0020_1">
  <metadata id="CorelCorpID_0Corel-Layer"/>
  <g id="_837212465776">
   <g>
    <g style="clip-path:url(#id0)">
     <polygon class="fil0" points="572,572 25,1184 258,1330 "/>
     <polygon id="1" class="fil1" points="572,572 219,1306 435,1381 "/>
     <polygon id="2" class="fil2" points="572,572 391,1366 618,1391 "/>
     <polygon id="3" class="fil3" points="572,572 572,1386 799,1361 "/>
     <polygon id="4" class="fil4" points="572,572 753,1366 969,1290 "/>
     <polygon id="5" class="fil5" points="572,572 925,1306 1119,1184 "/>
     <polygon id="6" class="fil6" points="572,572 1080,1209 1241,1047 "/>
     <polygon id="7" class="fil7" points="572,572 1209,1080 1330,886 "/>
     <polygon id="8" class="fil8" points="572,572 1306,925 1381,710 "/>
     <polygon id="9" class="fil9" points="572,572 1366,753 1391,526 "/>
     <polygon id="10" class="fil10" points="572,572 1386,572 1361,345 "/>
     <polygon id="11" class="fil11" points="572,572 1366,391 1290,175 "/>
     <polygon id="12" class="fil12" points="572,572 1306,219 1184,25 "/>
     <polygon id="13" class="fil13" points="572,572 1209,64 1047,-97 "/>
     <polygon id="14" class="fil12" points="572,572 1080,-64 886,-186 "/>
     <polygon id="15" class="fil11" points="572,572 925,-161 710,-237 "/>
     <polygon id="16" class="fil10" points="572,572 753,-222 526,-247 "/>
     <polygon id="17" class="fil9" points="572,572 572,-242 345,-216 "/>
     <polygon id="18" class="fil8" points="572,572 391,-222 175,-146 "/>
     <polygon id="19" class="fil7" points="572,572 219,-161 25,-40 "/>
     <polygon id="20" class="fil6" points="572,572 64,-64 -97,97 "/>
     <polygon id="21" class="fil5" points="572,572 -64,64 -186,258 "/>
     <polygon id="22" class="fil4" points="572,572 -161,219 -237,435 "/>
     <polygon id="23" class="fil3" points="572,572 -222,391 -247,618 "/>
     <polygon id="24" class="fil2" points="572,572 -242,572 -216,799 "/>
     <polygon id="25" class="fil1" points="572,572 -222,753 -146,969 "/>
     <polygon id="26" class="fil0" points="572,572 -161,925 -40,1119 "/>
     <polygon id="27" class="fil14" points="572,572 -64,1080 64,1209 "/>
    </g>
   </g>
   <g>
    <g style="clip-path:url(#id1)">
     <polygon class="fil15" points="572,572 1100,-19 875,-160 "/>
     <polygon id="1" class="fil16" points="572,572 913,-136 705,-209 "/>
     <polygon id="2" class="fil17" points="572,572 747,-194 528,-219 "/>
     <polygon id="3" class="fil18" points="572,572 572,-214 353,-189 "/>
     <polygon id="4" class="fil19" points="572,572 397,-194 189,-121 "/>
     <polygon id="5" class="fil20" points="572,572 231,-136 44,-19 "/>
     <polygon id="6" class="fil21" points="572,572 82,-42 -74,114 "/>
     <polygon id="7" class="fil22" points="572,572 -42,82 -160,269 "/>
     <polygon id="8" class="fil23" points="572,572 -136,231 -209,439 "/>
     <polygon id="9" class="fil24" points="572,572 -194,397 -219,616 "/>
     <polygon id="10" class="fil25" points="572,572 -214,572 -189,791 "/>
     <polygon id="11" class="fil26" points="572,572 -194,747 -121,955 "/>
     <polygon id="12" class="fil27" points="572,572 -136,913 -19,1100 "/>
     <polygon id="13" class="fil28" points="572,572 -42,1062 114,1218 "/>
     <polygon id="14" class="fil27" points="572,572 82,1187 269,1304 "/>
     <polygon id="15" class="fil26" points="572,572 231,1280 439,1353 "/>
     <polygon id="16" class="fil25" points="572,572 397,1338 616,1363 "/>
     <polygon id="17" class="fil24" points="572,572 572,1358 791,1333 "/>
     <polygon id="18" class="fil23" points="572,572 747,1338 955,1265 "/>
     <polygon id="19" class="fil22" points="572,572 913,1280 1100,1163 "/>
     <polygon id="20" class="fil21" points="572,572 1062,1187 1218,1030 "/>
     <polygon id="21" class="fil20" points="572,572 1187,1062 1304,875 "/>
     <polygon id="22" class="fil19" points="572,572 1280,913 1353,705 "/>
     <polygon id="23" class="fil18" points="572,572 1338,747 1363,528 "/>
     <polygon id="24" class="fil17" points="572,572 1358,572 1333,353 "/>
     <polygon id="25" class="fil16" points="572,572 1338,397 1265,189 "/>
     <polygon id="26" class="fil15" points="572,572 1280,231 1163,44 "/>
     <polygon id="27" class="fil29" points="572,572 1187,82 1062,-42 "/>
    </g>
   </g>
  </g>
  <g>
   <g>
    <g style="clip-path:url(#id2)">
     <polygon class="fil30" points="231,913 174,862 160,884 "/>
     <polygon id="1" class="fil31" points="231,913 162,880 155,901 "/>
     <polygon id="2" class="fil5" points="231,913 157,897 154,918 "/>
     <polygon id="3" class="fil6" points="231,913 155,913 157,935 "/>
     <polygon id="4" class="fil32" points="231,913 157,930 164,950 "/>
     <polygon id="5" class="fil33" points="231,913 162,946 174,964 "/>
     <polygon id="6" class="fil34" points="231,913 171,961 186,976 "/>
     <polygon id="7" class="fil35" points="231,913 183,973 201,984 "/>
     <polygon id="8" class="fil36" points="231,913 198,982 218,989 "/>
     <polygon id="9" class="fil37" points="231,913 214,987 235,990 "/>
     <polygon id="10" class="fil7" points="231,913 231,989 252,987 "/>
     <polygon id="11" class="fil8" points="231,913 248,987 268,980 "/>
     <polygon id="12" class="fil3" points="231,913 264,982 282,971 "/>
     <polygon id="13" class="fil2" points="231,913 278,973 293,958 "/>
     <polygon id="14" class="fil3" points="231,913 290,961 301,943 "/>
     <polygon id="15" class="fil8" points="231,913 299,946 306,926 "/>
     <polygon id="16" class="fil7" points="231,913 305,930 307,909 "/>
     <polygon id="17" class="fil37" points="231,913 307,913 304,892 "/>
     <polygon id="18" class="fil36" points="231,913 305,897 298,876 "/>
     <polygon id="19" class="fil35" points="231,913 299,880 288,862 "/>
     <polygon id="20" class="fil34" points="231,913 290,866 275,851 "/>
     <polygon id="21" class="fil33" points="231,913 278,854 260,843 "/>
     <polygon id="22" class="fil32" points="231,913 264,845 243,838 "/>
     <polygon id="23" class="fil6" points="231,913 248,839 226,837 "/>
     <polygon id="24" class="fil5" points="231,913 231,837 209,840 "/>
     <polygon id="25" class="fil31" points="231,913 214,839 194,846 "/>
     <polygon id="26" class="fil30" points="231,913 198,845 180,856 "/>
     <polygon id="27" class="fil38" points="231,913 183,854 171,866 "/>
    </g>
   </g>
   <g>
    <g style="clip-path:url(#id3)">
     <polygon class="fil39" points="231,913 278,956 289,938 "/>
     <polygon id="1" class="fil40" points="231,913 287,941 293,924 "/>
     <polygon id="2" class="fil41" points="231,913 292,927 294,910 "/>
     <polygon id="3" class="fil42" points="231,913 294,913 292,896 "/>
     <polygon id="4" class="fil43" points="231,913 292,899 286,883 "/>
     <polygon id="5" class="fil44" points="231,913 287,886 278,871 "/>
     <polygon id="6" class="fil45" points="231,913 280,874 267,862 "/>
     <polygon id="7" class="fil46" points="231,913 270,864 255,855 "/>
     <polygon id="8" class="fil47" points="231,913 258,857 241,851 "/>
     <polygon id="9" class="fil48" points="231,913 245,852 227,850 "/>
     <polygon id="10" class="fil49" points="231,913 231,850 213,852 "/>
     <polygon id="11" class="fil50" points="231,913 217,852 200,858 "/>
     <polygon id="12" class="fil51" points="231,913 203,857 188,866 "/>
     <polygon id="13" class="fil52" points="231,913 191,864 179,877 "/>
     <polygon id="14" class="fil51" points="231,913 181,874 172,889 "/>
     <polygon id="15" class="fil50" points="231,913 174,886 168,903 "/>
     <polygon id="16" class="fil49" points="231,913 169,899 167,917 "/>
     <polygon id="17" class="fil48" points="231,913 168,913 170,931 "/>
     <polygon id="18" class="fil47" points="231,913 169,927 175,944 "/>
     <polygon id="19" class="fil46" points="231,913 174,941 183,956 "/>
     <polygon id="20" class="fil45" points="231,913 181,953 194,965 "/>
     <polygon id="21" class="fil44" points="231,913 191,963 206,972 "/>
     <polygon id="22" class="fil43" points="231,913 203,970 220,976 "/>
     <polygon id="23" class="fil42" points="231,913 217,975 234,977 "/>
     <polygon id="24" class="fil41" points="231,913 231,976 248,975 "/>
     <polygon id="25" class="fil40" points="231,913 245,975 261,969 "/>
     <polygon id="26" class="fil39" points="231,913 258,970 273,961 "/>
     <polygon id="27" class="fil53" points="231,913 270,963 280,953 "/>
    </g>
   </g>
  </g>
 </g>
</svg>
