<?xml version="1.0" encoding="UTF-8"?>
<!DOCTYPE svg PUBLIC "-//W3C//DTD SVG 1.1//EN" "http://www.w3.org/Graphics/SVG/1.1/DTD/svg11.dtd">
<!-- Creator: CorelDRAW X7 -->
<svg xmlns="http://www.w3.org/2000/svg" xml:space="preserve" width="34.36mm" height="27.078mm" version="1.1" style="shape-rendering:geometricPrecision; text-rendering:geometricPrecision; image-rendering:optimizeQuality; fill-rule:evenodd; clip-rule:evenodd"
viewBox="0 0 34360 27078"
 xmlns:xlink="http://www.w3.org/1999/xlink">
 <defs>
  <style type="text/css">
   <![CDATA[
    .str0 {stroke:#4D4D4D;stroke-width:529}
    .fil1 {fill:none}
    .fil3 {fill:none;fill-rule:nonzero}
    .fil0 {fill:#1A1A1A}
    .fil2 {fill:#4D4D4D;fill-rule:nonzero}
   ]]>
  </style>
 </defs>
 <g id="Слой_x0020_1">
  <metadata id="CorelCorpID_0Corel-Layer"/>
  <circle class="fil0" cx="16358" cy="15601" r="10959"/>
  <line class="fil1 str0" x1="4714" y1="15633" x2="3781" y2= "15633" />
  <line class="fil1 str0" x1="8104" y1="7386" x2="7434" y2= "6724" />
  <line class="fil1 str0" x1="16327" y1="3956" x2="16327" y2= "3015" />
  <line class="fil1 str0" x1="24566" y1="7338" x2="25236" y2= "6676" />
  <line class="fil1 str0" x1="28003" y1="15561" x2="28944" y2= "15561" />
  <path class="fil2" d="M1372 16071c0,112 -16,216 -56,311 -32,96 -80,176 -143,248 -72,64 -152,119 -248,159 -95,40 -199,64 -319,64 -111,0 -223,-16 -327,-40 -111,-24 -199,-56 -279,-96l0 -327 24 0c24,24 56,40 96,64 48,24 95,40 151,64 64,24 120,40 168,48 48,16 103,24 167,24 64,0 128,-16 184,-40 55,-16 111,-56 151,-104 40,-48 64,-95 88,-159 16,-64 32,-136 32,-216 0,-79 -16,-151 -32,-199 -24,-56 -56,-96 -104,-136 -40,-39 -96,-63 -159,-79 -64,-16 -136,-24 -216,-24 -87,0 -167,8 -255,16 -80,16 -151,32 -199,40l0 -1189 1260 0 0 271 -965 0 0 615c40,-8 80,-8 111,-8 40,0 72,-8 96,-8 120,0 223,16 303,31 80,24 160,56 232,112 79,64 135,136 175,223 40,80 64,200 64,335l0 0z"/>
  <path id="_1" class="fil2" d="M3143 15649c0,414 -64,717 -184,917 -119,191 -303,287 -558,287 -247,0 -439,-96 -558,-295 -120,-200 -176,-503 -176,-901 0,-415 64,-726 183,-918 120,-191 304,-287 551,-287 255,0 446,104 558,303 120,200 183,495 183,894l1 0zm-399 702c32,-72 48,-168 64,-288 16,-119 16,-255 16,-414 0,-152 0,-295 -16,-407 -16,-120 -32,-215 -64,-295 -32,-72 -72,-136 -128,-176 -56,-40 -127,-63 -215,-63 -80,0 -152,23 -208,63 -55,40 -103,104 -135,184 -24,80 -48,175 -64,295 -8,119 -16,255 -16,407 0,159 8,295 16,398 8,112 32,208 64,296 32,79 72,135 127,183 56,40 128,64 216,64 87,0 159,-24 215,-64 56,-40 96,-104 128,-183l0 0z"/>
  <path class="fil2" d="M3725 6181l-1125 0 0 -231 415 0 0 -1547 -415 0 0 -208c152,0 271,-24 343,-71 80,-40 120,-128 128,-256l239 0 0 2082 415 0 0 231z"/>
  <path id="_1_0" class="fil2" d="M5583 5033c0,407 -64,718 -183,909 -120,191 -303,287 -559,287 -247,0 -438,-96 -558,-295 -119,-199 -175,-494 -175,-901 0,-415 63,-718 183,-909 120,-200 303,-296 550,-296 256,0 447,104 567,304 111,199 175,494 175,901zm-399 702c32,-80 56,-176 64,-295 16,-112 24,-248 24,-407 0,-160 -8,-295 -24,-415 -8,-120 -32,-215 -64,-287 -32,-80 -71,-144 -127,-183 -56,-40 -128,-56 -216,-56 -79,0 -151,16 -207,56 -56,39 -96,103 -128,183 -31,80 -55,175 -63,295 -16,120 -24,255 -24,407 0,159 8,295 16,407 8,103 32,199 64,287 31,80 71,143 127,183 56,40 128,64 215,64 88,0 160,-24 216,-64 56,-40 95,-96 127,-175z"/>
  <path id="_2" class="fil2" d="M7314 5033c0,407 -64,718 -183,909 -120,191 -304,287 -559,287 -247,0 -438,-96 -558,-295 -120,-199 -176,-494 -176,-901 0,-415 64,-718 184,-909 119,-200 303,-296 550,-296 255,0 447,104 558,304 120,199 184,494 184,901l0 0zm-399 702c32,-80 56,-176 64,-295 16,-112 16,-248 16,-407 0,-160 0,-295 -16,-415 -8,-120 -32,-215 -64,-287 -32,-80 -72,-144 -127,-183 -56,-40 -128,-56 -216,-56 -80,0 -151,16 -207,56 -56,39 -104,103 -136,183 -24,80 -48,175 -64,295 -8,120 -16,255 -16,407 0,159 8,295 16,407 8,103 32,199 64,287 32,80 72,143 128,183 56,40 127,64 215,64 88,0 160,-24 215,-64 56,-40 96,-96 128,-175l0 0z"/>
  <path class="fil2" d="M15090 2353l-1124 0 0 -239 422 0 0 -1540 -422 0 0 -215c159,0 271,-24 351,-64 71,-48 119,-135 127,-255l240 0 0 2074 406 0 0 239 0 0z"/>
  <path id="_1_1" class="fil2" d="M16917 1619c0,112 -24,215 -56,311 -40,96 -88,176 -151,240 -64,71 -144,127 -240,167 -95,40 -207,64 -327,64 -111,0 -215,-16 -327,-40 -103,-24 -199,-56 -279,-96l0 -327 24 0c24,16 56,40 104,64 48,24 95,40 143,64 64,24 120,40 168,48 56,16 111,16 175,16 64,0 120,-8 176,-32 64,-24 111,-56 151,-104 40,-48 72,-104 88,-159 24,-64 32,-136 32,-216 0,-79 -8,-151 -32,-199 -24,-56 -56,-96 -96,-136 -48,-40 -95,-63 -167,-79 -64,-16 -136,-24 -216,-24 -79,0 -167,8 -247,16 -88,16 -151,32 -207,40l0 -1189 1268 0 0 271 -965 0 0 614c32,-8 72,-8 112,-8 31,-8 63,-8 95,-8 120,0 216,8 295,32 88,16 160,56 240,112 71,64 135,136 175,215 40,88 64,200 64,343l0 0z"/>
  <path id="_2_2" class="fil2" d="M18680 1196c0,415 -56,718 -176,910 -120,199 -311,295 -558,295 -255,0 -439,-104 -559,-295 -119,-200 -183,-503 -183,-902 0,-422 64,-725 183,-917 120,-191 304,-287 559,-287 255,0 438,104 558,295 120,200 176,503 176,901zm-391 702c24,-71 48,-167 63,-287 8,-119 16,-255 16,-414 0,-160 -8,-296 -16,-407 -16,-120 -39,-216 -71,-295 -24,-80 -72,-136 -128,-176 -48,-40 -120,-64 -207,-64 -88,0 -160,24 -216,64 -55,40 -95,104 -127,184 -32,71 -56,175 -64,295 -8,119 -16,255 -16,406 0,160 0,296 16,399 8,112 32,208 64,295 24,80 72,136 127,184 56,40 128,64 216,64 87,0 151,-24 207,-64 56,-40 104,-104 136,-184z"/>
  <path class="fil2" d="M26974 6189l-1419 0 0 -327c103,-95 199,-183 295,-279 87,-88 175,-175 263,-271 175,-199 295,-351 359,-463 64,-119 96,-239 96,-367 0,-63 -8,-119 -32,-167 -16,-48 -48,-88 -80,-120 -32,-32 -80,-55 -128,-63 -48,-16 -95,-24 -151,-24 -56,0 -112,0 -168,16 -56,16 -111,32 -159,55 -48,16 -88,40 -128,64 -40,24 -72,40 -96,64l-23 0 0 -327c63,-32 159,-64 271,-96 111,-32 223,-48 319,-48 215,0 383,56 510,176 120,112 184,263 184,463 0,87 -16,167 -32,247 -24,72 -56,143 -88,207 -40,72 -88,136 -144,200 -47,71 -103,135 -167,199 -96,104 -207,215 -327,327 -112,112 -207,199 -279,271l1124 0 0 263 0 0z"/>
  <path id="_1_3" class="fil2" d="M28721 5033c0,415 -56,718 -175,917 -120,191 -312,287 -559,287 -255,0 -438,-96 -558,-295 -120,-199 -176,-494 -176,-901 0,-415 56,-718 176,-917 120,-192 311,-288 558,-288 255,0 439,104 559,304 119,199 175,494 175,893zm-391 702c24,-72 48,-168 64,-287 8,-112 16,-256 16,-415 0,-152 -8,-295 -16,-407 -16,-120 -40,-215 -64,-295 -32,-72 -80,-136 -127,-176 -56,-39 -128,-63 -216,-63 -87,0 -159,24 -215,63 -48,40 -96,104 -128,184 -31,80 -55,175 -63,295 -8,120 -16,255 -16,407 0,159 8,295 16,399 8,111 32,207 63,295 32,79 72,135 128,183 56,40 128,64 215,64 88,0 160,-24 216,-64 48,-40 95,-96 127,-183z"/>
  <path id="_2_4" class="fil2" d="M30452 5033c0,415 -56,718 -176,917 -119,191 -311,287 -558,287 -255,0 -439,-96 -558,-295 -120,-199 -176,-494 -176,-901 0,-415 56,-718 176,-917 119,-192 303,-288 558,-288 255,0 439,104 558,304 120,199 176,494 176,893zm-391 702c24,-72 48,-168 64,-287 8,-112 16,-256 16,-415 0,-152 -8,-295 -16,-407 -16,-120 -40,-215 -72,-295 -24,-72 -72,-136 -128,-176 -47,-39 -119,-63 -207,-63 -88,0 -159,24 -215,63 -56,40 -96,104 -128,184 -32,80 -56,175 -64,295 -8,120 -16,255 -16,407 0,159 0,295 16,399 8,111 32,207 64,295 24,79 72,135 128,183 56,40 127,64 215,64 88,0 152,-24 207,-64 56,-40 104,-96 136,-183z"/>
  <path class="fil2" d="M30883 16805l-1420 0 0 -327c104,-96 199,-191 295,-279 88,-88 175,-176 263,-271 176,-200 295,-351 359,-471 64,-112 96,-231 96,-359 0,-64 -8,-119 -32,-167 -16,-48 -48,-88 -80,-120 -40,-32 -80,-56 -128,-72 -47,-8 -95,-16 -151,-16 -56,0 -112,0 -168,16 -55,16 -111,32 -167,56 -40,16 -80,32 -120,64 -40,24 -71,40 -103,64l-16 0 0 -327c63,-32 151,-64 271,-96 112,-32 223,-48 319,-48 215,0 383,56 510,176 120,111 176,263 176,462 0,88 -8,168 -32,248 -16,71 -48,143 -80,207 -40,72 -88,136 -143,199 -48,72 -112,136 -168,200 -96,103 -207,215 -327,327 -120,111 -215,199 -279,271l1124 0 0 263 1 0z"/>
  <path id="_1_5" class="fil2" d="M32589 16071c0,112 -16,216 -48,311 -39,96 -87,176 -151,248 -64,64 -144,119 -239,159 -96,40 -208,64 -327,64 -112,0 -216,-16 -327,-40 -104,-24 -200,-56 -280,-96l0 -327 24 0c24,24 56,40 104,64 40,24 96,40 144,64 63,24 119,40 167,48 56,16 112,24 176,24 55,0 119,-16 175,-40 64,-16 112,-56 152,-104 40,-48 71,-95 87,-159 24,-64 32,-136 32,-216 0,-79 -8,-151 -32,-199 -24,-56 -55,-96 -95,-136 -48,-39 -104,-63 -168,-79 -64,-16 -135,-24 -215,-24 -80,0 -168,8 -247,16 -88,16 -152,32 -208,40l0 -1189 1268 0 0 271 -965 0 0 615c32,-8 72,-8 104,-8 40,0 72,-8 104,-8 119,0 215,16 295,31 87,24 159,56 239,112 72,64 136,136 176,223 39,80 55,200 55,335l0 0z"/>
  <path id="_2_6" class="fil2" d="M34360 15649c0,414 -56,717 -175,917 -128,191 -312,287 -559,287 -255,0 -438,-96 -558,-295 -120,-200 -183,-503 -183,-901 0,-415 63,-726 183,-918 120,-191 303,-287 558,-287 255,0 439,104 559,303 119,200 175,495 175,894zm-399 702c32,-72 56,-168 72,-288 8,-119 16,-255 16,-414 0,-152 -8,-295 -16,-407 -16,-120 -40,-215 -72,-295 -32,-72 -72,-136 -127,-176 -48,-40 -120,-63 -208,-63 -87,0 -159,23 -215,63 -56,40 -96,104 -128,184 -32,80 -55,175 -63,295 -16,119 -16,255 -16,407 0,159 0,295 16,398 8,112 23,208 63,296 24,79 72,135 128,183 56,40 128,64 215,64 88,0 152,-24 208,-64 55,-40 103,-104 127,-183z"/>
  <line class="fil3 str0" x1="8151" y1="23856" x2="7489" y2= "24526" />
  <line class="fil3 str0" x1="24622" y1="23808" x2="25284" y2= "24470" />
  <path class="fil2" d="M7226 25874c0,414 -56,717 -175,909 -120,191 -311,295 -559,295 -255,0 -438,-104 -558,-303 -120,-192 -183,-495 -183,-901 0,-415 63,-718 183,-910 120,-191 303,-287 558,-287 256,0 439,96 559,295 119,200 175,503 175,902zm-391 702c24,-80 48,-176 64,-288 8,-119 16,-255 16,-414 0,-160 -8,-295 -16,-415 -16,-112 -40,-207 -72,-287 -24,-80 -71,-136 -127,-176 -48,-47 -120,-63 -208,-63 -87,0 -159,16 -215,63 -56,40 -96,96 -128,176 -31,80 -55,183 -63,303 -8,120 -16,247 -16,399 0,159 0,295 16,407 8,103 32,207 63,287 24,80 72,143 128,183 56,48 128,64 215,64 88,0 152,-16 208,-56 56,-40 103,-104 135,-183l0 0z"/>
  <path class="fil2" d="M26576 24941c-56,0 -112,8 -168,23 -56,8 -112,32 -167,48 -48,24 -88,48 -128,72 -32,16 -72,40 -96,64l-16 0 0 -327c64,-40 152,-72 271,-104 112,-24 224,-40 327,-40 104,0 200,8 272,32 79,16 151,48 215,96 64,48 120,112 151,175 32,72 56,160 56,248 0,127 -48,239 -127,335 -88,95 -184,159 -303,183l0 24c47,8 103,24 159,48 56,24 104,56 152,96 47,48 87,103 119,175 24,72 40,152 40,255 0,104 -16,200 -48,287 -40,88 -88,160 -151,232 -72,72 -152,119 -248,159 -95,32 -199,56 -319,56 -119,0 -231,-16 -351,-48 -111,-24 -207,-56 -279,-96l0 -327 16 0c64,48 152,88 263,136 112,40 224,64 327,64 64,0 128,-8 192,-32 64,-16 119,-48 159,-96 40,-48 72,-95 96,-151 24,-56 32,-120 32,-208 0,-79 -16,-151 -40,-207 -24,-56 -56,-96 -96,-128 -48,-32 -95,-48 -159,-63 -56,-8 -120,-16 -192,-16l-135 0 0 -256 104 0c143,0 255,-32 343,-103 87,-64 127,-160 127,-287 0,-56 -8,-104 -32,-144 -24,-48 -48,-80 -87,-104 -40,-24 -80,-48 -128,-56 -48,-8 -96,-16 -152,-16l1 1z"/>
  <path id="_1_7" class="fil2" d="M29120 25874c0,414 -64,717 -184,909 -119,191 -303,295 -550,295 -255,0 -446,-104 -566,-303 -112,-192 -176,-495 -176,-901 0,-415 64,-718 184,-910 119,-191 303,-287 558,-287 247,0 439,96 558,295 112,200 176,503 176,902zm-399 702c32,-80 56,-176 64,-288 16,-119 24,-255 24,-414 0,-160 -8,-295 -24,-415 -8,-112 -32,-207 -64,-287 -32,-80 -72,-136 -128,-176 -55,-47 -127,-63 -207,-63 -88,0 -159,16 -215,63 -56,40 -96,96 -128,176 -32,80 -56,183 -64,303 -16,120 -24,247 -24,399 0,159 8,295 16,407 16,103 32,207 64,287 32,80 72,143 128,183 56,48 127,64 223,64 80,0 152,-16 208,-56 55,-40 95,-104 127,-183l0 0z"/>
  <path id="_2_8" class="fil2" d="M30851 25874c0,414 -64,717 -184,909 -119,191 -303,295 -558,295 -247,0 -439,-104 -558,-303 -120,-192 -176,-495 -176,-901 0,-415 64,-718 184,-910 119,-191 303,-287 550,-287 255,0 446,96 566,295 112,200 176,503 176,902zm-399 702c32,-80 56,-176 64,-288 16,-119 16,-255 16,-414 0,-160 0,-295 -16,-415 -8,-112 -32,-207 -64,-287 -32,-80 -72,-136 -128,-176 -56,-47 -127,-63 -215,-63 -80,0 -152,16 -207,63 -56,40 -104,96 -136,176 -24,80 -48,183 -64,303 -8,120 -16,247 -16,399 0,159 8,295 16,407 8,103 32,207 64,287 32,80 72,143 128,183 55,48 127,64 215,64 88,0 159,-16 215,-56 56,-40 96,-104 128,-183l0 0z"/>
 </g>
</svg>
