<?xml version="1.0" encoding="UTF-8"?>
<!DOCTYPE svg PUBLIC "-//W3C//DTD SVG 1.1//EN" "http://www.w3.org/Graphics/SVG/1.1/DTD/svg11.dtd">
<!-- Creator: CorelDRAW X7 -->
<svg xmlns="http://www.w3.org/2000/svg" xml:space="preserve" width="34.3658mm" height="27.078mm" version="1.1" style="shape-rendering:geometricPrecision; text-rendering:geometricPrecision; image-rendering:optimizeQuality; fill-rule:evenodd; clip-rule:evenodd"
viewBox="0 0 4308 3395"
 xmlns:xlink="http://www.w3.org/1999/xlink">
 <defs>
  <style type="text/css">
   <![CDATA[
    .str0 {stroke:gray;stroke-width:66.329}
    .fil1 {fill:none}
    .fil0 {fill:#1A1A1A}
    .fil2 {fill:gray;fill-rule:nonzero}
   ]]>
  </style>
 </defs>
 <g id="Слой_x0020_1">
  <metadata id="CorelCorpID_0Corel-Layer"/>
  <circle class="fil0" cx="2051" cy="1956" r="1374"/>
  <line class="fil1 str0" x1="591" y1="1960" x2="474" y2= "1960" />
  <line class="fil1 str0" x1="1016" y1="926" x2="932" y2= "843" />
  <line class="fil1 str0" x1="2047" y1="496" x2="2047" y2= "378" />
  <line class="fil1 str0" x1="3080" y1="920" x2="3164" y2= "837" />
  <line class="fil1 str0" x1="3511" y1="1951" x2="3629" y2= "1951" />
  <path class="fil2" d="M172 2015c0,14 -2,27 -7,39 -4,12 -10,22 -18,31 -9,8 -19,15 -31,20 -12,5 -25,8 -40,8 -14,0 -28,-2 -41,-5 -14,-3 -25,-7 -35,-12l0 -41 3 0c3,3 7,5 12,8 6,3 12,5 19,8 8,3 15,5 21,6 6,2 13,3 21,3 8,0 16,-2 23,-5 7,-2 14,-7 19,-13 5,-6 8,-12 11,-20 2,-8 4,-17 4,-27 0,-10 -2,-19 -4,-25 -3,-7 -7,-12 -13,-17 -5,-5 -12,-8 -20,-10 -8,-2 -17,-3 -27,-3 -11,0 -21,1 -32,2 -10,2 -19,4 -25,5l0 -149 158 0 0 34 -121 0 0 77c5,-1 10,-1 14,-1 5,0 9,-1 12,-1 15,0 28,2 38,4 10,3 20,7 29,14 10,8 17,17 22,28 5,10 8,25 8,42z"/>
  <path id="1" class="fil2" d="M394 1962c0,52 -8,90 -23,115 -15,24 -38,36 -70,36 -31,0 -55,-12 -70,-37 -15,-25 -22,-63 -22,-113 0,-52 8,-91 23,-115 15,-24 38,-36 69,-36 32,0 56,13 70,38 15,25 23,62 23,112zm-50 88c4,-9 6,-21 8,-36 2,-15 2,-32 2,-52 0,-19 0,-37 -2,-51 -2,-15 -4,-27 -8,-37 -4,-9 -9,-17 -16,-22 -7,-5 -16,-8 -27,-8 -10,0 -19,3 -26,8 -7,5 -13,13 -17,23 -3,10 -6,22 -8,37 -1,15 -2,32 -2,51 0,20 1,37 2,50 1,14 4,26 8,37 4,10 9,17 16,23 7,5 16,8 27,8 11,0 20,-3 27,-8 7,-5 12,-13 16,-23z"/>
  <path class="fil2" d="M467 775l-141 0 0 -29 52 0 0 -194 -52 0 0 -26c19,0 34,-3 43,-9 10,-5 15,-16 16,-32l30 0 0 261 52 0 0 29z"/>
  <path id="1" class="fil2" d="M700 631c0,51 -8,90 -23,114 -15,24 -38,36 -70,36 -31,0 -55,-12 -70,-37 -15,-25 -22,-62 -22,-113 0,-52 8,-90 23,-114 15,-25 38,-37 69,-37 32,0 56,13 71,38 14,25 22,62 22,113zm-50 88c4,-10 7,-22 8,-37 2,-14 3,-31 3,-51 0,-20 -1,-37 -3,-52 -1,-15 -4,-27 -8,-36 -4,-10 -9,-18 -16,-23 -7,-5 -16,-7 -27,-7 -10,0 -19,2 -26,7 -7,5 -12,13 -16,23 -4,10 -7,22 -8,37 -2,15 -3,32 -3,51 0,20 1,37 2,51 1,13 4,25 8,36 4,10 9,18 16,23 7,5 16,8 27,8 11,0 20,-3 27,-8 7,-5 12,-12 16,-22z"/>
  <path id="2" class="fil2" d="M917 631c0,51 -8,90 -23,114 -15,24 -38,36 -70,36 -31,0 -55,-12 -70,-37 -15,-25 -22,-62 -22,-113 0,-52 8,-90 23,-114 15,-25 38,-37 69,-37 32,0 56,13 70,38 15,25 23,62 23,113zm-50 88c4,-10 7,-22 8,-37 2,-14 2,-31 2,-51 0,-20 0,-37 -2,-52 -1,-15 -4,-27 -8,-36 -4,-10 -9,-18 -16,-23 -7,-5 -16,-7 -27,-7 -10,0 -19,2 -26,7 -7,5 -13,13 -17,23 -3,10 -6,22 -8,37 -1,15 -2,32 -2,51 0,20 1,37 2,51 1,13 4,25 8,36 4,10 9,18 16,23 7,5 16,8 27,8 11,0 20,-3 27,-8 7,-5 12,-12 16,-22z"/>
  <path class="fil2" d="M1892 295l-141 0 0 -30 53 0 0 -193 -53 0 0 -27c20,0 34,-3 44,-8 9,-6 15,-17 16,-32l30 0 0 260 51 0 0 30z"/>
  <path id="1" class="fil2" d="M2121 203c0,14 -3,27 -7,39 -5,12 -11,22 -19,30 -8,9 -18,16 -30,21 -12,5 -26,8 -41,8 -14,0 -27,-2 -41,-5 -13,-3 -25,-7 -35,-12l0 -41 3 0c3,2 7,5 13,8 6,3 12,5 18,8 8,3 15,5 21,6 7,2 14,2 22,2 8,0 15,-1 22,-4 8,-3 14,-7 19,-13 5,-6 9,-13 11,-20 3,-8 4,-17 4,-27 0,-10 -1,-19 -4,-25 -3,-7 -7,-12 -12,-17 -6,-5 -12,-8 -21,-10 -8,-2 -17,-3 -27,-3 -10,0 -21,1 -31,2 -11,2 -19,4 -26,5l0 -149 159 0 0 34 -121 0 0 77c4,-1 9,-1 14,-1 4,-1 8,-1 12,-1 15,0 27,1 37,4 11,2 20,7 30,14 9,8 17,17 22,27 5,11 8,25 8,43z"/>
  <path id="2" class="fil2" d="M2342 150c0,52 -7,90 -22,114 -15,25 -39,37 -70,37 -32,0 -55,-13 -70,-37 -15,-25 -23,-63 -23,-113 0,-53 8,-91 23,-115 15,-24 38,-36 70,-36 32,0 55,13 70,37 15,25 22,63 22,113zm-49 88c3,-9 6,-21 8,-36 1,-15 2,-32 2,-52 0,-20 -1,-37 -2,-51 -2,-15 -5,-27 -9,-37 -3,-10 -9,-17 -16,-22 -6,-5 -15,-8 -26,-8 -11,0 -20,3 -27,8 -7,5 -12,13 -16,23 -4,9 -7,22 -8,37 -1,15 -2,32 -2,51 0,20 0,37 2,50 1,14 4,26 8,37 3,10 9,17 16,23 7,5 16,8 27,8 11,0 19,-3 26,-8 7,-5 13,-13 17,-23z"/>
  <path class="fil2" d="M3382 776l-178 0 0 -41c13,-12 25,-23 37,-35 11,-11 22,-22 33,-34 22,-25 37,-44 45,-58 8,-15 12,-30 12,-46 0,-8 -1,-15 -4,-21 -2,-6 -6,-11 -10,-15 -4,-4 -10,-7 -16,-8 -6,-2 -12,-3 -19,-3 -7,0 -14,0 -21,2 -7,2 -14,4 -20,7 -6,2 -11,5 -16,8 -5,3 -9,5 -12,8l-3 0 0 -41c8,-4 20,-8 34,-12 14,-4 28,-6 40,-6 27,0 48,7 64,22 15,14 23,33 23,58 0,11 -2,21 -4,31 -3,9 -7,18 -11,26 -5,9 -11,17 -18,25 -6,9 -13,17 -21,25 -12,13 -26,27 -41,41 -14,14 -26,25 -35,34l141 0 0 33z"/>
  <path id="1" class="fil2" d="M3601 631c0,52 -7,90 -22,115 -15,24 -39,36 -70,36 -32,0 -55,-12 -70,-37 -15,-25 -22,-62 -22,-113 0,-52 7,-90 22,-115 15,-24 39,-36 70,-36 32,0 55,13 70,38 15,25 22,62 22,112zm-49 88c3,-9 6,-21 8,-36 1,-14 2,-32 2,-52 0,-19 -1,-37 -2,-51 -2,-15 -5,-27 -8,-37 -4,-9 -10,-17 -16,-22 -7,-5 -16,-8 -27,-8 -11,0 -20,3 -27,8 -6,5 -12,13 -16,23 -4,10 -7,22 -8,37 -1,15 -2,32 -2,51 0,20 1,37 2,50 1,14 4,26 8,37 4,10 9,17 16,23 7,5 16,8 27,8 11,0 20,-3 27,-8 6,-5 12,-12 16,-23z"/>
  <path id="2" class="fil2" d="M3818 631c0,52 -7,90 -22,115 -15,24 -39,36 -70,36 -32,0 -55,-12 -70,-37 -15,-25 -22,-62 -22,-113 0,-52 7,-90 22,-115 15,-24 38,-36 70,-36 32,0 55,13 70,38 15,25 22,62 22,112zm-49 88c3,-9 6,-21 8,-36 1,-14 2,-32 2,-52 0,-19 -1,-37 -2,-51 -2,-15 -5,-27 -9,-37 -3,-9 -9,-17 -16,-22 -6,-5 -15,-8 -26,-8 -11,0 -20,3 -27,8 -7,5 -12,13 -16,23 -4,10 -7,22 -8,37 -1,15 -2,32 -2,51 0,20 0,37 2,50 1,14 4,26 8,37 3,10 9,17 16,23 7,5 16,8 27,8 11,0 19,-3 26,-8 7,-5 13,-12 17,-23z"/>
  <path class="fil2" d="M3872 2107l-178 0 0 -41c13,-12 25,-24 37,-35 11,-11 22,-22 33,-34 22,-25 37,-44 45,-59 8,-14 12,-29 12,-45 0,-8 -1,-15 -4,-21 -2,-6 -6,-11 -10,-15 -5,-4 -10,-7 -16,-9 -6,-1 -12,-2 -19,-2 -7,0 -14,0 -21,2 -7,2 -14,4 -21,7 -5,2 -10,4 -15,8 -5,3 -9,5 -13,8l-2 0 0 -41c8,-4 19,-8 34,-12 14,-4 28,-6 40,-6 27,0 48,7 64,22 15,14 22,33 22,58 0,11 -1,21 -4,31 -2,9 -6,18 -10,26 -5,9 -11,17 -18,25 -6,9 -14,17 -21,25 -12,13 -26,27 -41,41 -15,14 -27,25 -35,34l141 0 0 33z"/>
  <path id="1" class="fil2" d="M4086 2015c0,14 -2,27 -6,39 -5,12 -11,22 -19,31 -8,8 -18,15 -30,20 -12,5 -26,8 -41,8 -14,0 -27,-2 -41,-5 -13,-3 -25,-7 -35,-12l0 -41 3 0c3,3 7,5 13,8 5,3 12,5 18,8 8,3 15,5 21,6 7,2 14,3 22,3 7,0 15,-2 22,-5 8,-2 14,-7 19,-13 5,-6 9,-12 11,-20 3,-8 4,-17 4,-27 0,-10 -1,-19 -4,-25 -3,-7 -7,-12 -12,-17 -6,-5 -13,-8 -21,-10 -8,-2 -17,-3 -27,-3 -10,0 -21,1 -31,2 -11,2 -19,4 -26,5l0 -149 159 0 0 34 -121 0 0 77c4,-1 9,-1 13,-1 5,0 9,-1 13,-1 15,0 27,2 37,4 11,3 20,7 30,14 9,8 17,17 22,28 5,10 7,25 7,42z"/>
  <path id="2" class="fil2" d="M4308 1962c0,52 -7,90 -22,115 -16,24 -39,36 -70,36 -32,0 -55,-12 -70,-37 -15,-25 -23,-63 -23,-113 0,-52 8,-91 23,-115 15,-24 38,-36 70,-36 32,0 55,13 70,38 15,25 22,62 22,112zm-50 88c4,-9 7,-21 9,-36 1,-15 2,-32 2,-52 0,-19 -1,-37 -2,-51 -2,-15 -5,-27 -9,-37 -4,-9 -9,-17 -16,-22 -6,-5 -15,-8 -26,-8 -11,0 -20,3 -27,8 -7,5 -12,13 -16,23 -4,10 -7,22 -8,37 -2,15 -2,32 -2,51 0,20 0,37 2,50 1,14 3,26 8,37 3,10 9,17 16,23 7,5 16,8 27,8 11,0 19,-3 26,-8 7,-5 13,-13 16,-23z"/>
  <line class="fil1 str0" x1="1022" y1="2991" x2="939" y2= "3075" />
  <line class="fil1 str0" x1="3087" y1="2985" x2="3170" y2= "3068" />
  <path class="fil2" d="M906 3244c0,52 -7,90 -22,114 -15,24 -39,37 -70,37 -32,0 -55,-13 -70,-38 -15,-24 -23,-62 -23,-113 0,-52 8,-90 23,-114 15,-24 38,-36 70,-36 32,0 55,12 70,37 15,25 22,63 22,113zm-49 88c3,-10 6,-22 8,-36 1,-15 2,-32 2,-52 0,-20 -1,-37 -2,-52 -2,-14 -5,-26 -9,-36 -3,-10 -9,-17 -16,-22 -6,-6 -15,-8 -26,-8 -11,0 -20,2 -27,8 -7,5 -12,12 -16,22 -4,10 -7,23 -8,38 -1,15 -2,31 -2,50 0,20 0,37 2,51 1,13 4,26 8,36 3,10 9,18 16,23 7,6 16,8 27,8 11,0 19,-2 26,-7 7,-5 13,-13 17,-23z"/>
  <path class="fil2" d="M3332 3127c-7,0 -14,1 -21,3 -7,1 -14,4 -21,6 -6,3 -11,6 -16,9 -4,2 -9,5 -12,8l-2 0 0 -41c8,-5 19,-9 34,-13 14,-3 28,-5 41,-5 13,0 25,1 34,4 10,2 19,6 27,12 8,6 15,14 19,22 4,9 7,20 7,31 0,16 -6,30 -16,42 -11,12 -23,20 -38,23l0 3c6,1 13,3 20,6 7,3 13,7 19,12 6,6 11,13 15,22 3,9 5,19 5,32 0,13 -2,25 -6,36 -5,11 -11,20 -19,29 -9,9 -19,15 -31,20 -12,4 -25,7 -40,7 -15,0 -29,-2 -44,-6 -14,-3 -26,-7 -35,-12l0 -41 2 0c8,6 19,11 33,17 14,5 28,8 41,8 8,0 16,-1 24,-4 8,-2 15,-6 20,-12 5,-6 9,-12 12,-19 3,-7 4,-15 4,-26 0,-10 -2,-19 -5,-26 -3,-7 -7,-12 -12,-16 -6,-4 -12,-6 -20,-8 -7,-1 -15,-2 -24,-2l-17 0 0 -32 13 0c18,0 32,-4 43,-13 11,-8 16,-20 16,-36 0,-7 -1,-13 -4,-18 -3,-6 -6,-10 -11,-13 -5,-3 -10,-6 -16,-7 -6,-1 -12,-2 -19,-2z"/>
  <path id="1" class="fil2" d="M3651 3244c0,52 -8,90 -23,114 -15,24 -38,37 -69,37 -32,0 -56,-13 -71,-38 -14,-24 -22,-62 -22,-113 0,-52 8,-90 23,-114 15,-24 38,-36 70,-36 31,0 55,12 70,37 14,25 22,63 22,113zm-50 88c4,-10 7,-22 8,-36 2,-15 3,-32 3,-52 0,-20 -1,-37 -3,-52 -1,-14 -4,-26 -8,-36 -4,-10 -9,-17 -16,-22 -7,-6 -16,-8 -26,-8 -11,0 -20,2 -27,8 -7,5 -12,12 -16,22 -4,10 -7,23 -8,38 -2,15 -3,31 -3,50 0,20 1,37 2,51 2,13 4,26 8,36 4,10 9,18 16,23 7,6 16,8 28,8 10,0 19,-2 26,-7 7,-5 12,-13 16,-23z"/>
  <path id="2" class="fil2" d="M3868 3244c0,52 -8,90 -23,114 -15,24 -38,37 -70,37 -31,0 -55,-13 -70,-38 -15,-24 -22,-62 -22,-113 0,-52 8,-90 23,-114 15,-24 38,-36 69,-36 32,0 56,12 71,37 14,25 22,63 22,113zm-50 88c4,-10 7,-22 8,-36 2,-15 2,-32 2,-52 0,-20 0,-37 -2,-52 -1,-14 -4,-26 -8,-36 -4,-10 -9,-17 -16,-22 -7,-6 -16,-8 -27,-8 -10,0 -19,2 -26,8 -7,5 -13,12 -17,22 -3,10 -6,23 -8,38 -1,15 -2,31 -2,50 0,20 1,37 2,51 1,13 4,26 8,36 4,10 9,18 16,23 7,6 16,8 27,8 11,0 20,-2 27,-7 7,-5 12,-13 16,-23z"/>
 </g>
</svg>
