<?xml version="1.0" encoding="UTF-8"?>
<!DOCTYPE svg PUBLIC "-//W3C//DTD SVG 1.1//EN" "http://www.w3.org/Graphics/SVG/1.1/DTD/svg11.dtd">
<!-- Creator: CorelDRAW X7 -->
<svg xmlns="http://www.w3.org/2000/svg" xml:space="preserve" width="54.063mm" height="49.741mm" version="1.1" style="shape-rendering:geometricPrecision; text-rendering:geometricPrecision; image-rendering:optimizeQuality; fill-rule:evenodd; clip-rule:evenodd"
viewBox="0 0 54063 49741"
 xmlns:xlink="http://www.w3.org/1999/xlink">
 <defs>
  <style type="text/css">
   <![CDATA[
    .str0 {stroke:red;stroke-width:2645.8}
    .str2 {stroke:#E6E6E6;stroke-width:529.1}
    .str1 {stroke:#4D4D4D;stroke-width:529.1;stroke-linecap:round}
    .fil1 {fill:none}
    .fil0 {fill:#1A1A1A}
    .fil2 {fill:gray;fill-rule:nonzero}
   ]]>
  </style>
 </defs>
 <g id="Слой_x0020_1">
  <metadata id="CorelCorpID_0Corel-Layer"/>
  <path class="fil0" d="M27032 0c-14930,0 -27032,12102 -27032,27032 0,7840 3338,14899 8668,19834 391,360 787,708 1195,1044 1453,1195 3068,1795 4929,1831l0 -9845c0,-1116 912,-2029 2029,-2029l20422 0c1116,0 2029,913 2029,2029l0 9845c1861,-36 3476,-636 4928,-1831 607,-498 1195,-1026 1753,-1579 5007,-4904 8110,-11736 8110,-19299 0,-14930 -12102,-27032 -27031,-27032l0 0z"/>
  <path class="fil1 str0" d="M46698 38389c1993,-3457 3043,-7371 3043,-11357 0,-12541 -10169,-22710 -22709,-22710 -12541,0 -22710,10169 -22710,22710 0,3986 1051,7900 3044,11357"/>
  <g id="_934719069280">
   <path class="fil1 str1" d="M44700 37225c1789,-3098 2732,-6616 2732,-10193 0,-11256 -9131,-20381 -20386,-20381 -11256,0 -20381,9125 -20381,20381 0,3577 943,7095 2732,10193"/>
   <line class="fil1 str2" x1="27046" y1="6483" x2="27046" y2= "3020" />
   <line class="fil1 str2" x1="37323" y1="9233" x2="39022" y2= "6297" />
   <line class="fil1 str2" x1="44845" y1="16754" x2="47834" y2= "15032" />
   <line class="fil1 str2" x1="47594" y1="27032" x2="50962" y2= "27032" />
   <line class="fil1 str2" x1="44845" y1="37309" x2="47648" y2= "38924" />
   <line class="fil1 str2" x1="16774" y1="9233" x2="15058" y2= "6267" />
   <line class="fil1 str2" x1="9253" y1="16754" x2="6275" y2= "15038" />
   <line class="fil1 str2" x1="6497" y1="27032" x2="3057" y2= "27032" />
   <line class="fil1 str2" x1="9253" y1="37309" x2="6383" y2= "38966" />
  </g>
  <g id="_396224044064">
   <path class="fil2" d="M27858 10354c0,586 -86,1016 -255,1291 -171,274 -434,411 -789,411 -360,0 -624,-140 -792,-419 -169,-279 -253,-705 -253,-1279 0,-589 86,-1020 256,-1292 170,-273 433,-410 789,-410 360,0 623,142 792,424 168,282 252,707 252,1274zm-562 995c43,-109 73,-245 91,-410 17,-165 26,-360 26,-585 0,-223 -9,-418 -26,-582 -18,-166 -49,-303 -92,-412 -44,-112 -105,-195 -181,-253 -77,-58 -178,-87 -300,-87 -122,0 -222,29 -300,87 -78,58 -140,143 -185,257 -45,111 -75,251 -91,420 -16,170 -24,361 -24,574 0,228 7,419 21,572 14,153 44,291 91,412 42,112 103,199 181,260 78,60 181,90 307,90 121,0 221,-29 300,-87 78,-57 139,-143 182,-256z"/>
  </g>
  <g id="_396224044416">
   <path class="fil2" d="M36492 14084l-2012 0 0 -461c144,-137 281,-268 410,-394 129,-126 254,-257 377,-393 249,-273 418,-492 509,-656 91,-164 136,-334 136,-510 0,-91 -14,-170 -42,-239 -29,-69 -69,-126 -118,-171 -51,-44 -111,-77 -178,-98 -67,-22 -141,-33 -222,-33 -77,0 -155,9 -235,30 -80,19 -157,44 -229,73 -63,25 -122,55 -179,90 -56,35 -103,65 -138,90l-24 0 0 -464c91,-45 216,-89 378,-132 162,-43 314,-65 459,-65 304,0 542,81 715,242 172,162 258,380 258,657 0,127 -15,244 -45,352 -30,108 -71,208 -124,300 -53,95 -119,190 -195,283 -75,93 -156,185 -240,276 -138,149 -291,304 -459,464 -169,161 -304,288 -404,381l1602 0 0 378z"/>
  </g>
  <g id="_396224045120">
   <path class="fil2" d="M42819 18982l-387 0 0 1123 -422 0 0 -1123 -1441 0 0 -460 1459 -1682 404 0 0 1792 387 0 0 350zm-809 -350l0 -1273 -1098 1273 1098 0z"/>
  </g>
  <g id="_396224043808">
   <path class="fil2" d="M45669 27772c0,168 -28,324 -84,465 -56,142 -130,261 -223,356 -98,101 -208,177 -330,229 -121,52 -255,78 -402,78 -147,0 -281,-24 -402,-75 -121,-49 -227,-123 -319,-221 -113,-118 -201,-276 -264,-475 -64,-198 -96,-441 -96,-731 0,-284 29,-540 87,-769 59,-229 149,-428 271,-598 118,-165 271,-294 458,-387 188,-92 404,-139 650,-139 73,0 141,4 204,11 63,8 119,19 167,36l0 420 -20 0c-39,-22 -96,-43 -170,-62 -75,-19 -155,-28 -239,-28 -272,0 -491,92 -658,275 -167,184 -266,455 -297,816 104,-73 211,-130 320,-169 109,-40 229,-59 359,-59 127,0 238,12 334,38 95,26 196,77 299,155 120,90 209,206 267,344 58,139 88,302 88,490zm-445 17c0,-134 -17,-246 -52,-336 -36,-90 -92,-167 -171,-232 -57,-46 -122,-76 -194,-91 -73,-14 -147,-22 -222,-22 -103,0 -202,15 -298,46 -97,31 -191,75 -285,133 -3,33 -5,63 -6,93 -2,29 -3,67 -3,112 0,226 23,407 67,545 45,138 100,243 165,314 63,69 128,117 194,144 67,28 139,42 216,42 175,0 317,-63 426,-188 108,-125 163,-312 163,-560z"/>
  </g>
  <g id="_396224046048">
   <path class="fil2" d="M42521 35888c0,-146 -48,-268 -146,-367 -98,-98 -233,-148 -407,-148 -159,0 -289,45 -391,133 -101,87 -152,206 -152,357 0,108 27,200 78,275 52,75 130,143 234,202 45,26 114,60 206,104 93,44 178,78 253,103 127,-98 213,-199 258,-302 45,-104 67,-223 67,-357zm68 1640c0,-134 -27,-242 -80,-320 -52,-79 -154,-160 -305,-242 -50,-28 -116,-57 -199,-90 -83,-32 -177,-70 -281,-114 -121,81 -214,179 -278,298 -65,117 -97,251 -97,402 0,197 60,360 179,489 120,129 269,193 450,193 184,0 332,-55 444,-165 111,-111 167,-261 167,-451zm-620 944c-163,0 -310,-24 -443,-73 -133,-47 -247,-117 -341,-208 -92,-88 -161,-192 -209,-312 -48,-122 -71,-249 -71,-384 0,-177 47,-339 142,-488 95,-149 233,-267 414,-354l0 -14c-162,-94 -281,-196 -359,-307 -78,-111 -117,-251 -117,-417 0,-246 93,-451 279,-615 185,-164 421,-245 706,-245 297,0 535,77 714,233 179,156 268,356 268,598 0,147 -42,292 -128,435 -85,144 -208,255 -369,336l0 13c190,90 333,197 432,325 98,128 146,291 146,491 0,280 -101,515 -304,703 -203,189 -456,283 -760,283z"/>
  </g>
  <g id="_396224045696">
   <polygon class="fil2" points="17521,12849 16286,12849 16286,12458 17521,12458 "/>
   <path id="1" class="fil2" d="M19970 14084l-2012 0 0 -461c145,-137 282,-268 410,-394 129,-126 255,-257 378,-393 248,-273 418,-492 509,-656 90,-164 136,-334 136,-510 0,-91 -14,-170 -43,-239 -28,-69 -68,-126 -117,-171 -51,-44 -111,-77 -178,-98 -68,-22 -141,-33 -222,-33 -77,0 -156,9 -236,30 -80,19 -156,44 -229,73 -62,25 -121,55 -178,90 -57,35 -103,65 -138,90l-24 0 0 -464c90,-45 216,-89 378,-132 161,-43 314,-65 458,-65 304,0 542,81 715,242 172,162 258,380 258,657 0,127 -15,244 -44,352 -30,108 -72,208 -124,300 -54,95 -119,190 -195,283 -76,93 -156,185 -241,276 -137,149 -290,304 -458,464 -170,161 -304,288 -405,381l1602 0 0 378z"/>
  </g>
  <g id="_396224046688">
   <polygon class="fil2" points="11602,18840 10367,18840 10367,18449 11602,18449 "/>
   <path id="1" class="fil2" d="M14141 18952l-386 0 0 1123 -422 0 0 -1123 -1442 0 0 -460 1460 -1682 404 0 0 1792 386 0 0 350zm-808 -350l0 -1274 -1098 1274 1098 0z"/>
  </g>
  <g id="_396224047168">
   <polygon class="fil2" points="9675,27598 8440,27598 8440,27207 9675,27207 "/>
   <path id="1" class="fil2" d="M12183 27772c0,168 -28,324 -83,465 -57,142 -131,261 -224,356 -98,101 -208,177 -330,229 -121,52 -255,78 -401,78 -148,0 -282,-24 -403,-75 -121,-49 -227,-123 -319,-221 -113,-118 -201,-276 -264,-475 -64,-198 -96,-441 -96,-731 0,-284 29,-540 88,-769 58,-229 148,-428 270,-598 118,-165 271,-294 459,-387 187,-92 403,-139 649,-139 73,0 141,4 204,11 63,8 119,19 167,36l0 420 -20 0c-39,-22 -96,-43 -170,-62 -75,-19 -155,-28 -239,-28 -272,0 -491,92 -658,275 -167,184 -266,455 -296,816 103,-73 210,-130 319,-169 109,-40 229,-59 359,-59 127,0 238,12 334,38 95,26 196,77 299,155 120,90 209,206 267,344 58,139 88,302 88,490zm-445 17c0,-134 -17,-246 -52,-336 -35,-90 -92,-167 -171,-232 -57,-46 -122,-76 -194,-91 -72,-14 -147,-22 -222,-22 -103,0 -201,15 -298,46 -97,31 -191,75 -284,133 -3,33 -6,63 -7,93 -2,29 -2,67 -2,112 0,226 22,407 66,545 45,138 100,243 166,314 62,69 127,117 193,144 67,28 139,42 216,42 175,0 317,-63 426,-188 108,-125 163,-312 163,-560z"/>
  </g>
  <g id="_396224045632">
   <polygon class="fil2" points="12004,37161 10769,37161 10769,36770 12004,36770 "/>
   <path id="1" class="fil2" d="M13982 35888c0,-146 -49,-268 -147,-367 -97,-98 -233,-148 -406,-148 -160,0 -289,45 -391,133 -101,87 -152,206 -152,357 0,108 26,200 78,275 52,75 129,143 234,202 44,26 113,60 206,104 93,44 178,78 253,103 127,-98 213,-199 258,-302 44,-104 67,-223 67,-357zm67 1640c0,-134 -26,-242 -79,-320 -52,-79 -154,-160 -305,-242 -51,-28 -116,-57 -200,-90 -83,-32 -176,-70 -280,-114 -121,81 -214,179 -279,298 -64,117 -96,251 -96,402 0,197 60,360 179,489 119,129 269,193 450,193 184,0 332,-55 443,-165 112,-111 167,-261 167,-451zm-619 944c-163,0 -310,-24 -444,-73 -133,-47 -247,-117 -340,-208 -92,-88 -162,-192 -210,-312 -47,-122 -71,-249 -71,-384 0,-177 47,-339 142,-488 95,-149 233,-267 414,-354l0 -14c-161,-94 -280,-196 -358,-307 -78,-111 -117,-251 -117,-417 0,-246 93,-451 278,-615 186,-164 422,-245 707,-245 296,0 534,77 713,233 179,156 269,356 269,598 0,147 -43,292 -128,435 -85,144 -209,255 -370,336l0 13c190,90 334,197 432,325 98,128 147,291 147,491 0,280 -101,515 -304,703 -203,189 -456,283 -760,283z"/>
  </g>
  <g id="_396224048640">
   <polygon class="fil2" points="27600,35827 27187,35827 27187,33903 26600,35153 26293,35153 25710,33903 25710,35827 25323,35827 25323,33379 25821,33379 26466,34738 27088,33379 27600,33379 "/>
  </g>
  <g id="_396224047936">
   <path class="fil2" d="M28731 32130c-55,0 -109,7 -164,20 -55,13 -108,30 -161,52 -48,20 -91,42 -127,64 -35,22 -68,44 -96,63l-18 0 0 -320c66,-36 155,-68 268,-97 113,-29 220,-43 322,-43 103,0 192,10 269,31 76,21 145,53 207,96 67,48 117,107 151,176 34,69 51,149 51,241 0,124 -41,234 -123,327 -82,95 -180,154 -295,180l0 21c48,9 99,25 153,47 54,22 104,55 151,98 46,44 84,100 114,168 29,69 44,152 44,250 0,102 -18,196 -53,282 -35,85 -84,161 -148,227 -66,68 -145,121 -238,156 -93,36 -199,53 -317,53 -114,0 -226,-13 -338,-41 -111,-27 -204,-60 -280,-99l0 -320 21 0c64,47 149,92 256,135 108,43 215,64 323,64 61,0 123,-10 186,-29 62,-20 114,-53 156,-97 40,-45 71,-94 92,-148 21,-54 32,-122 32,-204 0,-82 -12,-149 -36,-202 -24,-53 -57,-95 -100,-125 -42,-31 -93,-52 -151,-63 -59,-12 -122,-18 -190,-18l-129 0 0 -252 100 0c137,0 248,-32 334,-97 85,-64 128,-159 128,-282 0,-57 -10,-105 -33,-146 -22,-42 -51,-74 -85,-98 -39,-27 -81,-45 -127,-55 -47,-10 -97,-15 -149,-15z"/>
  </g>
 </g>
</svg>
