<?xml version="1.0" encoding="UTF-8"?>
<!DOCTYPE svg PUBLIC "-//W3C//DTD SVG 1.1//EN" "http://www.w3.org/Graphics/SVG/1.1/DTD/svg11.dtd">
<!-- Creator: CorelDRAW X7 -->
<svg xmlns="http://www.w3.org/2000/svg" xml:space="preserve" width="35.9913mm" height="16.2391mm" version="1.1" style="shape-rendering:geometricPrecision; text-rendering:geometricPrecision; image-rendering:optimizeQuality; fill-rule:evenodd; clip-rule:evenodd"
viewBox="0 0 3091 1395"
 xmlns:xlink="http://www.w3.org/1999/xlink">
 <defs>
  <style type="text/css">
   <![CDATA[
    .fil0 {fill:#4D4D4D}
    .fil1 {fill:#CCCCCC}
    .fil2 {fill:#444444;fill-rule:nonzero}
   ]]>
  </style>
 </defs>
 <g id="Слой_x0020_1">
  <metadata id="CorelCorpID_0Corel-Layer"/>
  <path class="fil0" d="M114 0l2863 0c63,0 114,51 114,114l0 1167c0,62 -51,114 -114,114l-2863 0c-63,0 -114,-51 -114,-114l0 -1167c0,-63 51,-114 114,-114z"/>
  <path class="fil1" d="M126 51c1924,0 915,0 2839,0 41,0 75,34 75,75l0 1142c0,42 -34,76 -75,76 -1924,0 -915,0 -2839,0 -41,0 -75,-34 -75,-76l0 -1142c0,-41 34,-75 75,-75z"/>
  <path class="fil2" d="M1807 408c0,0 -85,-111 -258,-111 -171,0 -264,110 -264,110 -18,21 -17,52 3,68 12,11 30,13 45,7 23,71 85,168 212,168 126,0 189,-97 212,-168 15,6 32,4 44,-5 21,-15 23,-46 6,-69zm-262 180l0 0c-127,0 -156,-132 -159,-148 22,-16 57,-35 103,-45l26 53 -67 -23c-4,10 -6,22 -6,34 0,54 44,97 97,97 54,0 98,-43 98,-97 0,-24 -8,-45 -22,-62 42,9 72,27 91,42 -4,19 -36,149 -161,149z"/>
 </g>
</svg>
