<?xml version="1.0" encoding="UTF-8"?>
<!DOCTYPE svg PUBLIC "-//W3C//DTD SVG 1.1//EN" "http://www.w3.org/Graphics/SVG/1.1/DTD/svg11.dtd">
<!-- Creator: CorelDRAW X7 -->
<svg xmlns="http://www.w3.org/2000/svg" xml:space="preserve" width="81.4932mm" height="72.8389mm" version="1.1" style="shape-rendering:geometricPrecision; text-rendering:geometricPrecision; image-rendering:optimizeQuality; fill-rule:evenodd; clip-rule:evenodd"
viewBox="0 0 19827 17721"
 xmlns:xlink="http://www.w3.org/1999/xlink">
 <defs>
  <style type="text/css">
   <![CDATA[
    .str0 {stroke:#4D4D4D;stroke-width:128.725}
    .fil0 {fill:none}
   ]]>
  </style>
 </defs>
 <g id="Layer-3">
  <metadata id="CorelCorpID_0Corel-Layer"/>
  <path class="fil0 str0" d="M2458 17657l16725 0c319,0 579,-261 579,-580l0 -10110c0,-319 -261,-579 -579,-579l-668 0c-583,0 -1071,-249 -1483,-661l-5181 -5173c-304,-313 -663,-490 -1100,-490l-8293 0c-410,0 -757,144 -1047,434l-913 913c-290,290 -434,637 -434,1047l0 12805c0,410 144,757 434,1047l913 913c290,290 637,434 1047,434z"/>
 </g>
</svg>
