<?xml version="1.0" encoding="UTF-8"?>
<!DOCTYPE svg PUBLIC "-//W3C//DTD SVG 1.1//EN" "http://www.w3.org/Graphics/SVG/1.1/DTD/svg11.dtd">
<!-- Creator: CorelDRAW X7 -->
<svg xmlns="http://www.w3.org/2000/svg" xml:space="preserve" width="6.615mm" height="6.6146mm" version="1.1" style="shape-rendering:geometricPrecision; text-rendering:geometricPrecision; image-rendering:optimizeQuality; fill-rule:evenodd; clip-rule:evenodd"
viewBox="0 0 113 113"
 xmlns:xlink="http://www.w3.org/1999/xlink">
 <defs>
  <style type="text/css">
   <![CDATA[
    .fil0 {fill:#999999}
   ]]>
  </style>
 </defs>
 <g id="Layer-416">
  <metadata id="CorelCorpID_0Corel-Layer"/>
  <path class="fil0" d="M81 108c4,3 8,5 13,5 6,0 10,-2 14,-5 3,-4 5,-8 5,-14l0 -75c0,-5 -2,-10 -5,-13 -4,-4 -8,-6 -14,-6 -5,0 -9,2 -13,6 -4,3 -5,8 -5,13l0 75c0,6 1,10 5,14zm-75 0c3,3 8,5 13,5 5,0 9,-2 13,-5 4,-4 6,-8 6,-14l0 -75c0,-5 -2,-10 -6,-13 -4,-4 -8,-6 -13,-6 -5,0 -10,2 -13,6 -4,3 -6,8 -6,13l0 75c0,6 2,10 6,14z"/>
 </g>
</svg>
