<?xml version="1.0" encoding="UTF-8"?>
<!DOCTYPE svg PUBLIC "-//W3C//DTD SVG 1.1//EN" "http://www.w3.org/Graphics/SVG/1.1/DTD/svg11.dtd">
<!-- Creator: CorelDRAW X7 -->
<svg xmlns="http://www.w3.org/2000/svg" xml:space="preserve" width="15.8748mm" height="15.875mm" version="1.1" style="shape-rendering:geometricPrecision; text-rendering:geometricPrecision; image-rendering:optimizeQuality; fill-rule:evenodd; clip-rule:evenodd"
viewBox="0 0 3434 3434"
 xmlns:xlink="http://www.w3.org/1999/xlink">
 <defs>
  <style type="text/css">
   <![CDATA[
    .fil0 {fill:#B3B3B3;fill-rule:nonzero}
   ]]>
  </style>
 </defs>
 <g id="Слой_x0020_1">
  <metadata id="CorelCorpID_0Corel-Layer"/>
  <path class="fil0" d="M40 1814l1581 1581c53,53 140,53 193,0l1581 -1581c53,-53 53,-140 0,-193l-1581 -1581c-53,-53 -140,-53 -193,0l-1581 1581c-53,53 -53,140 0,193zm932 27l0 0 485 -378c59,-46 108,-22 108,53l0 206 234 0c37,0 68,-31 68,-69l0 -545c0,-37 31,-68 68,-68l273 0c38,0 68,31 68,68l0 955c0,37 -30,68 -68,68l-643 0 0 203c0,76 -49,99 -108,53l-485 -378c-59,-46 -59,-122 0,-168z"/>
 </g>
</svg>
