<?xml version="1.0" encoding="UTF-8"?>
<!DOCTYPE svg PUBLIC "-//W3C//DTD SVG 1.1//EN" "http://www.w3.org/Graphics/SVG/1.1/DTD/svg11.dtd">
<!-- Creator: CorelDRAW X7 -->
<svg xmlns="http://www.w3.org/2000/svg" xml:space="preserve" width="5.2147mm" height="6.2842mm" version="1.1" style="shape-rendering:geometricPrecision; text-rendering:geometricPrecision; image-rendering:optimizeQuality; fill-rule:evenodd; clip-rule:evenodd"
viewBox="0 0 63 76"
 xmlns:xlink="http://www.w3.org/1999/xlink">
 <defs>
  <style type="text/css">
   <![CDATA[
    .fil0 {fill:gray}
   ]]>
  </style>
 </defs>
 <g id="Layer-421">
  <metadata id="CorelCorpID_0Corel-Layer"/>
  <path class="fil0" d="M12 49c-2,-1 -4,-2 -4,-4 0,-3 2,-5 4,-5 2,0 4,2 4,5 0,2 -2,4 -4,4zm36 -20c-1,-2 -4,-2 -5,-1l-11 12 -2 2c-1,1 -1,3 0,4 1,0 1,1 2,1 1,0 2,0 3,-1 4,-4 9,-9 13,-13 1,-1 1,-3 0,-4zm-16 0c2,0 4,-2 4,-4 0,-2 -2,-4 -4,-4 -3,0 -4,2 -4,4 0,2 1,4 4,4zm0 -29l11 0c2,0 4,2 4,4 0,2 -2,4 -4,4 -2,0 -4,1 -4,3 0,2 1,3 2,3l0 0c2,1 5,2 7,3 1,1 2,2 3,3 7,5 12,14 12,25 0,10 -5,19 -12,24 -1,1 -2,2 -3,3 -5,3 -10,4 -16,4 -8,0 -14,-2 -20,-7 -13,-10 -16,-29 -7,-42l-3 -3c-1,-1 -1,-3 0,-4l5 -5c1,-1 3,-1 4,0l1 2 2 1c2,-1 5,-3 8,-4 1,0 2,-1 2,-3 0,-1 -1,-3 -3,-3 -3,0 -5,-1 -5,-4 0,-2 2,-4 4,-4l12 0zm0 68c2,0 4,-2 4,-4 0,-2 -2,-4 -4,-4 -3,0 -4,2 -4,4 0,2 1,4 4,4zm16 -26c1,-1 2,-2 3,-2 2,0 4,2 4,5 0,2 -2,4 -4,4 -1,0 -2,-1 -3,-2 -1,-1 -1,-2 -1,-2 0,-1 0,-2 1,-3z"/>
 </g>
</svg>
