<?xml version="1.0" encoding="UTF-8"?>
<!DOCTYPE svg PUBLIC "-//W3C//DTD SVG 1.1//EN" "http://www.w3.org/Graphics/SVG/1.1/DTD/svg11.dtd">
<!-- Creator: CorelDRAW X7 -->
<svg xmlns="http://www.w3.org/2000/svg" xml:space="preserve" width="19.2242mm" height="13.1789mm" version="1.1" style="shape-rendering:geometricPrecision; text-rendering:geometricPrecision; image-rendering:optimizeQuality; fill-rule:evenodd; clip-rule:evenodd"
viewBox="0 0 5203 3567"
 xmlns:xlink="http://www.w3.org/1999/xlink">
 <defs>
  <style type="text/css">
   <![CDATA[
    .fil0 {fill:gray}
   ]]>
  </style>
 </defs>
 <g id="Слой_x0020_1">
  <metadata id="CorelCorpID_0Corel-Layer"/>
  <g id="_970462746288">
   <path class="fil0" d="M1921 3567c-134,0 -269,0 -404,0l-694 -1209c-72,-125 -131,-193 -150,-337 -51,-386 91,-693 360,-831 37,-300 -97,-455 -374,-553 -103,190 -250,289 -396,299 -48,3 -97,-5 -146,-7 -71,-4 -116,-42 -117,-149 -1,-213 5,-427 0,-640 -1,-67 51,-119 147,-132 69,-9 153,-9 224,-6 216,9 300,145 323,395 456,185 551,317 593,721l634 0 0 783 36 36 0 139 -36 35 0 174 36 36 0 139 -36 35 0 175 36 35 0 139 -36 35 0 175 36 35 0 139 -36 36 0 303zm-1605 -3404c-127,0 -180,-5 -180,83l1 480c0,63 143,63 208,29 172,-89 282,-592 -29,-592zm1087 2827l5 1 358 49 0 237 -244 -34 -1 0 -118 -253zm-190 -410l8 1 545 75 0 237 -430 -60 -6 -1 -117 -252zm-191 -411l13 2 731 101 0 237 -616 -86 -11 -1 -117 -253zm12 -382l732 101 0 236 -802 -111 -15 -2 0 -30 0 -127 85 -67zm141 -495c56,0 102,46 102,102 0,56 -46,102 -102,102 -57,0 -102,-46 -102,-102 0,-56 45,-102 102,-102z"/>
   <path class="fil0" d="M3282 3567c135,0 269,0 404,0l695 -1209c72,-125 130,-193 149,-337 51,-386 -91,-693 -360,-831 -37,-300 97,-455 375,-553 102,190 249,289 395,299 49,3 97,-5 146,-7 72,-4 116,-42 117,-149 1,-213 -4,-427 0,-640 1,-67 -51,-119 -147,-132 -69,-9 -153,-9 -224,-6 -216,9 -300,145 -323,395 -456,185 -551,317 -593,721l-634 0 0 783 -35 36 0 139 35 35 0 174 -35 36 0 139 35 35 0 175 -35 35 0 139 35 35 0 175 -35 35 0 139 35 36 0 303zm1605 -3404c127,0 180,-5 180,83l-1 480c0,63 -143,63 -208,29 -172,-89 -281,-592 29,-592zm-1087 2827l-5 1 -358 49 0 237 244 -34 2 0 117 -253zm191 -410l-9 1 -545 75 0 237 430 -60 6 -1 118 -252zm190 -411l-13 2 -731 101 0 237 616 -86 11 -1 117 -253zm-12 -382l-732 101 0 236 803 -111 14 -2 0 -30 0 -127 -85 -67zm-140 -495c-57,0 -102,46 -102,102 0,56 45,102 102,102 56,0 101,-46 101,-102 0,-56 -45,-102 -101,-102z"/>
  </g>
 </g>
</svg>
