<?xml version="1.0" encoding="UTF-8"?>
<!DOCTYPE svg PUBLIC "-//W3C//DTD SVG 1.1//EN" "http://www.w3.org/Graphics/SVG/1.1/DTD/svg11.dtd">
<!-- Creator: CorelDRAW X7 -->
<svg xmlns="http://www.w3.org/2000/svg" xml:space="preserve" width="224.514mm" height="249.393mm" version="1.1" style="shape-rendering:geometricPrecision; text-rendering:geometricPrecision; image-rendering:optimizeQuality; fill-rule:evenodd; clip-rule:evenodd"
viewBox="0 0 405198 450098"
 xmlns:xlink="http://www.w3.org/1999/xlink">
 <defs>
  <style type="text/css">
   <![CDATA[
    .str0 {stroke:#999999;stroke-width:1432.45}
    .str2 {stroke:#666666;stroke-width:954.906}
    .str1 {stroke:gray;stroke-width:954.906}
    .fil0 {fill:none}
    .fil4 {fill:#2D2D32}
    .fil7 {fill:#2D2D32}
    .fil2 {fill:#3D3D3D}
    .fil3 {fill:#666666}
    .fil5 {fill:#666666}
    .fil6 {fill:gray}
    .fil1 {fill:#999999}
   ]]>
  </style>
   <clipPath id="id0">
    <path d="M109627 450098l0 -12037 -9925 0 0 12037 9925 0zm31306 0l0 -12037 -9924 0 0 12037 9924 0z"/>
   </clipPath>
   <clipPath id="id1">
    <path d="M109627 450098l0 -12037 -9925 0 0 12037 9925 0zm31306 0l0 -12037 -9924 0 0 12037 9924 0z"/>
   </clipPath>
 </defs>
 <g id="Слой_x0020_1">
  <metadata id="CorelCorpID_0Corel-Layer"/>
  <path class="fil0" d="M125797 166131c-24,-3099 1936,-4386 4142,-4318 3831,118 3698,6875 3802,11362l1180 51055c140,6055 4391,8227 8839,8025 4448,-203 7407,-4937 8131,-8911l15493 -85140c1144,-6284 7638,-9592 14018,-9296 5358,248 10915,3901 11607,9219l22519 173130 9 533"/>
  <path class="fil1" d="M270998 293509l-4844 0 -21661 0 0 -8353c0,-8403 6877,-15279 15279,-15279l8177 0 838 6494 19094 0 0 8118 4298 0 0 9020 -21181 0zm-11607 -11774c-1946,0 -3523,1577 -3523,3523 0,1946 1577,3523 3523,3523 1946,0 3523,-1577 3523,-3523 0,-1946 -1577,-3523 -3523,-3523z"/>
  <g id="_699452740976">
   <rect class="fil2" transform="matrix(3.16036E-014 1.60393 -1.19329 4.24795E-014 236721 302210)" width="60358" height="4962"/>
   <rect class="fil2" transform="matrix(3.16036E-014 1.60393 -1.19329 4.24795E-014 210936 302210)" width="60358" height="4962"/>
  </g>
  <g id="_699452742032">
   <rect class="fil2" transform="matrix(3.16036E-014 1.60393 -1.19329 4.24795E-014 35619.9 302210)" width="60358" height="4962"/>
   <rect class="fil2" transform="matrix(3.16036E-014 1.60393 -1.19329 4.24795E-014 9834.18 302210)" width="60358" height="4962"/>
  </g>
  <line class="fil0 str0" x1="258513" y1="268564" x2="144149" y2= "281" />
  <g id="_699452743152">
   <polygon class="fil2" points="62579,281 24742,293509 18988,293509 56825,281 "/>
   <path class="fil2" d="M32937 207602l1938 0 82692 -43153 -74210 -38726 1147 -2200 1148 599 0 -1577 -185 -307 185 -112 0 -431 715 0 71737 -43258 -62497 -37687 280 -464 0 -4498 129632 0 0 4962 -113 0 -62497 37687 71737 43258 1107 0 0 1953 239 -125 1147 2200 -1386 723 0 211 -404 0 -72420 37792 82691 43153 2848 0 0 1486 331 173 -331 634 0 2669 -175531 0 0 -1152 -92 48 -1148 -2199 1240 -648 0 -1011zm87569 -130614l60095 -36238 -120190 0 60095 36238zm0 2897l-69335 41810 138670 0 -69335 -41810zm-69996 46772l69738 36393 69738 -36393 -139476 0zm-10272 80945l160020 0 -80010 -41753 -80010 41753z"/>
   <polygon class="fil2" points="178294,281 215893,293509 221647,293509 184049,281 "/>
  </g>
  <rect class="fil2" transform="matrix(2.11015E-013 0.114214 -7.96748 3.0249E-015 39532.1 392126)" width="60358" height="4962"/>
  <rect class="fil2" transform="matrix(3.16036E-014 1.60393 -1.19329 4.24795E-014 405197 302210)" width="60358" height="4962"/>
  <path class="fil3" d="M218754 235258l-2999 1944c-82,46 -123,109 -123,189 0,81 41,144 123,190 0,0 4,3 12,9 8,5 13,8 13,8l2974 1927c196,126 400,126 610,0l0 -18c81,-45 123,-108 123,-187l0 -3855c0,-81 -48,-150 -146,-207l23 0c-210,-127 -414,-127 -610,0z"/>
  <rect class="fil4 str1" x="221509" y="230542" width="31696" height="13700" rx="2329" ry="192"/>
  <path class="fil5" d="M318672 341167l43041 0 0 53876 -43041 0 0 -53876zm2147 2025l38746 0 0 49826 -38746 0 0 -49826z"/>
  <path class="fil6" d="M133570 412281c0,0 2961,-3721 7909,-3721l0 -5738c-4948,0 -7909,-3564 -7909,-3721l-26505 0c0,157 -2960,3721 -7909,3721l0 5738c4949,0 7909,3721 7909,3721l26505 0z"/>
  <path class="fil5" d="M272702 377308c485,0 878,393 878,878 0,485 -393,878 -878,878 -485,0 -878,-393 -878,-878 0,-485 393,-878 878,-878zm0 -796c925,0 1674,750 1674,1674 0,925 -749,1674 -1674,1674 -925,0 -1674,-749 -1674,-1674 0,-924 749,-1674 1674,-1674zm23589 -4086l3995 0c806,0 1464,659 1464,1464l0 4763c0,805 -659,1464 -1464,1464l-568 0 0 2360 1405 0 0 8859c-549,0 -999,451 -999,1000l0 2098 2963 0 0 1903 -1986 1966 -44503 0 0 -3869 2647 0c-1527,-3356 -5783,-11079 780,-16473 2416,-1985 7378,-2611 12059,-3125 1751,-192 2673,370 3379,945l8222 6696 13175 0 0 -2360 -569 0c-804,0 -1463,-658 -1463,-1464l0 -4763c0,-806 658,-1464 1463,-1464zm-30632 5891c3813,0 6903,3091 6903,6903 0,3812 -3090,6903 -6903,6903 -3812,0 -6903,-3091 -6903,-6903 0,-3812 3091,-6903 6903,-6903zm21169 3443l6924 0 0 -1780 -6924 0 0 1780zm15012 8128l1790 0 0 -5963 -1790 0 0 5963z"/>
  <circle class="fil7" cx="120318" cy="405691" r="4669"/>
  <path class="fil6" d="M133570 375799c0,0 2961,3721 7909,3721l0 5739c-4948,0 -7909,3563 -7909,3721l-26505 0c0,-158 -2960,-3721 -7909,-3721l0 -5739c4949,0 7909,-3721 7909,-3721l26505 0z"/>
  <circle class="fil7" cx="120318" cy="382389" r="4669"/>
  <path class="fil6" d="M133570 361902c0,0 2961,3721 7909,3721l0 5738c-4948,0 -7909,3564 -7909,3721l-26505 0c0,-157 -2960,-3721 -7909,-3721l0 -5738c4949,0 7909,-3721 7909,-3721l26505 0z"/>
  <circle class="fil7" cx="120318" cy="368492" r="4669"/>
  <rect class="fil6" x="109627" y="321291" width="21382" height="19262"/>
  <path class="fil6" d="M323583 332639l-193052 -4582 0 5730 190636 4512c775,19 1393,660 1393,1434l0 1434 6589 0 0 -2799c0,-3099 -2472,-5656 -5566,-5729z"/>
  <rect class="fil6" x="109627" y="356872" width="21382" height="4314"/>
  <rect class="fil6" x="99157" y="341270" width="42322" height="14886"/>
  <circle class="fil7" cx="120318" cy="348713" r="4669"/>
  <rect class="fil7" x="261549" y="393909" width="36271" height="526"/>
  <polygon class="fil5" points="314374,398303 366011,398303 366011,395759 314374,395759 "/>
  <polygon class="fil5" points="304347,388448 315448,388448 315448,385366 304347,385366 "/>
  <rect class="fil3" x="316165" y="383925" width="1791" height="5963"/>
  <rect class="fil4 str1" x="159070" y="321262" width="23649" height="22879"/>
  <rect class="fil4 str1" x="201579" y="366338" width="44589" height="20504" rx="3276" ry="288"/>
  <path class="fil3" d="M249074 380187l3000 1944c81,46 122,109 122,190 0,80 -41,144 -122,189 0,0 -5,3 -13,9 -8,6 -12,9 -12,9l-2975 1926c-195,127 -400,127 -610,0l0 -17c-81,-46 -123,-109 -123,-188l0 -3855c0,-81 48,-150 146,-207l-23 0c210,-126 415,-126 610,0z"/>
  <rect class="fil2" transform="matrix(2.11015E-013 0.114214 -7.96748 3.0249E-015 240634 392126)" width="60358" height="4962"/>
  <rect class="fil6" x="146659" y="387627" width="19362" height="12923"/>
  <rect class="fil6" x="128164" y="392000" width="17779" height="4176"/>
  <rect class="fil6" x="109627" y="389696" width="21382" height="8784"/>
  <rect class="fil6" x="94693" y="392000" width="17779" height="4176"/>
  <circle class="fil7" cx="156340" cy="394088" r="4669"/>
  <rect class="fil6" x="166738" y="387627" width="20533" height="12923" rx="4795" ry="3343"/>
  <circle class="fil7" cx="177004" cy="394088" r="4669"/>
  <rect class="fil6" x="74614" y="387627" width="19362" height="12923"/>
  <circle class="fil7" cx="84295" cy="394088" r="4669"/>
  <rect class="fil6" x="53365" y="387627" width="20533" height="12923" rx="4795" ry="3343"/>
  <circle class="fil7" cx="63632" cy="394088" r="4669"/>
  <path class="fil6" d="M133570 412281c0,0 2961,-3721 7909,-3721l0 -5738c-4948,0 -7909,-3564 -7909,-3721l-26505 0c0,157 -2960,3721 -7909,3721l0 5738c4949,0 7909,3721 7909,3721l26505 0z"/>
  <circle class="fil7" cx="120318" cy="405691" r="4669"/>
  <rect class="fil6" x="109627" y="412902" width="21382" height="2481"/>
  <rect class="fil6" x="103506" y="416003" width="33624" height="7288"/>
  <rect class="fil6" x="109627" y="424008" width="21382" height="26090"/>
  <g>
  </g>
  <g style="clip-path:url(#id0)">
   <g>
    <g id="_699452757200">
     <line class="fil0 str2" x1="183051" y1="346369" x2="81321" y2= "448099" />
     <line class="fil0 str2" x1="183051" y1="350918" x2="81321" y2= "452647" />
     <line class="fil0 str2" x1="183051" y1="355466" x2="81321" y2= "457196" />
     <line class="fil0 str2" x1="183051" y1="360015" x2="81321" y2= "461745" />
     <line class="fil0 str2" x1="183051" y1="364564" x2="81321" y2= "466293" />
     <line class="fil0 str2" x1="183051" y1="369112" x2="81321" y2= "470842" />
     <line class="fil0 str2" x1="183051" y1="373661" x2="81321" y2= "475391" />
     <line class="fil0 str2" x1="183051" y1="378210" x2="81321" y2= "479939" />
     <line class="fil0 str2" x1="183051" y1="382759" x2="81321" y2= "484488" />
     <line class="fil0 str2" x1="183051" y1="387307" x2="81321" y2= "489037" />
     <line class="fil0 str2" x1="183051" y1="391856" x2="81321" y2= "493585" />
     <line class="fil0 str2" x1="183051" y1="396405" x2="81321" y2= "498134" />
     <line class="fil0 str2" x1="183051" y1="400953" x2="81321" y2= "502683" />
     <line class="fil0 str2" x1="183051" y1="405502" x2="81321" y2= "507231" />
     <line class="fil0 str2" x1="183051" y1="410051" x2="81321" y2= "511780" />
     <line class="fil0 str2" x1="183051" y1="414599" x2="81321" y2= "516329" />
     <line class="fil0 str2" x1="183051" y1="419148" x2="81321" y2= "520878" />
     <line class="fil0 str2" x1="183051" y1="423697" x2="81321" y2= "525426" />
     <line class="fil0 str2" x1="183051" y1="428246" x2="81321" y2= "529975" />
     <line class="fil0 str2" x1="183051" y1="432794" x2="81321" y2= "534524" />
     <line class="fil0 str2" x1="183051" y1="437343" x2="81321" y2= "539072" />
     <line class="fil0 str2" x1="183051" y1="441892" x2="81321" y2= "543621" />
     <line class="fil0 str2" x1="183051" y1="446440" x2="81321" y2= "548170" />
     <line class="fil0 str2" x1="183051" y1="450989" x2="81321" y2= "552718" />
     <line class="fil0 str2" x1="183051" y1="455538" x2="81321" y2= "557267" />
     <line class="fil0 str2" x1="183051" y1="460086" x2="81321" y2= "561816" />
     <line class="fil0 str2" x1="183051" y1="464635" x2="81321" y2= "566365" />
     <line class="fil0 str2" x1="183051" y1="469184" x2="81321" y2= "570913" />
     <line class="fil0 str2" x1="183051" y1="473733" x2="81321" y2= "575462" />
     <line class="fil0 str2" x1="183051" y1="478281" x2="81321" y2= "580011" />
     <line class="fil0 str2" x1="183051" y1="482830" x2="81321" y2= "584559" />
     <line class="fil0 str2" x1="183051" y1="487379" x2="81321" y2= "589108" />
     <line class="fil0 str2" x1="183051" y1="491927" x2="81321" y2= "593657" />
     <line class="fil0 str2" x1="183051" y1="496476" x2="81321" y2= "598205" />
     <line class="fil0 str2" x1="183051" y1="501025" x2="81321" y2= "602754" />
     <line class="fil0 str2" x1="183051" y1="505573" x2="81321" y2= "607303" />
     <line class="fil0 str2" x1="183051" y1="510122" x2="81321" y2= "611852" />
     <line class="fil0 str2" x1="183051" y1="514671" x2="81321" y2= "616400" />
     <line class="fil0 str2" x1="183051" y1="519219" x2="81321" y2= "620949" />
     <line class="fil0 str2" x1="183051" y1="523768" x2="81321" y2= "625498" />
     <line class="fil0 str2" x1="183051" y1="528317" x2="81321" y2= "630046" />
     <line class="fil0 str2" x1="183051" y1="532865" x2="81321" y2= "634595" />
     <line class="fil0 str2" x1="183051" y1="537414" x2="81321" y2= "639144" />
     <line class="fil0 str2" x1="183051" y1="541963" x2="81321" y2= "643692" />
     <line class="fil0 str2" x1="183051" y1="546512" x2="81321" y2= "648241" />
     <line class="fil0 str2" x1="183051" y1="551060" x2="81321" y2= "652790" />
     <line class="fil0 str2" x1="183051" y1="555609" x2="81321" y2= "657339" />
     <line class="fil0 str2" x1="183051" y1="560158" x2="81321" y2= "661887" />
     <line class="fil0 str2" x1="183051" y1="564706" x2="81321" y2= "666436" />
     <line class="fil0 str2" x1="183051" y1="569255" x2="81321" y2= "670985" />
     <line class="fil0 str2" x1="183051" y1="573804" x2="81321" y2= "675533" />
     <line class="fil0 str2" x1="183051" y1="578352" x2="81321" y2= "680082" />
     <line class="fil0 str2" x1="183051" y1="582901" x2="81321" y2= "684631" />
     <line class="fil0 str2" x1="183051" y1="587450" x2="81321" y2= "689179" />
     <line class="fil0 str2" x1="183051" y1="591998" x2="81321" y2= "693728" />
     <line class="fil0 str2" x1="183051" y1="596547" x2="81321" y2= "698277" />
     <line class="fil0 str2" x1="183051" y1="601096" x2="81321" y2= "702825" />
     <line class="fil0 str2" x1="183051" y1="605645" x2="81321" y2= "707374" />
     <line class="fil0 str2" x1="183051" y1="610193" x2="81321" y2= "711923" />
     <line class="fil0 str2" x1="183051" y1="614742" x2="81321" y2= "716471" />
     <line class="fil0 str2" x1="183051" y1="619291" x2="81321" y2= "721020" />
     <line class="fil0 str2" x1="183051" y1="623839" x2="81321" y2= "725569" />
     <line class="fil0 str2" x1="183051" y1="628388" x2="81321" y2= "730118" />
     <line class="fil0 str2" x1="183051" y1="632937" x2="81321" y2= "734666" />
     <line class="fil0 str2" x1="183051" y1="637485" x2="81321" y2= "739215" />
     <line class="fil0 str2" x1="183051" y1="642034" x2="81321" y2= "743764" />
     <line class="fil0 str2" x1="183051" y1="646583" x2="81321" y2= "748312" />
     <line class="fil0 str2" x1="183051" y1="651132" x2="81321" y2= "752861" />
     <line class="fil0 str2" x1="183051" y1="655680" x2="81321" y2= "757410" />
     <line class="fil0 str2" x1="183051" y1="660229" x2="81321" y2= "761958" />
     <line class="fil0 str2" x1="183051" y1="664778" x2="81321" y2= "766507" />
     <line class="fil0 str2" x1="183051" y1="669326" x2="81321" y2= "771056" />
     <line class="fil0 str2" x1="183051" y1="673875" x2="81321" y2= "775605" />
     <line class="fil0 str2" x1="183051" y1="678424" x2="81321" y2= "780153" />
     <line class="fil0 str2" x1="183051" y1="682972" x2="81321" y2= "784702" />
     <line class="fil0 str2" x1="183051" y1="687521" x2="81321" y2= "789251" />
     <line class="fil0 str2" x1="183051" y1="692070" x2="81321" y2= "793799" />
     <line class="fil0 str2" x1="183051" y1="696619" x2="81321" y2= "798348" />
     <line class="fil0 str2" x1="183051" y1="701167" x2="81321" y2= "802897" />
     <line class="fil0 str2" x1="183051" y1="705716" x2="81321" y2= "807445" />
     <line class="fil0 str2" x1="183051" y1="710265" x2="81321" y2= "811994" />
     <line class="fil0 str2" x1="183051" y1="714813" x2="81321" y2= "816543" />
     <line class="fil0 str2" x1="183051" y1="719362" x2="81321" y2= "821092" />
     <line class="fil0 str2" x1="183051" y1="723911" x2="81321" y2= "825640" />
     <line class="fil0 str2" x1="183051" y1="728459" x2="81321" y2= "830189" />
     <line class="fil0 str2" x1="183051" y1="733008" x2="81321" y2= "834738" />
     <line class="fil0 str2" x1="183051" y1="737557" x2="81321" y2= "839286" />
     <line class="fil0 str2" x1="183051" y1="742106" x2="81321" y2= "843835" />
     <line class="fil0 str2" x1="183051" y1="746654" x2="81321" y2= "848384" />
     <line class="fil0 str2" x1="183051" y1="751203" x2="81321" y2= "852932" />
     <line class="fil0 str2" x1="183051" y1="755752" x2="81321" y2= "857481" />
     <line class="fil0 str2" x1="183051" y1="760300" x2="81321" y2= "862030" />
     <line class="fil0 str2" x1="183051" y1="764849" x2="81321" y2= "866579" />
     <line class="fil0 str2" x1="183051" y1="769398" x2="81321" y2= "871127" />
     <line class="fil0 str2" x1="183051" y1="773946" x2="81321" y2= "875676" />
     <line class="fil0 str2" x1="183051" y1="778495" x2="81321" y2= "880225" />
     <line class="fil0 str2" x1="183051" y1="783044" x2="81321" y2= "884773" />
     <line class="fil0 str2" x1="183051" y1="787592" x2="81321" y2= "889322" />
     <line class="fil0 str2" x1="183051" y1="792141" x2="81321" y2= "893871" />
     <line class="fil0 str2" x1="183051" y1="796690" x2="81321" y2= "898419" />
     <line class="fil0 str2" x1="183051" y1="801238" x2="81321" y2= "902968" />
     <line class="fil0 str2" x1="183051" y1="805787" x2="81321" y2= "907517" />
     <line class="fil0 str2" x1="183051" y1="810336" x2="81321" y2= "912065" />
     <line class="fil0 str2" x1="183051" y1="814885" x2="81321" y2= "916614" />
     <line class="fil0 str2" x1="183051" y1="819433" x2="81321" y2= "921163" />
     <line class="fil0 str2" x1="183051" y1="823982" x2="81321" y2= "925712" />
     <line class="fil0 str2" x1="183051" y1="828531" x2="81321" y2= "930260" />
     <line class="fil0 str2" x1="183051" y1="833079" x2="81321" y2= "934809" />
     <line class="fil0 str2" x1="183051" y1="837628" x2="81321" y2= "939358" />
     <line class="fil0 str2" x1="183051" y1="842177" x2="81321" y2= "943906" />
     <line class="fil0 str2" x1="183051" y1="846725" x2="81321" y2= "948455" />
     <line class="fil0 str2" x1="183051" y1="851274" x2="81321" y2= "953004" />
     <line class="fil0 str2" x1="183051" y1="855823" x2="81321" y2= "957552" />
     <line class="fil0 str2" x1="183051" y1="860372" x2="81321" y2= "962101" />
     <line class="fil0 str2" x1="183051" y1="864920" x2="81321" y2= "966650" />
     <line class="fil0 str2" x1="183051" y1="869469" x2="81321" y2= "971198" />
     <line class="fil0 str2" x1="183051" y1="874018" x2="81321" y2= "975747" />
     <line class="fil0 str2" x1="183051" y1="878566" x2="81321" y2= "980296" />
     <line class="fil0 str2" x1="183051" y1="883115" x2="81321" y2= "984844" />
     <line class="fil0 str2" x1="183051" y1="887664" x2="81321" y2= "989393" />
     <line class="fil0 str2" x1="183051" y1="892212" x2="81321" y2= "993942" />
     <line class="fil0 str2" x1="183051" y1="896761" x2="81321" y2= "998491" />
     <line class="fil0 str2" x1="183051" y1="901310" x2="81321" y2= "1003039" />
    </g>
   </g>
  </g>
  <path class="fil0" d="M109627 450098l0 -12037 -9925 0 0 12037 9925 0zm31306 0l0 -12037 -9924 0 0 12037 9924 0z"/>
  <rect class="fil6" x="109627" y="412902" width="21382" height="2481"/>
  <rect class="fil6" x="103506" y="416003" width="33624" height="7288"/>
  <rect class="fil6" x="109627" y="424008" width="21382" height="26090"/>
  <g>
  </g>
  <g style="clip-path:url(#id1)">
   <g>
    <g>
     <line class="fil0 str2" x1="183051" y1="346369" x2="81321" y2= "448099" />
     <line class="fil0 str2" x1="183051" y1="350918" x2="81321" y2= "452647" />
     <line class="fil0 str2" x1="183051" y1="355466" x2="81321" y2= "457196" />
     <line class="fil0 str2" x1="183051" y1="360015" x2="81321" y2= "461745" />
     <line class="fil0 str2" x1="183051" y1="364564" x2="81321" y2= "466293" />
     <line class="fil0 str2" x1="183051" y1="369112" x2="81321" y2= "470842" />
     <line class="fil0 str2" x1="183051" y1="373661" x2="81321" y2= "475391" />
     <line class="fil0 str2" x1="183051" y1="378210" x2="81321" y2= "479939" />
     <line class="fil0 str2" x1="183051" y1="382759" x2="81321" y2= "484488" />
     <line class="fil0 str2" x1="183051" y1="387307" x2="81321" y2= "489037" />
     <line class="fil0 str2" x1="183051" y1="391856" x2="81321" y2= "493585" />
     <line class="fil0 str2" x1="183051" y1="396405" x2="81321" y2= "498134" />
     <line class="fil0 str2" x1="183051" y1="400953" x2="81321" y2= "502683" />
     <line class="fil0 str2" x1="183051" y1="405502" x2="81321" y2= "507231" />
     <line class="fil0 str2" x1="183051" y1="410051" x2="81321" y2= "511780" />
     <line class="fil0 str2" x1="183051" y1="414599" x2="81321" y2= "516329" />
     <line class="fil0 str2" x1="183051" y1="419148" x2="81321" y2= "520878" />
     <line class="fil0 str2" x1="183051" y1="423697" x2="81321" y2= "525426" />
     <line class="fil0 str2" x1="183051" y1="428246" x2="81321" y2= "529975" />
     <line class="fil0 str2" x1="183051" y1="432794" x2="81321" y2= "534524" />
     <line class="fil0 str2" x1="183051" y1="437343" x2="81321" y2= "539072" />
     <line class="fil0 str2" x1="183051" y1="441892" x2="81321" y2= "543621" />
     <line class="fil0 str2" x1="183051" y1="446440" x2="81321" y2= "548170" />
     <line class="fil0 str2" x1="183051" y1="450989" x2="81321" y2= "552718" />
     <line class="fil0 str2" x1="183051" y1="455538" x2="81321" y2= "557267" />
     <line class="fil0 str2" x1="183051" y1="460086" x2="81321" y2= "561816" />
     <line class="fil0 str2" x1="183051" y1="464635" x2="81321" y2= "566365" />
     <line class="fil0 str2" x1="183051" y1="469184" x2="81321" y2= "570913" />
     <line class="fil0 str2" x1="183051" y1="473733" x2="81321" y2= "575462" />
     <line class="fil0 str2" x1="183051" y1="478281" x2="81321" y2= "580011" />
     <line class="fil0 str2" x1="183051" y1="482830" x2="81321" y2= "584559" />
     <line class="fil0 str2" x1="183051" y1="487379" x2="81321" y2= "589108" />
     <line class="fil0 str2" x1="183051" y1="491927" x2="81321" y2= "593657" />
     <line class="fil0 str2" x1="183051" y1="496476" x2="81321" y2= "598205" />
     <line class="fil0 str2" x1="183051" y1="501025" x2="81321" y2= "602754" />
     <line class="fil0 str2" x1="183051" y1="505573" x2="81321" y2= "607303" />
     <line class="fil0 str2" x1="183051" y1="510122" x2="81321" y2= "611852" />
     <line class="fil0 str2" x1="183051" y1="514671" x2="81321" y2= "616400" />
     <line class="fil0 str2" x1="183051" y1="519219" x2="81321" y2= "620949" />
     <line class="fil0 str2" x1="183051" y1="523768" x2="81321" y2= "625498" />
     <line class="fil0 str2" x1="183051" y1="528317" x2="81321" y2= "630046" />
     <line class="fil0 str2" x1="183051" y1="532865" x2="81321" y2= "634595" />
     <line class="fil0 str2" x1="183051" y1="537414" x2="81321" y2= "639144" />
     <line class="fil0 str2" x1="183051" y1="541963" x2="81321" y2= "643692" />
     <line class="fil0 str2" x1="183051" y1="546512" x2="81321" y2= "648241" />
     <line class="fil0 str2" x1="183051" y1="551060" x2="81321" y2= "652790" />
     <line class="fil0 str2" x1="183051" y1="555609" x2="81321" y2= "657339" />
     <line class="fil0 str2" x1="183051" y1="560158" x2="81321" y2= "661887" />
     <line class="fil0 str2" x1="183051" y1="564706" x2="81321" y2= "666436" />
     <line class="fil0 str2" x1="183051" y1="569255" x2="81321" y2= "670985" />
     <line class="fil0 str2" x1="183051" y1="573804" x2="81321" y2= "675533" />
     <line class="fil0 str2" x1="183051" y1="578352" x2="81321" y2= "680082" />
     <line class="fil0 str2" x1="183051" y1="582901" x2="81321" y2= "684631" />
     <line class="fil0 str2" x1="183051" y1="587450" x2="81321" y2= "689179" />
     <line class="fil0 str2" x1="183051" y1="591998" x2="81321" y2= "693728" />
     <line class="fil0 str2" x1="183051" y1="596547" x2="81321" y2= "698277" />
     <line class="fil0 str2" x1="183051" y1="601096" x2="81321" y2= "702825" />
     <line class="fil0 str2" x1="183051" y1="605645" x2="81321" y2= "707374" />
     <line class="fil0 str2" x1="183051" y1="610193" x2="81321" y2= "711923" />
     <line class="fil0 str2" x1="183051" y1="614742" x2="81321" y2= "716471" />
     <line class="fil0 str2" x1="183051" y1="619291" x2="81321" y2= "721020" />
     <line class="fil0 str2" x1="183051" y1="623839" x2="81321" y2= "725569" />
     <line class="fil0 str2" x1="183051" y1="628388" x2="81321" y2= "730118" />
     <line class="fil0 str2" x1="183051" y1="632937" x2="81321" y2= "734666" />
     <line class="fil0 str2" x1="183051" y1="637485" x2="81321" y2= "739215" />
     <line class="fil0 str2" x1="183051" y1="642034" x2="81321" y2= "743764" />
     <line class="fil0 str2" x1="183051" y1="646583" x2="81321" y2= "748312" />
     <line class="fil0 str2" x1="183051" y1="651132" x2="81321" y2= "752861" />
     <line class="fil0 str2" x1="183051" y1="655680" x2="81321" y2= "757410" />
     <line class="fil0 str2" x1="183051" y1="660229" x2="81321" y2= "761958" />
     <line class="fil0 str2" x1="183051" y1="664778" x2="81321" y2= "766507" />
     <line class="fil0 str2" x1="183051" y1="669326" x2="81321" y2= "771056" />
     <line class="fil0 str2" x1="183051" y1="673875" x2="81321" y2= "775605" />
     <line class="fil0 str2" x1="183051" y1="678424" x2="81321" y2= "780153" />
     <line class="fil0 str2" x1="183051" y1="682972" x2="81321" y2= "784702" />
     <line class="fil0 str2" x1="183051" y1="687521" x2="81321" y2= "789251" />
     <line class="fil0 str2" x1="183051" y1="692070" x2="81321" y2= "793799" />
     <line class="fil0 str2" x1="183051" y1="696619" x2="81321" y2= "798348" />
     <line class="fil0 str2" x1="183051" y1="701167" x2="81321" y2= "802897" />
     <line class="fil0 str2" x1="183051" y1="705716" x2="81321" y2= "807445" />
     <line class="fil0 str2" x1="183051" y1="710265" x2="81321" y2= "811994" />
     <line class="fil0 str2" x1="183051" y1="714813" x2="81321" y2= "816543" />
     <line class="fil0 str2" x1="183051" y1="719362" x2="81321" y2= "821092" />
     <line class="fil0 str2" x1="183051" y1="723911" x2="81321" y2= "825640" />
     <line class="fil0 str2" x1="183051" y1="728459" x2="81321" y2= "830189" />
     <line class="fil0 str2" x1="183051" y1="733008" x2="81321" y2= "834738" />
     <line class="fil0 str2" x1="183051" y1="737557" x2="81321" y2= "839286" />
     <line class="fil0 str2" x1="183051" y1="742106" x2="81321" y2= "843835" />
     <line class="fil0 str2" x1="183051" y1="746654" x2="81321" y2= "848384" />
     <line class="fil0 str2" x1="183051" y1="751203" x2="81321" y2= "852932" />
     <line class="fil0 str2" x1="183051" y1="755752" x2="81321" y2= "857481" />
     <line class="fil0 str2" x1="183051" y1="760300" x2="81321" y2= "862030" />
     <line class="fil0 str2" x1="183051" y1="764849" x2="81321" y2= "866579" />
     <line class="fil0 str2" x1="183051" y1="769398" x2="81321" y2= "871127" />
     <line class="fil0 str2" x1="183051" y1="773946" x2="81321" y2= "875676" />
     <line class="fil0 str2" x1="183051" y1="778495" x2="81321" y2= "880225" />
     <line class="fil0 str2" x1="183051" y1="783044" x2="81321" y2= "884773" />
     <line class="fil0 str2" x1="183051" y1="787592" x2="81321" y2= "889322" />
     <line class="fil0 str2" x1="183051" y1="792141" x2="81321" y2= "893871" />
     <line class="fil0 str2" x1="183051" y1="796690" x2="81321" y2= "898419" />
     <line class="fil0 str2" x1="183051" y1="801238" x2="81321" y2= "902968" />
     <line class="fil0 str2" x1="183051" y1="805787" x2="81321" y2= "907517" />
     <line class="fil0 str2" x1="183051" y1="810336" x2="81321" y2= "912065" />
     <line class="fil0 str2" x1="183051" y1="814885" x2="81321" y2= "916614" />
     <line class="fil0 str2" x1="183051" y1="819433" x2="81321" y2= "921163" />
     <line class="fil0 str2" x1="183051" y1="823982" x2="81321" y2= "925712" />
     <line class="fil0 str2" x1="183051" y1="828531" x2="81321" y2= "930260" />
     <line class="fil0 str2" x1="183051" y1="833079" x2="81321" y2= "934809" />
     <line class="fil0 str2" x1="183051" y1="837628" x2="81321" y2= "939358" />
     <line class="fil0 str2" x1="183051" y1="842177" x2="81321" y2= "943906" />
     <line class="fil0 str2" x1="183051" y1="846725" x2="81321" y2= "948455" />
     <line class="fil0 str2" x1="183051" y1="851274" x2="81321" y2= "953004" />
     <line class="fil0 str2" x1="183051" y1="855823" x2="81321" y2= "957552" />
     <line class="fil0 str2" x1="183051" y1="860372" x2="81321" y2= "962101" />
     <line class="fil0 str2" x1="183051" y1="864920" x2="81321" y2= "966650" />
     <line class="fil0 str2" x1="183051" y1="869469" x2="81321" y2= "971198" />
     <line class="fil0 str2" x1="183051" y1="874018" x2="81321" y2= "975747" />
     <line class="fil0 str2" x1="183051" y1="878566" x2="81321" y2= "980296" />
     <line class="fil0 str2" x1="183051" y1="883115" x2="81321" y2= "984844" />
     <line class="fil0 str2" x1="183051" y1="887664" x2="81321" y2= "989393" />
     <line class="fil0 str2" x1="183051" y1="892212" x2="81321" y2= "993942" />
     <line class="fil0 str2" x1="183051" y1="896761" x2="81321" y2= "998491" />
     <line class="fil0 str2" x1="183051" y1="901310" x2="81321" y2= "1003039" />
    </g>
   </g>
  </g>
  <path class="fil0" d="M109627 450098l0 -12037 -9925 0 0 12037 9925 0zm31306 0l0 -12037 -9924 0 0 12037 9924 0z"/>
 </g>
</svg>
